<svg viewBox="0 0 1700 700" xmlns="http://www.w3.org/2000/svg"><path d="m1294 382.85 30 1.93c.57 0 1.35.79 1.65 2.12l16.5 72c.4 1.73-.26 3.43-1.12 3.79l-27.43 11.61a.75.75 0 0 1 -.29.06c-.6 0-1.39-.81-1.69-2.16l-19-85.52a4.05 4.05 0 0 1 .58-3.34 1.15 1.15 0 0 1 .82-.49m0-2c-2.38 0-4.06 3.08-3.35 6.26l19 85.53c.5 2.25 2 3.72 3.65 3.72a2.7 2.7 0 0 0 1.07-.22l27.54-11.62c1.87-.79 2.88-3.49 2.29-6.09l-16.5-72c-.48-2.08-1.88-3.57-3.47-3.67l-30-1.93z"/><g fill="#ffc61a"><path d="m1329 439.06c-.26.05-.38.31-.31.63s.29.51.54.45.37-.31.29-.65-.32-.49-.52-.43z"/><path d="m1326.3 436.81.92-.21-.12-.54-.93.22-.17-.73 1-.22-.13-.53-1.88.42a1.16 1.16 0 0 1 .48.87c.14.63.29 1.26.44 1.89 0 .11.05.21.08.32l1.65-.4-.13-.54-1 .23z"/><path d="m1325.37 439.42v.08l.11.46h-.12a.36.36 0 0 0 -.37.37 1.28 1.28 0 0 0 .18.64c.12.21.31.14.48 0a2.56 2.56 0 0 1 .27-.07c-.11-.47-.21-.92-.32-1.36-.07-.01-.17-.06-.23-.12z"/><path d="m1327.25 440.47s.08.07.12.11a.4.4 0 0 0 0-.15c-.06-.3-.13-.6-.2-.91h-.17c.11.36.17.65.25.95z"/><path d="m1333.29 433.48h.19l.17.66h.07l-.13-.65.19-.19-.5.11z"/><path d="m1334.22 433.71-.35-.45.18.79h.07l-.1-.51.29.37.09-.44.16.48-.19-.79h-.06c-.01.18-.05.36-.09.55z"/><path d="m1329.82 434.79a.73.73 0 0 0 -.78-.48c-.46.06-.91.19-1.42.3a1 1 0 0 1 .45.72c.18.77.36 1.54.55 2.33l.63-.15-.3-1.26v-.09a1.67 1.67 0 0 1 .43.25c.22.22.4.48.6.72.06.07.16.15.23.14a3.1 3.1 0 0 0 .58-.13l-1.09-1.33a.91.91 0 0 0 .12-1.02zm-.55.64c-.07.16-.23.25-.4.4l-.23-1a1.33 1.33 0 0 1 .52.13.55.55 0 0 1 .11.47z"/><path d="m1324.8 438.58-.73-3.16a.64.64 0 0 0 -.75.6 10.58 10.58 0 0 1 -.33 1.06l-.83-.85c-.17-.17-.32-.4-.59-.29a2.85 2.85 0 0 1 -.55.13 6 6 0 0 1 .32.7c.11.37.18.74.26 1.11l.32 1.4.68-.17-.42-1.82a5.6 5.6 0 0 1 .71.66c.3.32.38.3.51-.11l.3-1h.07l.42 1.84z"/><path d="m1318.84 440-.74-3.26-.72.16.3 1.29-1.14.26-.29-1.31-.92.21c.64 1 .56 2.22 1 3.27l.71-.17-.3-1.35 1.14-.27.3 1.34z"/><path d="m1314.51 438.37c-.09-.7-.06-.74-.76-.74a1.74 1.74 0 0 0 -.59.13 1.86 1.86 0 0 0 .62 3.53 1.93 1.93 0 0 0 .79-.17c.54-.26.59-.3.33-1-.66.52-1.18.58-1.6.19a1.43 1.43 0 0 1 -.3-1.31c.16-.63.58-.79 1.51-.63z"/><path d="m1319.12 442a1.5 1.5 0 0 1 -.25-.19l.26-.18h.07v-.09a.83.83 0 0 0 -.32.07.35.35 0 0 0 -.16.26.5.5 0 0 0 .18.26 3.48 3.48 0 0 0 .39.28l-.36.28a.37.37 0 0 0 .52-.21c.04-.3-.14-.38-.33-.48z"/><path d="m1323.34 440.48a.52.52 0 0 0 0 .21 2.3 2.3 0 0 1 .1.51c0 .11-.1.22-.16.32-.07-.07-.17-.13-.2-.22s-.08-.36-.14-.54-.11-.11-.16-.17v.09c0 .11.06.23.08.34s0 .23.08.35c.08.29.21.37.43.28l.4-.16c-.07-.28-.13-.57-.21-.86-.1-.06-.18-.1-.22-.15z"/><path d="m1320 436.33-.85.19c.59 1 .55 2.16.94 3.2l.65-.15z"/><path d="m1321 441.22.26-.12v-.05l-.42-.07-.11.16c.09.28.14.51.22.72s.14.26.24.29.22 0 .33-.07v-.09c-.39.01-.43.01-.52-.77z"/><path d="m1331.79 433.67c-.14 0-.2.1-.21.28 0 .69-.09 1.38-.14 2.08 0 .31 0 .63-.06.93.53.11.68-.23.6-.8.29-.07.54-.14.8-.18a.29.29 0 0 1 .23.14c.28.43.28.44.69.33l.22-.05-1.39-2.33c-.3-.5-.3-.49-.74-.4zm.23 1.94v-1.15c.22.36.39.67.58 1z"/><path d="m1317.6 419.09c-.5-.57-.88-.78-1.21-.69a.84.84 0 0 0 1.21.69z"/><path d="m1322.16 426.41a4.58 4.58 0 0 0 .36-2l-.53.12c.06.61.12 1.24.17 1.88z"/><path d="m1320.64 424.6a6.16 6.16 0 0 1 .47 3.18 7.28 7.28 0 0 0 -.7-3.21c-.17 0-.21.1-.17.29a10.23 10.23 0 0 1 .16 1.09 20.18 20.18 0 0 0 .16 2.06c.18 1 .47 1.91.73 2.87a4.07 4.07 0 0 0 .22.58v-.75l.85.62a9.87 9.87 0 0 0 -.57-1.08 1.5 1.5 0 0 1 -.19-1.14 5 5 0 0 0 .13-.65 5 5 0 0 0 -.78-3.73c-.08-.14-.17-.25-.31-.13z"/><path d="m1329.7 410c-1-3.2-3.87-5.58-6.59-5.45-4.68.21-9.6.45-14.8.72-2.88.14-5 2.49-5.16 5.68a19.74 19.74 0 0 0 .77 4.64c0 .06.13.14.2.15.61.09 1.21.16 1.81.23a8.47 8.47 0 0 1 3.53 1.25c.16.1.32.23.55.38l-.71.58v.09a3.92 3.92 0 0 0 .61-.18c.42-.19.41-.2.77.23l.3.35.59.72v.11l-1.47.18a1.34 1.34 0 0 0 1.43.23c.21-.09.32 0 .38.23s.12.49.16.74c.11.6.06.71-.48.71a8.23 8.23 0 0 1 -1.29-.15 2.78 2.78 0 0 0 .76.48 5.38 5.38 0 0 0 .89.17 1.44 1.44 0 0 1 -1.59 1.06 2.83 2.83 0 0 1 -1.92-1.57c.87.26 1.35-.21 1.21-1.16 0-.09 0-.18-.05-.26a3.59 3.59 0 0 0 -.95-1.59 9 9 0 0 0 -3.11-2c-.5-.22-1-.38-1.55-.59l4.8 21.76c0-.15.07-.22.09-.29a4.1 4.1 0 0 1 3.83-3.29c2.92-.14 5.76-.16 8.51-.26a7.81 7.81 0 0 0 1.61-.22 8.9 8.9 0 0 0 1.21-.47c2.22-.89 4.38-1.74 6.47-2.6a3.23 3.23 0 0 1 2.72 0 4.34 4.34 0 0 1 1.77 1.39l-4.49-18.78a6.66 6.66 0 0 0 -2.14 2.24 3.59 3.59 0 0 0 -.49 1.69 2.76 2.76 0 0 0 .09.81 1.37 1.37 0 0 0 .62.9c.31.19.55.06.82-.19-.15.88-.32 1.63-1.05 1.88a1.38 1.38 0 0 1 -1.53-.57l.63-.34a.79.79 0 0 0 .38-.65 1.72 1.72 0 0 1 -1.15.51.3.3 0 0 1 -.32-.24c-.1-.33-.18-.66-.27-1s0-.31.24-.28a.9.9 0 0 0 1-.52l-1.33.17c.15-.55.27-1 .37-1.44 0-.21.13-.27.33-.17a.83.83 0 0 0 .72 0l-.8-.38c.91-1.64 2.39-2.14 3.8-2.64-.23-1-.43-2-.73-3zm-21.56 11a7.66 7.66 0 0 1 -.91-3s0-.05 0-.11a4.85 4.85 0 0 1 1.82 2 2 2 0 0 1 .13.67.61.61 0 0 1 -.9.61.31.31 0 0 1 -.14-.17zm20.95-2.49a.46.46 0 0 1 -.57-.2 1.54 1.54 0 0 1 -.29-1 3 3 0 0 1 .16-.91 11.13 11.13 0 0 1 .46-1 6.9 6.9 0 0 1 .51 2.88c0 .04-.16.15-.27.19zm-9-4.3v.7a2.22 2.22 0 0 1 1.53.7c-1.07-.29-2-.23-2.59.82a2.79 2.79 0 0 1 1.06-2.26zm2.23 4.41a1.05 1.05 0 0 1 -1.54.58l-.26-.14v.17s0 .1 0 .13l-.83-.39.12-.12c.35-.38.68-.79 1-1.15a5.12 5.12 0 0 1 .84-.63s.13 0 .19.07a1.28 1.28 0 0 1 .48 1.44zm-4-2.08a2.29 2.29 0 0 0 -3-.18 1.85 1.85 0 0 1 1.26-1.08l-.29-.62c.54-.02 1.64.96 2.03 1.84zm.53 2.55-.6.56-.18-.29a1.28 1.28 0 0 1 -1 .53 1.49 1.49 0 0 1 -1.33-1.31.86.86 0 0 1 .21-.76.34.34 0 0 1 .26-.06 4.09 4.09 0 0 1 1.41.65 7.54 7.54 0 0 0 1.23.64zm-9.63-2.6-2.09-.89a4.52 4.52 0 0 1 .46-2.11 2 2 0 0 1 .32-.43c.38-.37.72-.35 1.17.08a5.79 5.79 0 0 1 .48.51c.17.21.33.44.52.7a2.68 2.68 0 0 0 -.86 2.1zm17.61-1.88a3.41 3.41 0 0 0 -1.52-1.72 3.47 3.47 0 0 1 .38-1.38.45.45 0 0 1 .65-.19 2.14 2.14 0 0 1 .92.78c.31.44.59.92.86 1.35zm2.61-1.79a.24.24 0 0 1 -.11.19c-.24.12-.48.21-.75.33-.13-.25-.27-.48-.4-.72a6.25 6.25 0 0 0 -1.18-1.62c-.65-.62-1.25-.66-1.64 0a5.85 5.85 0 0 0 -.58 1.55 15.73 15.73 0 0 0 -.29 2 1 1 0 0 0 .12.5c.37.74.75 1.48 1.12 2.23a1.91 1.91 0 0 1 .09.26l-.54-.27v.16a9.51 9.51 0 0 1 .06 5.31 11.88 11.88 0 0 1 -1.8 4.07c-.16.23-.28.5-.45.72a3.65 3.65 0 0 1 -.63.67.6.6 0 0 0 -.3.46.85.85 0 0 1 0 .17 2 2 0 0 0 .57 2.09c.24.29.52.52.8.8-.49.46-1 .19-1.51-.09v1.27h-.12a3.93 3.93 0 0 1 -.5-.58 4.33 4.33 0 0 1 -.42-.9c-.25-.77-.5-1.55-.7-2.33a1.07 1.07 0 0 0 -.55-.75 18 18 0 0 1 -4.38-3.51 12.79 12.79 0 0 1 -2.46-3.85 18.24 18.24 0 0 1 -.5-1.79c0-.11-.05-.22-.09-.38l-.47.42a9.63 9.63 0 0 1 .08-2.75.91.91 0 0 0 -.14-.71 13.88 13.88 0 0 0 -2.35-3.08c-1.1-1-2-.91-2.46.34a11.76 11.76 0 0 0 -.41 1.82 5.89 5.89 0 0 0 -.07.65c-.38-.06-.76-.11-1.13-.18a.45.45 0 0 1 -.23-.24 7.3 7.3 0 0 1 -.36-2.46l.94.63c-.27-.38-.5-.68-.69-1a1 1 0 0 1 -.15-.59 3.89 3.89 0 0 1 1-2.05.61.61 0 0 1 .14-.11 2.13 2.13 0 0 0 .86 1.79c-.07-.18-.14-.35-.22-.53a2.49 2.49 0 0 1 -.16-1.53.37.37 0 0 1 .16-.25 3.66 3.66 0 0 1 1.7-.54c-.06.4-.14.78-.17 1.18a1.69 1.69 0 0 0 .48 1.17 5.81 5.81 0 0 1 -.09-.58 2.71 2.71 0 0 1 .37-1.66.33.33 0 0 1 .19-.14 5.67 5.67 0 0 1 2.22.42c-1 .89-1.19 1.5-.87 2.4 0-.14.07-.24.09-.35a2.36 2.36 0 0 1 1.34-1.69.48.48 0 0 1 .39 0c.56.32 1.1.67 1.72 1-1 .33-1.71.82-1.56 2.15l.11-.23a2.18 2.18 0 0 1 1.82-1.4.56.56 0 0 1 .4.15c.49.51 1 1 1.44 1.55a4.89 4.89 0 0 1 .29.42l-.52-.1a1.26 1.26 0 0 0 -1.54 1.32v1.44a1 1 0 0 1 -.85 1.13q-.66.09-.48-.6c.07-.28.16-.56.24-.85-.49.15-1 1.75-.9 2.37l.34-.3a10.63 10.63 0 0 0 1.25 4.84c.07-.2.13-.35.2-.54l1.29 2.5c0-.27 0-.48.07-.69.66.92 1.31 1.82 2 2.73v-.05c-1.25-2-2.71-3.88-3.4-6.17l.83.69c-.19.24 0 .57.15.91a2 2 0 0 0 .87.84c.45.21.71 0 .6-.57-.06-.25-.15-.49-.23-.76l1.26.06c-.69.81.06 2.17 1.12 2.36-.35.26-.88 0-1.53-.78-.22.58.16 1 1.19 1.51l-.81-.12a.84.84 0 0 0 .7.43 2.19 2.19 0 0 0 1.76-.64.35.35 0 0 0 0-.53c-.16-.2-.34-.37-.51-.56a1.24 1.24 0 0 1 -.18-.22c-.19-.33-.52-.42-.67-.16-.64-.46-.78-1-.46-2 0 .29.08.53.12.78a.61.61 0 0 0 .37.49 1.63 1.63 0 0 0 2.16-.3.56.56 0 0 0 .11-.63c-.07-.23-.14-.46-.23-.72.67.86.91 1.28.46 2-.25-.2-.52 0-.54.33a.92.92 0 0 1 -.08.27l-.07.11c-.35.61-.2 1 .46 1.16a2.11 2.11 0 0 0 1.51-.06.72.72 0 0 0 .45-.6l-.73.39a7 7 0 0 0 .61-.76.88.88 0 0 0 -.15-1c-.12.66-.39 1.16-1 1.19a1.43 1.43 0 0 0 .68-1.16 1.34 1.34 0 0 0 -.71-1.34l1.08-.37a8.89 8.89 0 0 0 .22.89c.12.36.35.45.61.29a1.59 1.59 0 0 0 .44-1.56 1.61 1.61 0 0 0 -.22-.36l.44-.86a12.51 12.51 0 0 1 .12 1.55c-.11 1.53-.28 3.05-.43 4.59v.23a1 1 0 0 0 .07.15c.19-1 .36-2 .53-3l.34.61c0-.89 0-1.7.06-2.55l.38.42a10.5 10.5 0 0 0 -.93-4.58l.49.26a4.56 4.56 0 0 0 -1.8-2c.19.25.39.5.57.75s.19.53-.13.58a1.29 1.29 0 0 1 -1.29-.89c-.19-.39-.36-.8-.55-1.19a1.75 1.75 0 0 0 -1.34-1.11 3.26 3.26 0 0 0 -.82.13 2.06 2.06 0 0 0 -.29.13 4.23 4.23 0 0 1 .11-.54c.18-.52.39-1 .57-1.53a.41.41 0 0 1 .47-.29 3 3 0 0 1 2.14 1.08c0 .05.09.09.19.19a2.6 2.6 0 0 0 -2.34-1.79c.4-.44.75-.85 1.13-1.23.06-.07.22-.05.33 0a3.32 3.32 0 0 1 1.83 1.37 1.13 1.13 0 0 0 .22.27 2.22 2.22 0 0 0 -.62-1.26 12.64 12.64 0 0 0 -1.09-.84 5.24 5.24 0 0 1 1.35-.55c.33-.1.56.06.82.35a4.23 4.23 0 0 1 .86 1.67 2.35 2.35 0 0 0 -.78-2.11 3.59 3.59 0 0 1 1.73.3 6.67 6.67 0 0 1 .5 1 5.76 5.76 0 0 1 .16 1 2.06 2.06 0 0 0 0-1.72 5.35 5.35 0 0 1 .68.58 10.89 10.89 0 0 1 .9 1.11 1.06 1.06 0 0 1 .14.56c0 .3-.08.58-.13.95l.46-.67a8.31 8.31 0 0 1 .54 2.3z"/><path d="m1292.92 382.42 20.14 92.35 31.83-13.3-18.52-76.92zm41 39.83c.93 3.91 1.88 7.83 2.82 11.78s-.25 7.81-3.09 9.52a5.82 5.82 0 0 1 -1.44.59q-6.6 1.91-14 4c-3.11.88-5.91-.07-8.3-2.88a10.08 10.08 0 0 1 -2.1-4.39q-3.09-14.07-6.1-27.8c-1-4.48 1.25-8.5 5-9.3a8.72 8.72 0 0 1 1.36-.17l14.44-.58c3.27-.14 6.46 2.29 8 6a10.76 10.76 0 0 1 .52 1.64q1.48 5.76 2.87 11.59z"/><path d="m1318.61 425a5 5 0 0 0 1.25 1.87c-.25-.67-.48-1.29-.72-1.92z"/><path d="m1320.82 418.68a.77.77 0 0 0 .81-.35.59.59 0 0 0 0-.6c-.52.07-.56.61-.81.95z"/></g><path d="m1330.59 409c-1.54-3.73-4.73-6.16-8-6l-14.44.58a8.72 8.72 0 0 0 -1.36.17c-3.8.8-6 4.82-5 9.3q3 13.72 6.1 27.8a10.08 10.08 0 0 0 2.1 4.39c2.39 2.81 5.19 3.76 8.3 2.88q7.35-2.07 14-4a5.82 5.82 0 0 0 1.44-.59c2.84-1.71 4-5.55 3.09-9.52s-1.89-7.87-2.82-11.78-1.86-7.75-2.79-11.59a10.76 10.76 0 0 0 -.62-1.64zm-17.29 31.31c.42.39.94.33 1.6-.19.26.68.21.72-.33 1a1.93 1.93 0 0 1 -.79.17 1.86 1.86 0 0 1 -.62-3.53 1.74 1.74 0 0 1 .59-.13c.7 0 .67 0 .76.74-.93-.16-1.35 0-1.54.59a1.43 1.43 0 0 0 .33 1.37zm3.41-1.22.3 1.35-.71.17c-.41-1.05-.33-2.28-1-3.27l.92-.21.29 1.31 1.14-.26-.3-1.29.72-.16.74 3.26-.69.17-.3-1.34zm2.72 3.36a.37.37 0 0 1 -.52.21l.36-.28a3.48 3.48 0 0 1 -.39-.28.5.5 0 0 1 -.18-.26.35.35 0 0 1 .16-.26.83.83 0 0 1 .32-.07v.09h-.07l-.26.18a1.5 1.5 0 0 0 .25.19c.21.13.39.21.33.5zm-.27-6 .85-.19.74 3.24-.65.15c-.39-.97-.35-2.15-.94-3.13zm2 5.63c-.1 0-.19-.17-.24-.29s-.13-.44-.22-.72l.11-.16.42.07v.05l-.26.12c.09.76.13.82.48.77v.09c-.06.1-.18.18-.28.14zm2.51-.66-.4.16c-.22.09-.35 0-.43-.28 0-.12 0-.23-.08-.35s0-.23-.08-.34v-.09c0 .06.14.1.16.17s.08.37.14.54.13.15.2.22c.06-.1.16-.21.16-.32a2.3 2.3 0 0 0 -.1-.51.52.52 0 0 1 0-.21s.12.09.13.15c.18.36.24.65.31.93zm0-4.63-.3 1c-.13.41-.21.43-.51.11a5.6 5.6 0 0 0 -.71-.66l.42 1.82-.68.17-.32-1.4c-.08-.37-.15-.74-.26-1.11a6 6 0 0 0 -.32-.7 2.85 2.85 0 0 0 .55-.13c.27-.11.42.12.59.29l.83.85a10.58 10.58 0 0 0 .33-1.06.64.64 0 0 1 .75-.6l.73 3.16-.61.14-.42-1.84zm2.17 4.1a2.56 2.56 0 0 0 -.27.07c-.17.09-.36.16-.48 0a1.28 1.28 0 0 1 -.18-.64.36.36 0 0 1 .37-.37h.12l-.11-.46v-.08c.06.06.16.11.18.18.19.41.29.9.4 1.41zm1.53-.53a.4.4 0 0 1 0 .15s-.11-.07-.12-.11c-.08-.3-.14-.59-.22-.91h.17c.07.34.14.64.2.94zm.19-2.53-1.65.4c0-.11-.06-.21-.08-.32-.15-.63-.3-1.26-.44-1.89a1.16 1.16 0 0 0 -.48-.87l1.88-.42.13.53-1 .22.17.73.93-.22.12.54-.92.21.18.78 1-.23zm1.59 2.24c-.25.06-.47-.13-.54-.45s0-.58.31-.63.44.1.52.43 0 .65-.26.72zm1.08-2.87c-.07 0-.17-.07-.23-.14-.2-.24-.38-.5-.6-.72a1.67 1.67 0 0 0 -.43-.25v.09l.3 1.26-.63.15c-.19-.79-.37-1.56-.55-2.33a1 1 0 0 0 -.45-.72c.51-.11 1-.24 1.42-.3a.73.73 0 0 1 .78.48.91.91 0 0 1 -.07 1l1.09 1.33a3.1 3.1 0 0 1 -.6.22zm3.44-.82c-.41.11-.41.1-.69-.33a.29.29 0 0 0 -.23-.14c-.26 0-.51.11-.8.18.08.57-.07.91-.6.8 0-.3 0-.62.06-.93 0-.7.1-1.39.14-2.08 0-.18.07-.25.21-.28.44-.09.44-.1.74.4l1.39 2.33zm-.11-2.94.13.65h-.07l-.17-.66h-.19v-.05l.5-.11zm1 .45-.16-.48-.09.44-.29-.37.1.51h-.12l-.18-.79.35.45c0-.19.08-.37.11-.55h.06zm-7.13-17.91a.83.83 0 0 1 -.72 0c-.2-.1-.28 0-.33.17-.1.45-.22.89-.37 1.44l1.33-.17a.9.9 0 0 1 -1 .52c-.21 0-.3 0-.24.28s.17.66.27 1a.3.3 0 0 0 .32.24 1.72 1.72 0 0 0 1.15-.51.79.79 0 0 1 -.38.65l-.63.34a1.38 1.38 0 0 0 1.53.57c.73-.25.9-1 1.05-1.88-.27.25-.51.38-.82.19a1.37 1.37 0 0 1 -.62-.9 2.76 2.76 0 0 1 -.09-.81 3.59 3.59 0 0 1 .49-1.69 6.66 6.66 0 0 1 2.14-2.24l4.49 18.82a4.34 4.34 0 0 0 -1.76-1.53 3.23 3.23 0 0 0 -2.72 0c-2.09.86-4.25 1.71-6.47 2.6a8.9 8.9 0 0 1 -1.21.47 7.81 7.81 0 0 1 -1.61.22c-2.75.1-5.59.12-8.51.26a4.1 4.1 0 0 0 -3.83 3.29c0 .07 0 .14-.09.29l-4.8-21.76c.54.21 1 .37 1.55.59a9 9 0 0 1 3.11 2 3.59 3.59 0 0 1 .95 1.59c0 .08 0 .17.05.26.14.95-.34 1.42-1.21 1.16a2.83 2.83 0 0 0 1.92 1.57 1.44 1.44 0 0 0 1.63-1.01 5.38 5.38 0 0 1 -.89-.17 2.78 2.78 0 0 1 -.76-.48 8.23 8.23 0 0 0 1.29.15c.54 0 .59-.11.48-.71 0-.25-.11-.49-.16-.74s-.17-.32-.38-.23a1.34 1.34 0 0 1 -1.43-.23l1.47-.18v-.11l-.59-.72-.3-.35c-.36-.43-.35-.42-.77-.23a3.92 3.92 0 0 1 -.61.18v-.09l.71-.58c-.23-.15-.39-.28-.55-.38a8.47 8.47 0 0 0 -3.53-1.25c-.6-.07-1.2-.14-1.81-.23-.07 0-.19-.09-.2-.15a19.74 19.74 0 0 1 -.77-4.64c.14-3.19 2.28-5.54 5.16-5.68 5.2-.27 10.12-.51 14.8-.72 2.72-.13 5.57 2.25 6.59 5.45.32 1 .5 2 .75 3.08-1.41.5-2.89 1-3.8 2.64z"/><path d="m1328.32 411.26c0-.37.12-.65.13-.95a1.06 1.06 0 0 0 -.14-.56 10.89 10.89 0 0 0 -.9-1.11 5.35 5.35 0 0 0 -.68-.58 2.06 2.06 0 0 1 0 1.72 5.76 5.76 0 0 0 -.16-1 6.67 6.67 0 0 0 -.5-1 3.59 3.59 0 0 0 -1.73-.3 2.35 2.35 0 0 1 .78 2.11 4.23 4.23 0 0 0 -.86-1.67c-.26-.29-.49-.45-.82-.35a5.24 5.24 0 0 0 -1.35.55 12.64 12.64 0 0 1 1.09.84 2.22 2.22 0 0 1 .62 1.26 1.13 1.13 0 0 1 -.22-.27 3.32 3.32 0 0 0 -1.83-1.37c-.11 0-.27-.06-.33 0-.38.38-.73.79-1.13 1.23a2.6 2.6 0 0 1 2.34 1.79c-.1-.1-.15-.14-.19-.19a3 3 0 0 0 -2.14-1.08.41.41 0 0 0 -.47.29c-.18.51-.39 1-.57 1.53a4.23 4.23 0 0 0 -.11.54 2.06 2.06 0 0 1 .29-.13 3.26 3.26 0 0 1 .82-.13 1.75 1.75 0 0 1 1.34 1.11c.19.39.36.8.55 1.19a1.29 1.29 0 0 0 1.29.89c.32-.05.37-.25.13-.58s-.38-.5-.57-.75a4.56 4.56 0 0 1 1.8 2l-.49-.26a10.5 10.5 0 0 1 .93 4.58l-.38-.42c0 .85 0 1.66-.06 2.55l-.34-.61c-.17 1-.34 2-.53 3a1 1 0 0 1 -.07-.15c0-.08 0-.15 0-.23.15-1.54.32-3.06.43-4.59a12.51 12.51 0 0 0 -.12-1.55l-.44.86a1.61 1.61 0 0 1 .22.36 1.59 1.59 0 0 1 -.44 1.56c-.26.16-.49.07-.61-.29a8.89 8.89 0 0 1 -.22-.89l-1.08.37a1.34 1.34 0 0 1 .71 1.34 1.43 1.43 0 0 1 -.68 1.16c.65 0 .92-.53 1-1.19a.88.88 0 0 1 .15 1 7 7 0 0 1 -.61.76l.73-.39a.72.72 0 0 1 -.45.6 2.11 2.11 0 0 1 -1.51.06c-.66-.17-.81-.55-.46-1.16l.07-.11a.92.92 0 0 0 .08-.27c0-.36.29-.53.54-.33.45-.71.21-1.13-.46-2 .09.26.16.49.23.72a.56.56 0 0 1 -.11.63 1.63 1.63 0 0 1 -2.16.3.61.61 0 0 1 -.37-.49c0-.25-.08-.49-.12-.78-.32 1-.18 1.51.46 2 .15-.26.48-.17.67.16a1.24 1.24 0 0 0 .18.22c.17.19.35.36.51.56a.35.35 0 0 1 0 .53 2.19 2.19 0 0 1 -1.76.64.84.84 0 0 1 -.7-.43l.81.12c-1-.47-1.41-.93-1.19-1.51.65.77 1.18 1 1.53.78-1.06-.19-1.81-1.55-1.12-2.36l-1.26-.06c.08.27.17.51.23.76.11.53-.15.78-.6.57a2 2 0 0 1 -.87-.84c-.2-.34-.34-.67-.15-.91l-.83-.69c.69 2.29 2.15 4.18 3.4 6.17v.05c-.64-.91-1.29-1.81-2-2.73 0 .21 0 .42-.07.69l-1.29-2.5c-.07.19-.13.34-.2.54a10.63 10.63 0 0 1 -1.25-4.84l-.34.3c-.11-.62.41-2.22.9-2.37-.08.29-.17.57-.24.85q-.18.69.48.6a1 1 0 0 0 .85-1.13c0-.48 0-1 0-1.44a1.26 1.26 0 0 1 1.54-1.32l.52.1a4.89 4.89 0 0 0 -.29-.42c-.47-.52-1-1-1.44-1.55a.56.56 0 0 0 -.4-.15 2.18 2.18 0 0 0 -1.82 1.4l-.11.23c-.15-1.33.58-1.82 1.56-2.15-.62-.37-1.16-.72-1.72-1a.48.48 0 0 0 -.39 0 2.36 2.36 0 0 0 -1.34 1.69c0 .11-.06.21-.09.35-.32-.9-.09-1.51.87-2.4a5.67 5.67 0 0 0 -2.22-.42.33.33 0 0 0 -.19.14 2.71 2.71 0 0 0 -.37 1.66 5.81 5.81 0 0 0 .09.58 1.69 1.69 0 0 1 -.48-1.17c0-.4.11-.78.17-1.18a3.66 3.66 0 0 0 -1.7.54.37.37 0 0 0 -.16.25 2.49 2.49 0 0 0 .16 1.53c.08.18.15.35.22.53a2.13 2.13 0 0 1 -.86-1.79.61.61 0 0 0 -.14.11 3.89 3.89 0 0 0 -1 2.05 1 1 0 0 0 .15.59c.19.32.42.62.69 1l-.94-.63a7.3 7.3 0 0 0 .36 2.46.45.45 0 0 0 .23.24c.37.07.75.12 1.13.18a5.89 5.89 0 0 1 .07-.65 11.76 11.76 0 0 1 .41-1.82c.49-1.25 1.36-1.34 2.46-.34a13.88 13.88 0 0 1 2.35 3.08.91.91 0 0 1 .14.71 9.63 9.63 0 0 0 -.08 2.75l.47-.42c0 .16.06.27.09.38a18.24 18.24 0 0 0 .5 1.79 12.79 12.79 0 0 0 2.46 3.85 18 18 0 0 0 4.38 3.51 1.07 1.07 0 0 1 .55.75c.2.78.45 1.56.7 2.33a4.33 4.33 0 0 0 .42.9 3.93 3.93 0 0 0 .5.58h.12v-1.27c.51.28 1 .55 1.51.09-.28-.28-.56-.51-.8-.8a2 2 0 0 1 -.57-2.09.85.85 0 0 0 0-.17.6.6 0 0 1 .3-.46 3.65 3.65 0 0 0 .63-.67c.17-.22.29-.49.45-.72a11.88 11.88 0 0 0 1.8-4.07 9.51 9.51 0 0 0 -.06-5.31s0-.09 0-.16l.54.27a1.91 1.91 0 0 0 -.09-.26c-.37-.75-.75-1.49-1.12-2.23a1 1 0 0 1 -.12-.5 15.73 15.73 0 0 1 .29-2 5.85 5.85 0 0 1 .58-1.55c.39-.67 1-.63 1.64 0a6.25 6.25 0 0 1 1.14 1.58c.13.24.27.47.4.72.27-.12.51-.21.75-.33a.24.24 0 0 0 .11-.19 8.31 8.31 0 0 0 -.66-2.19zm-9.71 13.74.53-.05c.24.63.47 1.25.72 1.92a5 5 0 0 1 -1.25-1.87zm3.14 3.47a5 5 0 0 1 -.13.65 1.5 1.5 0 0 0 .19 1.14 9.87 9.87 0 0 1 .57 1.08l-.85-.62v.75a4.07 4.07 0 0 1 -.22-.58c-.26-1-.55-1.91-.73-2.87a20.18 20.18 0 0 1 -.16-2.06 10.23 10.23 0 0 0 -.16-1.09c0-.19 0-.27.17-.29a7.28 7.28 0 0 1 .7 3.21 6.16 6.16 0 0 0 -.47-3.18c.14-.12.23 0 .33.13a5 5 0 0 1 .76 3.72zm.41-2c-.05-.64-.11-1.27-.17-1.92l.53-.12a4.58 4.58 0 0 1 -.36 1.98z"/><path d="m1326.34 411.28a.45.45 0 0 0 -.65.19 3.47 3.47 0 0 0 -.38 1.38 3.41 3.41 0 0 1 1.52 1.72l1.29-1.16c-.27-.43-.55-.91-.86-1.35a2.14 2.14 0 0 0 -.92-.78z"/><path d="m1309.08 413.1c-.45-.43-.79-.45-1.17-.08a2 2 0 0 0 -.32.43 4.52 4.52 0 0 0 -.46 2.11l2.09.89a2.68 2.68 0 0 1 .86-2.14c-.19-.26-.35-.49-.52-.7a5.79 5.79 0 0 0 -.48-.51z"/><path d="m1315.9 417.78a.86.86 0 0 0 -.21.76 1.49 1.49 0 0 0 1.33 1.31 1.28 1.28 0 0 0 1-.53l.18.29.6-.56a7.54 7.54 0 0 1 -1.28-.68 4.09 4.09 0 0 0 -1.41-.65.34.34 0 0 0 -.21.06zm1.7 1.31a.84.84 0 0 1 -1.21-.69c.33-.09.71.12 1.21.69z"/><path d="m1321.63 417a5.12 5.12 0 0 0 -.84.63c-.36.36-.69.77-1 1.15l-.12.12.83.39s0-.08 0-.13 0-.1 0-.17l.26.14a1.05 1.05 0 0 0 1.54-.58 1.28 1.28 0 0 0 -.5-1.48c-.04-.01-.14-.07-.17-.07zm0 1.3a.77.77 0 0 1 -.81.35c.25-.34.29-.88.79-.95a.59.59 0 0 1 .02.63z"/><path d="m1309.22 420.51a2 2 0 0 0 -.13-.67 4.85 4.85 0 0 0 -1.82-2v.11a7.66 7.66 0 0 0 .91 3 .31.31 0 0 0 .18.16.61.61 0 0 0 .86-.6z"/><path d="m1329.36 418.2a6.9 6.9 0 0 0 -.51-2.88 11.13 11.13 0 0 0 -.46 1 3 3 0 0 0 -.16.91 1.54 1.54 0 0 0 .29 1 .46.46 0 0 0 .57.2c.11 0 .27-.11.27-.23z"/><path d="m1321.61 415.57a2.22 2.22 0 0 0 -1.53-.7v-.7a2.79 2.79 0 0 0 -1.07 2.22c.6-1.05 1.53-1.11 2.6-.82z"/><path d="m1316.58 415.24a1.85 1.85 0 0 0 -1.26 1.08 2.29 2.29 0 0 1 3 .18c-.39-.88-1.49-1.86-2-1.88z"/><path d="m1328.64 434.87.23 1c.17-.15.33-.24.4-.4a.55.55 0 0 0 -.11-.43 1.33 1.33 0 0 0 -.52-.17z"/><path d="m1332 435.61.62-.15c-.19-.33-.36-.64-.58-1z"/><path d="m1295.46 383 29.91 1.91c.56 0 1.32.78 1.63 2.1l16.41 71.45c.39 1.72-.26 3.4-1.11 3.76l-27.41 11.54a.75.75 0 0 1 -.29.06c-.59 0-1.38-.8-1.68-2.13l-18.9-84.91a4 4 0 0 1 .58-3.29 1.1 1.1 0 0 1 .81-.49m0-2c-2.37 0-4 3.06-3.34 6.21l18.9 84.92c.5 2.23 2 3.69 3.63 3.69a2.73 2.73 0 0 0 1.07-.22l27.46-11.6c1.86-.79 2.87-3.46 2.27-6l-16.4-71.49c-.48-2.07-1.87-3.55-3.46-3.65l-29.91-1.86z"/></svg>