<svg viewBox="0 0 1700 700" xmlns="http://www.w3.org/2000/svg"><path d="m1325.36 299.44 22.78 3.06c.16 0 .59.43.73 1.31l8.74 55.67a2.3 2.3 0 0 1 -.74 2.31l-21.62 7.39c-.13 0-.6-.4-.74-1.33l-9.93-66.12a2.69 2.69 0 0 1 .48-2.08.51.51 0 0 1 .29-.21m0-2c-1.75 0-3.1 2.2-2.74 4.59l9.92 66.12c.27 1.8 1.43 3 2.72 3a2.09 2.09 0 0 0 .69-.12l21.58-7.38c1.47-.5 2.38-2.5 2.06-4.51l-8.73-55.67a3.27 3.27 0 0 0 -2.45-3l-22.77-3.06a1.37 1.37 0 0 0 -.28 0z"/><g fill="#ffd147"><path d="m1344.27 337.09.27 1.78c-.13-.57-.26-1.14-.4-1.78-.41.54 0 5 .46 5.7l.05-.5.6.45.1-.05a2.44 2.44 0 0 1 -.36-2.5 3.61 3.61 0 0 0 -.38-2.73 2.94 2.94 0 0 0 -.34-.37z"/><path d="m1342.48 337.5 1 1.62.09-.06c-.16-.53-.31-1.05-.47-1.59z"/><path d="m1324.36 298.89 11.26 71 23.67-8.19-8.63-59.7zm20.06 29.68v.48l1.07.48v.1a4.08 4.08 0 0 0 -1 0 3.77 3.77 0 0 0 -.93.52 2.44 2.44 0 0 1 .86-1.58zm1.56 2.87a1 1 0 0 1 -.82 1.4 4 4 0 0 1 -.66-.19l-.08.18-.54-.29c.31-.35.62-.75 1-1.1a1.36 1.36 0 0 1 .66-.42c.09-.02.35.23.46.42zm-3.24-1.2a1.9 1.9 0 0 0 -2.2-.07l-.06-.13 1-.77-.14-.45a2.7 2.7 0 0 1 1.4 1.42zm.39 2.35-.46.41v-.1c-.1 0-.23 0-.31.08a1 1 0 0 1 -1.19 0 1.17 1.17 0 0 1 -.52-1c0-.48.24-.67.63-.49a9.52 9.52 0 0 1 .93.52zm-8.85 1.27a6.1 6.1 0 0 1 -.53-2.54 3.26 3.26 0 0 1 1.46 2.11c0 .47-.19.76-.58.69a.57.57 0 0 1 -.35-.26zm3.25.36a.39.39 0 0 1 -.3.28 10.43 10.43 0 0 1 -1.11-.11c.3.48.77.45 1.24.55a1.12 1.12 0 0 1 -1 .83c-.84.09-1.35-.52-1.85-1.29.4.08.76.12 1-.28a1.57 1.57 0 0 0 0-1.37 4 4 0 0 0 -1.61-1.85c-.76-.48-1.57-.84-2.38-1.26-.16-.08-.34-.14-.52-.21a8 8 0 0 1 5.06 1.64l-.55.45v.1a2.1 2.1 0 0 0 .57-.17c.21-.15.32-.08.47.14s.47.65.79 1.08l-1.21.19c.42.39.84.27 1.35.13-.02.41.05.78.05 1.15zm-3.75-4.82a3.49 3.49 0 0 1 .6-2c.38-.5.78-.48 1.21.05.24.28.43.59.56.77l-.84 1.87zm14.9 3.2a8.88 8.88 0 0 1 -1 4.47 28.45 28.45 0 0 1 -1.73 2.77c-.09.15-.26.23-.38.36a1.53 1.53 0 0 0 -.31.41 1.78 1.78 0 0 0 .44 2l.4.44c-.32.3-.44.3-1.18-.06a4.26 4.26 0 0 1 0 .51c0 .16-.06.32-.09.52a1.74 1.74 0 0 1 -.7-1.2c-.17-.71-.32-1.43-.48-2.14a.52.52 0 0 0 -.2-.28c-.81-.65-1.68-1.22-2.45-2a10.2 10.2 0 0 1 -2.87-4.53c-.15-.51-.21-1.05-.32-1.62l-.47.32c.1-.81.16-1.51.28-2.2a1.06 1.06 0 0 0 -.14-.85 24.29 24.29 0 0 0 -1.51-2.32c-1-1.2-1.84-1.09-2.35.26a16.14 16.14 0 0 0 -.45 1.79s0 0-.06 0c-1.06-.16-1.07-.17-1.15-1.38 0-.33 0-.65 0-1.07l.76.55c-.32-.61-.85-1.1-.49-1.75a14.74 14.74 0 0 1 .82-1.38 2.18 2.18 0 0 0 .69 1.49c-.2-.65-.49-1.4-.1-1.85a3 3 0 0 1 1.48-.56 2.28 2.28 0 0 0 .14 2.11 5.8 5.8 0 0 1 0-.69 6.25 6.25 0 0 1 .18-.86c.11-.39.32-.63.76-.5s.9.19 1.38.29a4.79 4.79 0 0 0 -.71.91 2.73 2.73 0 0 0 -.14 1.13 2.73 2.73 0 0 1 1.16-1.55.57.57 0 0 1 .7 0c.34.27.7.5 1.12.8a1.65 1.65 0 0 0 -1.37 1.74 2.1 2.1 0 0 1 1.55-1.25.53.53 0 0 1 .59.24c.36.48.74.94 1.11 1.41v.09a1 1 0 0 1 -.24 0c-.83-.15-1.35.28-1.44 1.24 0 .37 0 .74-.08 1.11a.85.85 0 0 1 -.64.84.58.58 0 0 1 -.44-.09c-.05 0 0-.3 0-.44a5.87 5.87 0 0 0 .16-.6 3.1 3.1 0 0 0 -.86 1.95l.31-.2c.15 2.19.34 3.13.8 3.94l.19-.35c.16.37.31.69.45 1l.44 1 .12-.51c.48.76.93 1.48 1.37 2.2h.05c-.43-.81-.87-1.62-1.31-2.43a9 9 0 0 1 -1-2.73l.62.54a1.39 1.39 0 0 0 .91 1.62c.27 0 .35-.17.34-.43a7.05 7.05 0 0 0 -.1-.73l.91.08a1.32 1.32 0 0 0 .7 2c-.38.09-.49 0-1.07-.63-.13.55.07.84.78 1.23l-.54-.11v.09a2.2 2.2 0 0 0 .55.28 1.65 1.65 0 0 0 1.44-.45.46.46 0 0 0 .15-.27c0-.32-.8-1.09-1.07-1.12a.65.65 0 0 1 -.42-.43 4.51 4.51 0 0 1 0-1h.09a2.19 2.19 0 0 0 .13.71 1 1 0 0 0 .55.35 1.36 1.36 0 0 0 .65.11c.71-.1 1-.6.81-1.47.24.38.5.68.39 1.12 0 .19-.06.46-.36.35-.07 0-.19.16-.27.27s0 .18-.06.24c-.63 1-.12 1.08.55 1.2a1.06 1.06 0 0 0 1.32-.62l-.38.19c.23-.37.53-.7.22-1.31-.18.43-.32.88-.71.92a5.2 5.2 0 0 0 .4-1 1 1 0 0 0 -.45-1l.84-.29c0 .23.06.44.1.65.09.39.3.5.56.31a1.35 1.35 0 0 0 .26-1.59l.34-.56a7 7 0 0 1 -.13 2.65c-.16.87-.33 1.74-.45 2.63.2-.8.41-1.61.62-2.43l.24.44c.07-.71.14-1.35.21-2l.28.25a8.73 8.73 0 0 0 -.43-3.74l.26.1a3.13 3.13 0 0 0 -1.28-1.71c.18.29.31.48.43.68s.13.52-.18.52a.94.94 0 0 1 -.86-.64c-.12-.29-.23-.59-.34-.89-.4-1.12-.95-1.46-1.86-1.13a1.3 1.3 0 0 1 -.25 0c.3-.65.54-1.21.81-1.75a.37.37 0 0 1 .34-.13 2.22 2.22 0 0 1 1.75 1c-.07-.72-.45-1.07-1.67-1.57.31-.32.58-.64.88-.91a.44.44 0 0 1 .39 0c.57.19.88.49 1.47 1.36 0-.67-.32-1.15-1.32-1.8.54-.16 1-.31 1.45-.41a.41.41 0 0 1 .32.2c.28.48.52 1 .76 1.43a2 2 0 0 0 -.47-1.63v-.11a6.76 6.76 0 0 1 1.24.36c.15.07.29.42.35.67a8.41 8.41 0 0 1 .12 1.05 1.52 1.52 0 0 0 .11-1.31 3 3 0 0 1 1.25 1.6 5.17 5.17 0 0 1 -.15 1l.38-.46a5.18 5.18 0 0 1 .38 1.79c0 .07-.08.16-.15.2s-.35.14-.55.22c-.17-.35-.31-.71-.5-1a5.34 5.34 0 0 0 -.72-1c-.44-.47-.86-.43-1.21 0a5.79 5.79 0 0 0 -.8 2.08 2.38 2.38 0 0 0 .2 2 7.9 7.9 0 0 1 .56 1.43l-.49-.25a13 13 0 0 1 .04 1.46zm2.32-4.49-1.08.89a3 3 0 0 0 -1-1.41.41.41 0 0 1 -.05-.28 3.87 3.87 0 0 1 .2-.63c.25-.59.57-.64 1-.16a4.18 4.18 0 0 1 .93 1.59zm.71 4c0 .11-.19.26-.29.24a.6.6 0 0 1 -.42-.26 1.44 1.44 0 0 1 -.06-1.15c.14-.39.33-.74.5-1.11l.1.06a5.24 5.24 0 0 1 .17 2.19zm0-2.95a6.19 6.19 0 0 0 -.93 1.54 2.46 2.46 0 0 0 -.11 1.19c.09.73.5 1 1.09.73-.19.73-.4 1.33-1 1.47a1 1 0 0 1 -1.11-.51c.34-.21.75-.24.86-.75-.26.11-.51.23-.78.32s-.42 0-.46-.39-.08-.52-.12-.83c.39 0 .79.06 1.06-.43l-1.07.11c.17-.49.3-.89.44-1.26 0-.06.15-.06.23-.05a1.28 1.28 0 0 0 .55 0l-.58-.31a5.55 5.55 0 0 1 3.46-2.18 14.23 14.23 0 0 0 -1.58 1.32z"/><path d="m1341.19 332c.06.56.35.75 1 .61-.37-.27-.58-.72-1-.61z"/><path d="m1345.36 338.77h.11l.41-1.77-.53.11c0 .6.01 1.13.01 1.66z"/><path d="m1344.71 332.31c.66.06.89-.21.72-.87z"/></g><path d="m1348.41 330.05a2.38 2.38 0 0 1 -.2-2 5.79 5.79 0 0 1 .8-2.08c.35-.46.77-.5 1.21 0a5.34 5.34 0 0 1 .72 1c.19.33.33.69.5 1 .2-.08.38-.14.55-.22s.16-.13.15-.2a5.18 5.18 0 0 0 -.38-1.79l-.38.46a5.17 5.17 0 0 0 .15-1 3 3 0 0 0 -1.25-1.6 1.52 1.52 0 0 1 -.11 1.31 8.41 8.41 0 0 0 -.12-1.05c-.06-.25-.2-.6-.35-.67a6.76 6.76 0 0 0 -1.24-.36v.11a2 2 0 0 1 .47 1.63c-.24-.45-.48-.95-.76-1.43a.41.41 0 0 0 -.32-.2c-.46.1-.91.25-1.45.41 1 .65 1.34 1.13 1.32 1.8-.59-.87-.9-1.17-1.47-1.36a.44.44 0 0 0 -.39 0c-.3.27-.57.59-.88.91 1.22.5 1.6.85 1.67 1.57a2.22 2.22 0 0 0 -1.75-1 .37.37 0 0 0 -.34.13c-.27.54-.51 1.1-.81 1.75a1.3 1.3 0 0 0 .25 0c.91-.33 1.46 0 1.86 1.13.11.3.22.6.34.89a.94.94 0 0 0 .86.64c.31 0 .37-.2.18-.52s-.25-.39-.43-.68a3.13 3.13 0 0 1 1.28 1.71l-.26-.1a8.73 8.73 0 0 1 .43 3.74l-.28-.25c-.07.67-.14 1.31-.21 2l-.24-.44c-.21.82-.42 1.63-.62 2.43.12-.89.29-1.76.45-2.63a7 7 0 0 0 .13-2.65l-.34.56a1.35 1.35 0 0 1 -.26 1.59c-.26.19-.47.08-.56-.31 0-.21-.06-.42-.1-.65l-.84.29a1 1 0 0 1 .45 1 5.2 5.2 0 0 1 -.4 1c.39 0 .53-.49.71-.92.31.61 0 .94-.22 1.31l.38-.19a1.06 1.06 0 0 1 -1.32.62c-.67-.12-1.18-.23-.55-1.2 0-.06 0-.18.06-.24s.2-.29.27-.27c.3.11.31-.16.36-.35.11-.44-.15-.74-.39-1.12.17.87-.1 1.37-.81 1.47a1.36 1.36 0 0 1 -.65-.11 1 1 0 0 1 -.55-.35 2.19 2.19 0 0 1 -.13-.71h-.09a4.51 4.51 0 0 0 0 1 .65.65 0 0 0 .42.43c.27 0 1.09.8 1.07 1.12a.46.46 0 0 1 -.15.27 1.65 1.65 0 0 1 -1.44.45 2.2 2.2 0 0 1 -.55-.28v-.09l.54.11c-.71-.39-.91-.68-.78-1.23.58.65.69.72 1.07.63a1.32 1.32 0 0 1 -.7-2l-.91-.08a7.05 7.05 0 0 1 .1.73c0 .26-.07.46-.34.43a1.39 1.39 0 0 1 -.91-1.62l-.62-.54a9 9 0 0 0 1 2.73c.44.81.88 1.62 1.31 2.43h-.05c-.44-.72-.89-1.44-1.37-2.2l-.12.51-.44-1c-.14-.33-.29-.65-.45-1l-.19.35c-.46-.81-.65-1.75-.8-3.94l-.31.2a3.1 3.1 0 0 1 .86-1.95 5.87 5.87 0 0 1 -.16.6c0 .14-.05.4 0 .44a.58.58 0 0 0 .44.09.85.85 0 0 0 .64-.84c0-.37 0-.74.08-1.11.09-1 .61-1.39 1.44-1.24a1 1 0 0 0 .24 0v-.09c-.37-.47-.75-.93-1.11-1.41a.53.53 0 0 0 -.59-.24 2.1 2.1 0 0 0 -1.55 1.25 1.65 1.65 0 0 1 1.37-1.74c-.42-.3-.78-.53-1.12-.8a.57.57 0 0 0 -.7 0 2.73 2.73 0 0 0 -1.16 1.55 2.73 2.73 0 0 1 .14-1.13 4.79 4.79 0 0 1 .71-.91c-.48-.1-.93-.17-1.38-.29s-.65.11-.76.5a6.25 6.25 0 0 0 -.18.86 5.8 5.8 0 0 0 0 .69 2.28 2.28 0 0 1 -.14-2.11 3 3 0 0 0 -1.48.56c-.39.45-.1 1.2.1 1.85a2.18 2.18 0 0 1 -.69-1.49 14.74 14.74 0 0 0 -.82 1.38c-.36.65.17 1.14.49 1.75l-.76-.55v1.07c.08 1.21.09 1.22 1.15 1.38h.06a16.14 16.14 0 0 1 .45-1.79c.51-1.35 1.39-1.46 2.35-.26a24.29 24.29 0 0 1 1.51 2.32 1.06 1.06 0 0 1 .14.85c-.12.69-.18 1.39-.28 2.2l.47-.32c.11.57.17 1.11.32 1.62a10.2 10.2 0 0 0 2.87 4.53c.77.73 1.64 1.3 2.45 2a.52.52 0 0 1 .2.28c.16.71.31 1.43.48 2.14a1.74 1.74 0 0 0 .7 1.2c0-.2.07-.36.09-.52a4.26 4.26 0 0 0 0-.51c.74.36.86.36 1.18.06l-.4-.44a1.78 1.78 0 0 1 -.44-2 1.53 1.53 0 0 1 .31-.41c.12-.13.29-.21.38-.36a28.45 28.45 0 0 0 1.73-2.77 8.88 8.88 0 0 0 1-4.47 13 13 0 0 0 -.2-1.37l.49.25a7.9 7.9 0 0 0 -.4-1.52zm-5 9.07-1-1.62h.57c.16.54.31 1.06.47 1.59zm1.54 1.07a2.44 2.44 0 0 0 .36 2.5l-.1.05-.6-.45-.05.5c-.44-.7-.87-5.16-.46-5.7.14.64.27 1.21.4 1.78l-.27-1.78a2.94 2.94 0 0 1 .32.37 3.61 3.61 0 0 1 .45 2.73zm.5-1.38h-.11c0-.53 0-1.06 0-1.62l.53-.11z"/><path d="m1350.29 330.25a1.28 1.28 0 0 1 -.55 0c-.08 0-.2 0-.23.05-.14.37-.27.77-.44 1.26l1.07-.11c-.27.49-.67.42-1.06.43 0 .31.08.57.12.83s.22.47.46.39.52-.21.78-.32c-.11.51-.52.54-.86.75a1 1 0 0 0 1.11.51c.62-.14.83-.74 1-1.47-.59.27-1 0-1.09-.73a2.46 2.46 0 0 1 .11-1.19 6.19 6.19 0 0 1 .93-1.54 14.23 14.23 0 0 1 1.51-1.37 5.55 5.55 0 0 0 -3.46 2.18z"/><path d="m1336.07 332.94 1.21-.19c-.32-.43-.56-.75-.79-1.08s-.26-.29-.47-.14a2.1 2.1 0 0 1 -.57.17v-.1l.55-.45a8 8 0 0 0 -5.06-1.64c.18.07.36.13.52.21.81.42 1.62.78 2.38 1.26a4 4 0 0 1 1.61 1.85 1.57 1.57 0 0 1 0 1.37c-.2.4-.56.36-1 .28.5.77 1 1.38 1.85 1.29a1.12 1.12 0 0 0 1-.83c-.47-.1-.94-.07-1.24-.55a10.43 10.43 0 0 0 1.11.11.39.39 0 0 0 .3-.28c0-.37-.07-.74-.11-1.15-.45.14-.87.26-1.29-.13z"/><path d="m1335.59 327.49c-.43-.53-.83-.55-1.21-.05a3.49 3.49 0 0 0 -.6 2l1.53.73.84-1.87c-.15-.22-.32-.53-.56-.81z"/><path d="m1349.06 326.68a3.87 3.87 0 0 0 -.2.63.41.41 0 0 0 .05.28 3 3 0 0 1 1 1.41l1.08-.89a4.18 4.18 0 0 0 -.89-1.59c-.47-.52-.79-.43-1.04.16z"/><path d="m1344.84 331.44c-.34.35-.65.75-1 1.1l.54.29.08-.18a4 4 0 0 0 .66.19 1 1 0 0 0 .82-1.4c-.09-.19-.35-.44-.48-.42a1.36 1.36 0 0 0 -.62.42zm-.13.87.72-.87c.17.66-.06.93-.72.87z"/><path d="m1341.24 331.52c-.39-.18-.62 0-.63.49a1.17 1.17 0 0 0 .52 1 1 1 0 0 0 1.19 0c.08-.06.21-.05.31-.08v.1l.46-.41-1-.55a9.52 9.52 0 0 0 -.85-.55zm0 .46c.42-.09.63.36 1 .61-.7.14-.99-.05-1.05-.59z"/><path d="m1335.21 333.43a3.26 3.26 0 0 0 -1.46-2.11 6.1 6.1 0 0 0 .53 2.54.57.57 0 0 0 .35.26c.37.07.62-.22.58-.69z"/><path d="m1351.44 329.8c-.17.37-.36.72-.5 1.11a1.44 1.44 0 0 0 .06 1.15.6.6 0 0 0 .42.26c.1 0 .28-.13.29-.24a5.24 5.24 0 0 0 -.17-2.22z"/><path d="m1341.5 329.27-1 .77.06.13a1.9 1.9 0 0 1 2.2.07 2.7 2.7 0 0 0 -1.38-1.42z"/><path d="m1345.46 329.63v-.1l-1.07-.48c0-.14 0-.28 0-.48a2.44 2.44 0 0 0 -.94 1.61 3.77 3.77 0 0 1 .93-.52 4.08 4.08 0 0 1 1.08-.03z"/><path d="m1326.45 299.59 22.66 3c.16 0 .59.42.73 1.29l8.69 55.27a2.25 2.25 0 0 1 -.72 2.27l-21.51 7.34c-.13 0-.6-.39-.74-1.31l-9.88-65.64a2.65 2.65 0 0 1 .47-2.05.56.56 0 0 1 .28-.21m0-2c-1.73 0-3.08 2.18-2.72 4.56l9.88 65.64c.27 1.79 1.42 3 2.71 3a2.24 2.24 0 0 0 .67-.11l21.49-7.33c1.45-.5 2.36-2.49 2-4.48l-8.7-55.27a3.25 3.25 0 0 0 -2.43-3l-22.67-3h-.28z"/></svg>