<svg viewBox="0 0 1700 700" xmlns="http://www.w3.org/2000/svg" xmlns:xlink="http://www.w3.org/1999/xlink"><linearGradient id="a" gradientUnits="userSpaceOnUse" x1="1188.5" x2="1211.48" y1="570.45" y2="610.25"><stop offset="0" stop-opacity=".4"/><stop offset=".67" stop-color="#fff" stop-opacity="0"/></linearGradient><path d="m1050 334.43 46.83 232.15 205.81-74.58-31.31-139.92a5 5 0 0 0 -4.42-3.89l-211.56-19.77a5 5 0 0 0 -5.35 6.01z"/><path d="m1111.76 607.08 193.07-87.92a5 5 0 0 0 2.8-5.69l-5-21.43-205.83 74.54 8 37a5 5 0 0 0 6.96 3.5z" fill="#f2f2f2"/><path d="m1139.86 594.29 60 26.21a5 5 0 0 0 4.64-.33l54.5-33.67a2.5 2.5 0 0 0 -.86-4.58l-57-10.69-.38-4.65z" fill="#f2f2f2"/><path d="m1063.2 343.63 44.2 219.11 188.91-68.41-30.45-136.06z" fill="#f6c4ce"/><path d="m1201.09 571.23 56.35 10.56-61.34 37.06-56.23-24.57z" fill="url(#a)" opacity=".35"/><path d="m1201.09 571.23-.38-4.65-60.84 27.7z" fill="#c6c6c6"/><path d="m1063.2 343.63 44.33 218.93 188.66-68.33-30.28-135.81zm115.54 21.67c.3-1.09 1.34-1.36 2.32-.62l3.13 2.38a3.43 3.43 0 0 1 1.23 3.29l-.87 3.28-6.72-5zm15.82 55.86c.45 1 .86 2 1.23 3.08l-1.42.53c-.33-1-.72-1.92-1.13-2.84zm-2.69-2c-.49-.88-1-1.74-1.58-2.56l1.09-1.21c.6.89 1.18 1.82 1.7 2.77zm-19.72-43a2.7 2.7 0 0 1 .76-2.51l4.52-3.62 6.73 5 1.33 7.79a2.89 2.89 0 0 1 -.6 2.55l-7.93 7.78-.79-.56 2.44-9.15a1.4 1.4 0 0 0 .81 0c.91-.28 1.26-1.57.76-2.87s-1.63-2.14-2.55-1.86-1.28 1.57-.78 2.88a3.66 3.66 0 0 0 .55 1l-2.47 9.16-.8-.56zm17.31 36.64-.94 1.41c-.62-.75-1.28-1.47-1.94-2.14l.78-1.59c.72.8 1.43 1.58 2.1 2.39zm-4.36-4.37-.62 1.75a23.77 23.77 0 0 0 -2.21-1.6l.44-1.89a27.35 27.35 0 0 1 2.39 1.81zm-4.89-3.16-.24 2a20.72 20.72 0 0 0 -2.37-1v-2.1a21 21 0 0 1 2.61 1.17zm-13.12-5.12 6.65-.26.76 3.57.54.08.16 2.17h-.23l.61 2.86-6.58.43-.62-2.9h-.19l-.77-2.18.49-.12zm-2.1 4.69 1 2.11a14.81 14.81 0 0 0 -2 1.24l-1.15-2a15.88 15.88 0 0 1 2.16-1.28zm-4.28 3.07 1.33 1.89a18.36 18.36 0 0 0 -1.67 1.93l-1.47-1.72a19.37 19.37 0 0 1 1.81-2.01zm-3.38 4.54 1.61 1.53a22.49 22.49 0 0 0 -1.17 2.53l-1.72-1.32a24.63 24.63 0 0 1 1.28-2.67zm-2.26 5.75 1.81 1.07a26 26 0 0 0 -.59 3l-1.86-.81a28 28 0 0 1 .64-3.19zm-1 6.63 1.9.53a31.59 31.59 0 0 0 0 3.22l-1.89-.24a34.46 34.46 0 0 1 .04-3.44zm3.74 39.3-35.22 6.42-13-63.11 10.87-.54 10.6 51.17 24.64-3.92zm42.44-31.13-1.68.21c1.43 13.6-4.73 25.49-15.28 27.44-11 2-23-7.36-27.92-21.67l-2.13.26-2-9.27 7.26-.75 1.92 9.12-1.38.17c4.31 11.64 14.13 19.26 23.25 17.67 8.84-1.53 14.1-11.27 13.15-22.59l-1.22.15-1.8-8.42 6-.62zm37 9.83a17.14 17.14 0 0 1 -4.66 6.27 15.28 15.28 0 0 1 -7.48 3.77 14.73 14.73 0 0 1 -10.11-1.66 22.51 22.51 0 0 1 -8.38-8.75 46.78 46.78 0 0 1 -5.15-13.66 39.86 39.86 0 0 1 -.7-14.72 17 17 0 0 1 4.9-10 11.9 11.9 0 0 1 7.84-2.93 14.61 14.61 0 0 1 10.56 3.35 23.58 23.58 0 0 1 6.6 10.15l-6.05 2.38a13.79 13.79 0 0 0 -3.87-5.5 7.45 7.45 0 0 0 -5.37-1.77 7.07 7.07 0 0 0 -6.41 4.78q-1.85 4.51 0 13c1.31 6.11 3.24 10.57 5.75 13.34s5.19 3.88 8.09 3.42a8 8 0 0 0 4-1.92 12.94 12.94 0 0 0 2.93-3.54l-1.36-6.24-7.65 1-1.83-8.44 14.21-1.56zm28.45-3.83c-1.43 4.49-4.15 7.13-8.21 7.88-4.21.77-8.1-.73-11.62-4.56s-6.21-9.65-7.87-17.23a45.42 45.42 0 0 1 -1.26-12.32 22.29 22.29 0 0 1 1.42-6.67 10.48 10.48 0 0 1 2.95-4.42 9.6 9.6 0 0 1 5.88-2.13c4.18-.19 7.9 1.7 11.2 5.62s5.68 9.38 7.27 16.54 1.66 12.85.24 17.29z" fill="#f6c4ce"/><path d="m1248.78 407.4c-2.39.16-4 1.61-5 4.37s-.8 6.87.38 12.25 2.82 9.23 4.94 11.73 4.31 3.54 6.58 3.18 3.78-2 4.61-4.81.66-6.81-.48-12-2.67-8.89-4.61-11.3-4.06-3.59-6.42-3.42z" fill="#f6c4ce"/><path d="m1120.53 406.97-10.88.54 12.99 63.11 35.22-6.42-2.1-9.98-24.64 3.92z"/><path d="m1220.67 433.54 7.65-1 1.36 6.24a12.94 12.94 0 0 1 -2.93 3.54 8 8 0 0 1 -4 1.92c-2.9.46-5.6-.67-8.09-3.42s-4.44-7.23-5.75-13.34q-1.83-8.48 0-13a7.07 7.07 0 0 1 6.41-4.78 7.45 7.45 0 0 1 5.37 1.77 13.79 13.79 0 0 1 3.87 5.5l6.05-2.38a23.58 23.58 0 0 0 -6.6-10.15 14.61 14.61 0 0 0 -10.56-3.35 11.9 11.9 0 0 0 -7.84 2.93 17 17 0 0 0 -4.9 10 39.86 39.86 0 0 0 .7 14.72 46.78 46.78 0 0 0 5.15 13.66 22.51 22.51 0 0 0 8.38 8.75 14.73 14.73 0 0 0 10.11 1.66 15.28 15.28 0 0 0 7.48-3.77 17.14 17.14 0 0 0 4.66-6.27l-4.2-19.25-14.21 1.56z"/><path d="m1247 399.53a9.6 9.6 0 0 0 -5.88 2.13 10.48 10.48 0 0 0 -2.95 4.42 22.29 22.29 0 0 0 -1.42 6.67 45.42 45.42 0 0 0 1.26 12.32c1.66 7.58 4.3 13.35 7.87 17.23s7.41 5.33 11.62 4.56c4.06-.75 6.78-3.39 8.21-7.88s1.33-10.17-.24-17.29-4-12.66-7.27-16.54-7.03-5.81-11.2-5.62zm13.34 34.59c-.83 2.84-2.36 4.45-4.61 4.81s-4.47-.69-6.58-3.18-3.78-6.42-4.94-11.73-1.31-9.47-.38-12.25 2.57-4.21 5-4.37 4.51 1 6.46 3.41 3.47 6.18 4.61 11.3 1.26 9.19.43 12.01z"/><path d="m1185.42 370.35a3.43 3.43 0 0 0 -1.23-3.29l-3.13-2.38c-1-.74-2-.47-2.32.62l-.91 3.31 6.72 5z"/><path d="m1177.4 382.66a3.66 3.66 0 0 1 -.55-1c-.5-1.31-.15-2.61.78-2.88s2.06.55 2.55 1.86.15 2.59-.76 2.87a1.4 1.4 0 0 1 -.81 0l-2.44 9.15.79.56 7.93-7.78a2.89 2.89 0 0 0 .6-2.55l-1.33-7.79-6.73-5-4.52 3.62a2.7 2.7 0 0 0 -.76 2.51l2 15 .8.56z"/><path d="m1162 409.87-1.33-1.89a19.37 19.37 0 0 0 -1.81 2.1l1.47 1.72a18.36 18.36 0 0 1 1.67-1.93z"/><path d="m1158.94 414.05-1.61-1.53a24.63 24.63 0 0 0 -1.28 2.74l1.72 1.32a22.49 22.49 0 0 1 1.17-2.53z"/><path d="m1195.79 424.24c-.37-1-.78-2.08-1.23-3.08l-1.32.77c.41.92.8 1.88 1.13 2.84z"/><path d="m1168.14 406.15h.19l.62 2.9 6.63-.39-.61-2.86h.23l-.16-2.17-.54-.08-.76-3.57-6.65.26.77 3.63-.49.12zm4.4-3.93.91 4.29-3.27.17-.92-4.31z"/><path d="m1166 407-1-2.11a15.88 15.88 0 0 0 -2.23 1.34l1.15 2a14.81 14.81 0 0 1 2.08-1.23z"/><path d="m1177.6 406.39a20.72 20.72 0 0 1 2.37 1l.24-2a21 21 0 0 0 -2.57-1z"/><path d="m1188.52 414.28.94-1.41c-.67-.81-1.38-1.59-2.1-2.32l-.78 1.59c.66.67 1.32 1.39 1.94 2.14z"/><path d="m1184.48 410.25.62-1.75a27.35 27.35 0 0 0 -2.39-1.74l-.44 1.89a23.77 23.77 0 0 1 2.21 1.6z"/><path d="m1190.29 416.65c.56.82 1.09 1.68 1.58 2.56l1.21-1c-.52-.95-1.1-1.88-1.7-2.77z"/><path d="m1156.88 419.34-1.81-1.07a28 28 0 0 0 -.64 3.23l1.86.81a26 26 0 0 1 .59-2.97z"/><path d="m1156 425.43-1.9-.53a34.46 34.46 0 0 0 .05 3.51l1.89.24a31.59 31.59 0 0 1 -.04-3.22z"/><path d="m1198.3 431.04-.88-4.11-2.96.32.89 4.13z" fill="#fff"/><path d="m1194.27 433.7 1.22-.15c1 11.32-4.31 21.06-13.15 22.59-9.12 1.59-18.94-6-23.25-17.67l1.38-.17-1.92-9.12-7.26.75 2 9.27 2.13-.26c5 14.31 16.9 23.7 27.92 21.67 10.55-1.95 16.71-13.84 15.28-27.44l1.68-.21-1.78-8.3-6 .62zm-40.63-1.63 3.58-.39 1 4.52-3.57.43zm40.82-4.82 3-.32.88 4.1-3 .36z"/><g fill="#fff"><path d="m1158.17 436.2-.95-4.52-3.58.39.96 4.56z"/><path d="m1170.18 406.68 3.27-.18-.91-4.28-3.28.15z"/></g></svg>