<svg viewBox="0 0 1700 700" xmlns="http://www.w3.org/2000/svg"><path d="m1345 462.21-32.58 12.91-20.47-93.14 33.79 2.66z" fill="#e03154"/><g fill="#fff"><path d="m1321.29 398.24h-16a2.16 2.16 0 0 0 -.83.2 1.88 1.88 0 0 0 -.36.27 1.77 1.77 0 0 0 -.26.35 1.65 1.65 0 0 0 -.16.44 2 2 0 0 0 0 .55 1.15 1.15 0 0 0 0 .26l.09.41.16.69.16.7.15.7.16.7.16.69.16.7.16.7.15.7.16.71.16.7.16.7.16.71.16.7.16.71.16.71.16.7.16.71.06.26a2.5 2.5 0 0 0 .19.52 2.58 2.58 0 0 0 1.82 1.4 2.37 2.37 0 0 0 .53 0h.24l.68-.06.67-.05.66-.06.67-.05.65-.06h.66l.65-.05.64-.06.64-.05.63-.05.64-.05h.62l.63-.05.61-.06.62-.05.61-.05.61-.05h.6l.6-.05.59-.05.59-.05h.59l.59-.05 1.15-.09h.33a2.07 2.07 0 0 0 .22 0 1.36 1.36 0 0 0 .41-.17 1.56 1.56 0 0 0 .3-.27 1.94 1.94 0 0 0 .21-.34 1.39 1.39 0 0 0 .12-.41 2.05 2.05 0 0 0 0-.5 1.92 1.92 0 0 0 0-.32l-.07-.28-.16-.64-.15-.64-.16-.63-.15-.64-.15-.63-.16-.63-.15-.64-.16-.63-.15-.63-.31-1.26-.15-.63-.15-.63-.31-1.25-.15-.63-.15-.63-.08-.31a3.38 3.38 0 0 0 -.11-.34 2.53 2.53 0 0 0 -1.73-1.5 1.73 1.73 0 0 0 -.32 0zm-14.53 4.81a.14.14 0 0 1 0-.07 2.37 2.37 0 0 1 0-1.06 2 2 0 0 1 .17-.43 1.48 1.48 0 0 1 .25-.35 1.81 1.81 0 0 1 .77-.48 2 2 0 0 1 .61-.1 2.46 2.46 0 0 1 .76.12 3.2 3.2 0 0 1 1.78 1.46 2.72 2.72 0 0 1 .29.75 2.34 2.34 0 0 1 .07.63 1.93 1.93 0 0 1 -.08.49 2.09 2.09 0 0 1 -.17.41 2.13 2.13 0 0 1 -.25.34 1.6 1.6 0 0 1 -.35.28 2 2 0 0 1 -.44.19 2.09 2.09 0 0 1 -.52.09h-.06a2.8 2.8 0 0 1 -.9-.16 3.16 3.16 0 0 1 -1.52-1.23 2.89 2.89 0 0 1 -.41-.88zm16.47 4.41.15.64.16.65.15.64.16.64.15.65.07.28h-.32-.58-.59-.58l-1.19.08h-.6-.6-.61-.61-.62l-.62.05h-.62-.63-.63l-.64.05h-.64-.64l-.65.05h-.66l-.65.05h-.67-.66l-.67.05h-.26l-.06-.27-.16-.69-.16-.7-.09-.43.09-.14.26-.37.26-.36.25-.36.26-.37.25-.36.25-.35.26-.36.25-.36.13-.19a.38.38 0 0 1 .16-.12.51.51 0 0 1 .53.1l2.78 2.23.09-.14.24-.35.24-.36.24-.35.23-.34.24-.35.46-.69.24-.35.23-.34.23-.34.23-.34.23-.34.22-.33.23-.34.23-.33.22-.34.11-.16a.33.33 0 0 1 .17-.12.48.48 0 0 1 .47.11l4 3.41.08.34z"/><path d="m1332.57 445.34-.57.15-.57.16-.57.15-.58.16-.58.16-.59.15-.59.16-.59.16-.6.16-.6.17-.61.16-.61.17-.61.16-.62.17-.62.17-.63.17-.63.17-.64.17-.64.17-.64.17-.65.18-.65.18-.66.17-.66.18-.67.18-.18.05a1.78 1.78 0 0 0 -.43.18 2.07 2.07 0 0 0 -.44.34 1.86 1.86 0 0 0 -.33.41 2.23 2.23 0 0 0 -.24.49 2.66 2.66 0 0 0 -.12.56 2.93 2.93 0 0 0 0 .66 1.22 1.22 0 0 0 0 .17l.13.57.17.76.17.76.17.76.17.76.18.76.17.77.17.76.18.77.17.76.17.77.18.77.17.77.17.77.18.77.17.77.18.77.17.77v.16a2.36 2.36 0 0 0 .29.71 1.9 1.9 0 0 0 1.56 1 1.69 1.69 0 0 0 .69-.11l.13-.05.66-.25.66-.24.65-.25.65-.24.65-.24.63-.24.64-.24.63-.23.63-.24.62-.23.62-.23.61-.23.61-.23.6-.23.6-.22.6-.23.59-.22.59-.22.59-.22.58-.21.57-.22.58-.21.56-.22.57-.21.56-.21.41-.15.13-.07a1.8 1.8 0 0 0 .43-.29 2.28 2.28 0 0 0 .3-.38 2.56 2.56 0 0 0 .21-.44 3.51 3.51 0 0 0 .12-.49 2.6 2.6 0 0 0 0-.56 2.57 2.57 0 0 0 -.07-.46v-.19l-.17-.69-.16-.69-.17-.68-.17-.69-.17-.69-.16-.68-.17-.69-.16-.68-.17-.68-.17-.69-.16-.68-.17-.68-.16-.68-.17-.68-.16-.67-.17-.68-.16-.68-.11-.45c0-.09-.06-.16-.08-.24a1.87 1.87 0 0 0 -1.87-1.36h-.21zm-14 9.53-.06-.2a3.09 3.09 0 0 1 -.07-.52 3.22 3.22 0 0 1 0-.62 3.58 3.58 0 0 1 .14-.54 2.65 2.65 0 0 1 .23-.48 3.3 3.3 0 0 1 .3-.43 3.52 3.52 0 0 1 .41-.36 2.33 2.33 0 0 1 .52-.27l.15-.05a2 2 0 0 1 .59-.08 2.33 2.33 0 0 1 2 1.37 3 3 0 0 1 .22.62v.17a2.76 2.76 0 0 1 0 .64 2.61 2.61 0 0 1 -.08.57 2.78 2.78 0 0 1 -.17.51 3.25 3.25 0 0 1 -.25.45 2.71 2.71 0 0 1 -.35.4 2.46 2.46 0 0 1 -.44.34 2.3 2.3 0 0 1 -.43.18l-.18.05a2 2 0 0 1 -1 0 2.28 2.28 0 0 1 -1.12-.73 2.69 2.69 0 0 1 -.38-1.02zm16.22.62.17.7.17.69.17.7.17.7.16.69v.19l-.41.15-.57.2-.57.2-.57.21-.58.21-.58.2-.58.21-.59.21-.6.21-.59.22-.6.21-.61.22-.61.21-.61.22-.62.22-.63.23-.62.22-.63.22-.64.23-.64.23-.65.23-.65.23-.65.23-.66.24-.14.05v-.16l-.18-.76-.17-.76-.14-.6.06-.1.24-.5.24-.48.25-.49.24-.49.24-.48.24-.48.23-.48.24-.48.17-.33a.6.6 0 0 1 .09-.13.44.44 0 0 1 .58-.09l2.78 1.82v-.11l.23-.47.22-.47.22-.47.23-.46.22-.47.22-.46.22-.46.22-.45.21-.46.22-.45.22-.46.21-.45.22-.44.21-.45.21-.45.21-.44.14-.29a.64.64 0 0 1 .1-.13.4.4 0 0 1 .52-.05l4 2.82.12.49z"/><path d="m1332 424.93-.55.08-.55.08-.55.09-.56.08-.56.08-.56.09-.57.09-.57.08-.58.09-.58.09-.58.08-.58.09-.59.09-.6.09-.59.09-.61.09-.6.09-.61.1-.62.09-.61.09-.63.1-.62.09-.63.1-.64.09-.64.1-.64.1-.65.09-.65.1-.66.1-.66.1-.66.1-.67.1-.68.11-.68.1-.69.1-.69.11-.69.1-.7.11-.7.1-.71.11-.72.11-.47.07a.59.59 0 0 0 -.2.07.56.56 0 0 0 -.28.43.55.55 0 0 0 0 .22.68.68 0 0 0 .75.53h.24l.72-.11.71-.11.7-.11.7-.11.7-.11.69-.11.69-.11.68-.11.67-.1.68-.11.66-.11.67-.1.65-.1.66-.11.65-.1.64-.1.64-.1.64-.1.63-.1.63-.1.62-.1.62-.1.61-.09.61-.1.61-.09.6-.1.6-.09.6-.1.59-.09.58-.09.59-.1.58-.09.57-.09.57-.09.57-.09.57-.09.56-.08.56-.09.55-.09.55-.09.55-.08.54-.09.54-.08h.19a.34.34 0 0 0 .23-.15.56.56 0 0 0 .09-.45.56.56 0 0 0 -.58-.47l-.54.08z"/><path d="m1332.71 428.1-.55.09-.55.1-.55.09-.56.1-.56.09-.56.1-.57.09-.57.1-.57.1-.58.1-.58.09-.59.1-.58.1-.6.11-.59.1-.61.1-.6.1-.61.11-.61.1-.62.11-.62.1-.63.11-.63.11-.63.1-.64.11-.64.11-.65.11-.65.11-.66.11-.66.12-.67.11-.67.11-.67.12-.68.11-.69.12-.69.12-.69.12-.7.12-.7.12-.71.12-.72.12-.4.07a.51.51 0 0 0 -.24.1.61.61 0 0 0 -.24.47.86.86 0 0 0 0 .16.67.67 0 0 0 .75.52h.17l.72-.12.71-.13.7-.12.71-.13.69-.12.69-.12.69-.12.68-.12.67-.12.68-.12.66-.12.67-.12.65-.11.66-.12.64-.11.65-.12.64-.11.63-.11.63-.11.63-.12.62-.11.62-.1.62-.11.61-.11.6-.11.6-.1.6-.11.6-.11.59-.1.58-.1.59-.11.57-.1.58-.1.57-.1.57-.1.56-.1.56-.1.56-.1.55-.1.55-.09.55-.1.54-.1.54-.09h.24a.37.37 0 0 0 .21-.12.53.53 0 0 0 .12-.43s0-.05 0-.07a.57.57 0 0 0 -.58-.47h-.07l-.54.09z"/><path d="m1333.43 431.29-.54.11-.55.1-.55.1-.56.11-.56.11-.56.1-.57.11-.57.11-.57.11-.58.11-.58.11-.58.11-.59.11-.59.11-.6.11-.6.12-.6.11-.61.12-.62.11-.61.12-.62.12-.63.12-.63.12-.63.12-.64.12-.64.12-.65.12-.65.12-.66.13-.66.12-.66.13-.67.13-.68.12-.68.13-.68.13-.69.13-.69.13-.7.14-.71.13-.71.14-.71.13-.33.06a.62.62 0 0 0 -.29.15.65.65 0 0 0 -.19.51s0 .06 0 .09a.65.65 0 0 0 .74.52h.1l.72-.14.71-.14.7-.14.7-.14.7-.13.69-.14.68-.13.68-.14.68-.13.67-.13.67-.13.66-.13.66-.13.65-.13.65-.13.64-.12.64-.13.63-.12.64-.13.62-.12.62-.12.62-.12.62-.12.6-.12.61-.12.6-.12.6-.12.59-.11.59-.12.59-.11.58-.12.58-.11.57-.11.57-.11.57-.12.56-.11.56-.11.56-.1.55-.11.55-.11.55-.11.54-.1.54-.11.29-.06a.38.38 0 0 0 .18-.09.51.51 0 0 0 .15-.41.62.62 0 0 0 0-.13.55.55 0 0 0 -.59-.45h-.12l-.54.1z"/><path d="m1334.16 434.5-.54.12-.55.11-.55.12-.56.11-.55.12-.57.12-.56.12-.57.12-.57.12-.58.12-.58.12-.58.12-.59.12-.59.13-.6.12-.6.13-.6.12-.61.13-.61.13-.62.13-.62.13-.63.13-.62.13-.64.13-.64.13-.64.14-.64.13-.66.14-.65.14-.66.13-.67.14-.66.14-.68.14-.68.15-.68.14-.69.14-.69.15-.7.14-.71.15-.71.15-.71.15h-.26a.61.61 0 0 0 -.32.19.67.67 0 0 0 -.14.55.65.65 0 0 0 .75.51l.72-.15.71-.16.7-.15.7-.15.7-.15.69-.15.68-.15.68-.14.68-.15.67-.15.67-.14.66-.14.65-.14.66-.14.64-.14.65-.14.64-.14.63-.14.63-.13.63-.14.62-.13.62-.14.61-.13.61-.13.6-.13.6-.13.6-.13.59-.13.59-.12.59-.13.58-.13.58-.12.57-.12.57-.13.57-.12.56-.12.56-.12.55-.12.55-.12.55-.12.55-.12.54-.11.54-.12.34-.07a.36.36 0 0 0 .15-.08.47.47 0 0 0 .18-.38.62.62 0 0 0 0-.19.55.55 0 0 0 -.58-.45h-.18l-.54.11z"/><path d="m1329.88 438.88-.58.14-.58.13-.58.13-.59.14-.59.13-.6.14-.6.14-.6.13-.61.14-.61.14-.61.14-.62.15-.63.14-.63.14-.63.15-.64.14-.64.15-.64.15-.65.15-.66.15-.66.15-.66.15-.67.15-.68.16-.67.15-.69.16-.69.16-.69.16-.7.16-.7.16-.71.16-.71.16h-.19a.6.6 0 0 0 -.35.25.66.66 0 0 0 -.11.53s0 0 0 .06a.63.63 0 0 0 .67.45h.06l.67-.15.71-.17.7-.17.7-.16.7-.17.69-.16.68-.16.68-.16.67-.16.68-.16.66-.15.66-.16.66-.15.65-.16.65-.15.64-.15.64-.15.63-.15.63-.15.63-.15.62-.14.61-.15.62-.14.6-.15.61-.14.6-.14.59-.14.6-.14.59-.14.58-.14.58-.14.58-.13.57-.14h.07a.45.45 0 0 0 .3-.27.57.57 0 0 0 0-.41.76.76 0 0 0 -.06-.16.57.57 0 0 0 -.41-.31h-.15z"/><path d="m1325.21 384.6h-.54l-.54-.05h-.55-.55l-.55-.05h-.55-.56l-.56-.05h-.57-.57-.57l-.58-.05h-.58-.58l-.59-.05h-.59l-.59-.05h-.6-.6l-.61-.05-.61-.05h-.61l-.62-.05h-.62l-.62-.05h-.63l-.64-.05-.63-.05-.64-.05-.65-.05-.65-.06h-.66l-.65-.05-.67-.05-.66-.05-.68-.06-.67-.05h-.68l-.69-.06-.69-.05-.7-.06-.7-.05-.7-.06-.71-.05-.71-.06-.72-.06h-.73l-.73-.06-.73-.06-.74-.06-.74-.05-.75-.06h-.19l.12.53.15.7.16.7.15.7.15.71.16.7.15.7.16.71.15.7.16.71.15.71.06.24.1.47.12.56v.14l.16.71.16.72.15.71.16.71.16.71.15.72.16.71.16.72.16.72.15.71.16.72.16.72.16.72.16.72.16.73.15.72.16.72.16.73.16.72.16.73.16.73.16.73.16.73.16.73.16.73.16.73.17.73.16.74.16.73.16.74.16.74.16.73.17.74.16.74.16.74.16.74.17.74.16.75.1.47c0 .1.05.19.08.28a4.61 4.61 0 0 0 .36.89 4.84 4.84 0 0 0 3.4 2.49 3.94 3.94 0 0 0 .91.05h.27l.46-.05.71-.09.71-.08.7-.09.7-.08.69-.08.69-.09.68-.08.68-.08.67-.08.67-.08.67-.08.65-.08.66-.08.65-.07.65-.08.64-.08.63-.08.64-.07.63-.08.62-.07.62-.08.62-.07.61-.07.61-.08.6-.07.6-.07.6-.07.59-.07.59-.07.58-.07.58-.07.58-.07.57-.07.57-.07.57-.07.56-.06.56-.07.56-.07.55-.06.55-.07.54-.07h.22a2.39 2.39 0 0 0 .73-.21c.13-.06.25-.13.37-.2a3.73 3.73 0 0 0 .3-.26 1.74 1.74 0 0 0 .25-.29 3.62 3.62 0 0 0 .22-.32c.06-.12.11-.24.16-.37a2.52 2.52 0 0 0 .12-.39 3.21 3.21 0 0 0 .07-.43 3.93 3.93 0 0 0 0-.49 5 5 0 0 0 0-.53c0-.12 0-.24-.07-.36l-.06-.24-.16-.62-.15-.62-.15-.62-.16-.62-.15-.62-.16-.62-.3-1.23-.15-.62-.16-.61-.3-1.23-.15-.61-.16-.62-.15-.61-.15-.61-.3-1.22-.46-1.83-.45-1.82-.15-.6-.3-1.21-.15-.6-.15-.61-.3-1.2-.45-1.8-.14-.6-.52-2.07-.08-.32-.15-.6-.14-.6-.15-.59-.15-.6-.15-.59-.14-.59-.15-.6-.15-.59-.15-.59-.14-.59-.15-.59-.15-.59zm-19 3.39a.93.93 0 0 1 -.14.83.85.85 0 0 1 -.76.29 1.61 1.61 0 0 1 -1.16-.6 1.83 1.83 0 0 1 -.3-.68 1.1 1.1 0 0 1 0-.57.66.66 0 0 1 .33-.4 1 1 0 0 1 .57-.11 1.48 1.48 0 0 1 .93.38 1.57 1.57 0 0 1 .54.87zm-2.54 1.36a.59.59 0 0 1 -.12.3.55.55 0 0 1 -.29.17 1.46 1.46 0 0 1 -.5 0 1.73 1.73 0 0 1 -.9-.24.81.81 0 0 1 -.36-.52.64.64 0 0 1 0-.07l.73.12a.37.37 0 0 0 .12.17.6.6 0 0 0 .3.07.62.62 0 0 0 .34-.05.2.2 0 0 0 .09-.15.83.83 0 0 0 0-.28l-.08-.33a.61.61 0 0 1 -.61.34 1.23 1.23 0 0 1 -.85-.43 1.78 1.78 0 0 1 -.39-.79 1 1 0 0 1 .09-.87.68.68 0 0 1 .64-.26 1.25 1.25 0 0 1 .8.41l-.08-.32h.58l.47 2.05a2.22 2.22 0 0 1 .03.68zm-4.54-.68a1.55 1.55 0 0 1 -.56-.45 1.68 1.68 0 0 1 -.31-.69 1.07 1.07 0 0 1 0-.59.68.68 0 0 1 .35-.41 1.17 1.17 0 0 1 .61-.12 1.68 1.68 0 0 1 1 .4 1.6 1.6 0 0 1 .54.88.88.88 0 0 1 -1 1.16 1.63 1.63 0 0 1 -.62-.18zm21.81 2.4-.12-.5a.14.14 0 0 1 .14-.19l4.67.21a.29.29 0 0 1 .22.21l.12.48a.14.14 0 0 1 -.13.19l-4.66-.19a.3.3 0 0 1 -.18-.21zm4.55-1.73a.14.14 0 0 1 -.13.19l-4.67-.24a.29.29 0 0 1 -.23-.21l-.12-.5a.13.13 0 0 1 .14-.18l4.67.26a.25.25 0 0 1 .22.2zm-30.42-4h.7l.59 2.68 1.71.09.13.55-2.41-.12zm32.41 8.7.45 1.81.3 1.2.15.61.15.6.3 1.21.15.61.45 1.82.45 1.84.31 1.22.15.61.15.61.15.62.16.61.3 1.23.15.62.16.62.3 1.23.16.62.15.62.15.62.16.62.15.62.15.63.16.62.08.32.06.29a3.23 3.23 0 0 1 0 .53 3.42 3.42 0 0 1 0 .46 2.75 2.75 0 0 1 -.11.41 2.43 2.43 0 0 1 -.16.37 2.27 2.27 0 0 1 -.22.32 1.72 1.72 0 0 1 -.27.27 2 2 0 0 1 -.34.23 1.9 1.9 0 0 1 -.42.15l-.24.05-.83.09-.55.07-.56.06-.55.06-.56.07-.57.06-.56.07-.57.07-.58.06-.57.07-.59.07-.58.06-.59.07-.59.07-.6.07-.6.07-.61.07-.6.07-.62.07-.61.07-.62.07-.63.08-.63.07-.63.07-.64.08-.64.07-.65.07-.65.08-.66.08-.66.07-.66.08-.67.08-.67.07-.68.08-.68.08-.69.08-.7.08-.69.08-.71.08-.7.09-.72.08h-.37a2.3 2.3 0 0 1 -.37 0 3.37 3.37 0 0 1 -1.09-.18 3.94 3.94 0 0 1 -1.9-1.4 3.62 3.62 0 0 1 -.53-1 2.72 2.72 0 0 1 -.11-.38l-.09-.38-.16-.74-.16-.74-.16-.74-.17-.74-.16-.74-.16-.73-.16-.74-.17-.73-.16-.73-.16-.74-.16-.73-.16-.73-.16-.73-.16-.72-.16-.73-.16-.73-.16-.72-.16-.73-.16-.72-.16-.73-.16-.72-.16-.72-.16-.72-.16-.72-.16-.72-.15-.72-.16-.71-.16-.72-.16-.71-.15-.72-.16-.71-.16-.71-.16-.71-.15-.72-.16-.71-.16-.7v-.08a2.59 2.59 0 0 0 1.16.42h.17.59.73.72 1.44.71.71.7.69.7.68.69.67.68.66.67.66.65.65.65.64 1.27.63.63 1.24.61.61.61.6 1.19 1.76 1.73.57 1.13.56.55 1.1 1a1.1 1.1 0 0 0 .49-.09.88.88 0 0 0 .3-.2v.07zm-2.47-6.65c0 .11 0 .19-.12.19l-4.68-.29a.29.29 0 0 1 -.23-.21l-.12-.5c0-.11 0-.19.14-.18l4.67.31a.25.25 0 0 1 .22.2z"/></g><path d="m1325.85 391.47a.14.14 0 0 0 .13-.19l-.12-.48a.29.29 0 0 0 -.22-.21l-4.67-.21a.14.14 0 0 0 -.14.19l.12.5a.3.3 0 0 0 .24.21z"/><path d="m1324.68 386.73-4.67-.31c-.11 0-.17.07-.14.18l.12.5a.29.29 0 0 0 .23.21l4.68.29c.09 0 .15-.08.12-.19l-.12-.48a.25.25 0 0 0 -.22-.2z"/><path d="m1325.16 388.66-4.67-.26a.13.13 0 0 0 -.14.18l.12.5a.29.29 0 0 0 .23.21l4.67.24a.14.14 0 0 0 .13-.19l-.12-.48a.25.25 0 0 0 -.22-.2z"/><path d="m1294.6 390.2 14.94.61-1.23-5.27-14.96-1z" fill="#fff"/><path d="m1299.77 388.21a.65.65 0 0 0 0-.53 1 1 0 0 0 -.29-.53.72.72 0 0 0 -.46-.21.4.4 0 0 0 -.38.16.66.66 0 0 0 0 .52 1 1 0 0 0 .29.54.75.75 0 0 0 .46.21.42.42 0 0 0 .38-.16z" fill="#fff"/><path d="m1302.23 387.26a.63.63 0 0 0 -.41-.19.37.37 0 0 0 -.34.14.67.67 0 0 0 0 .52 1.05 1.05 0 0 0 .26.54.65.65 0 0 0 .4.19.36.36 0 0 0 .35-.16.66.66 0 0 0 0-.5 1.06 1.06 0 0 0 -.26-.54z" fill="#fff"/><path d="m1304.61 387.26a.38.38 0 0 0 -.36.15.65.65 0 0 0 0 .51 1 1 0 0 0 .28.53.74.74 0 0 0 .44.2.39.39 0 0 0 .36-.16.64.64 0 0 0 0-.51 1 1 0 0 0 -.28-.52.66.66 0 0 0 -.44-.2z" fill="#fff"/><path d="m1295.5 388.63 2.41.11-.12-.54-1.72-.09-.59-2.69-.7-.04z" fill="#dc143c"/><path d="m1300.32 388.57a1 1 0 0 0 .15-.86 1.64 1.64 0 0 0 -.54-.88 1.6 1.6 0 0 0 -1-.39 1.08 1.08 0 0 0 -.61.11.71.71 0 0 0 -.35.41 1 1 0 0 0 0 .59 1.94 1.94 0 0 0 .31.7 1.64 1.64 0 0 0 .56.45 1.84 1.84 0 0 0 .67.17.91.91 0 0 0 .81-.3zm-.93-.2a.75.75 0 0 1 -.46-.21 1 1 0 0 1 -.29-.54.66.66 0 0 1 0-.52.4.4 0 0 1 .38-.16.72.72 0 0 1 .46.21 1 1 0 0 1 .29.53.65.65 0 0 1 0 .53.42.42 0 0 1 -.38.16z" fill="#dc143c"/><path d="m1302.86 386.72h-.58l.07.32a1.2 1.2 0 0 0 -.8-.42.69.69 0 0 0 -.64.27 1 1 0 0 0 -.09.87 1.62 1.62 0 0 0 .4.78 1.16 1.16 0 0 0 .84.43.62.62 0 0 0 .62-.33l.07.33a.69.69 0 0 1 0 .28.2.2 0 0 1 -.09.15.66.66 0 0 1 -.35.05.59.59 0 0 1 -.29-.08.32.32 0 0 1 -.12-.17l-.74-.12s0 .06 0 .08a.85.85 0 0 0 .37.52 1.66 1.66 0 0 0 .89.24 1.88 1.88 0 0 0 .51 0 .68.68 0 0 0 .29-.17.59.59 0 0 0 .12-.31 2.22 2.22 0 0 0 -.07-.6zm-.39 1.58a.36.36 0 0 1 -.35.16.65.65 0 0 1 -.4-.19 1.05 1.05 0 0 1 -.26-.54.67.67 0 0 1 0-.52.37.37 0 0 1 .34-.14.63.63 0 0 1 .41.19 1.06 1.06 0 0 1 .28.54.66.66 0 0 1 -.02.5z" fill="#dc143c"/><path d="m1305.42 387.15a1.54 1.54 0 0 0 -.92-.38 1 1 0 0 0 -.58.11.69.69 0 0 0 -.33.4 1.14 1.14 0 0 0 0 .58 1.78 1.78 0 0 0 .3.67 1.51 1.51 0 0 0 .53.44 1.74 1.74 0 0 0 .64.17.86.86 0 0 0 .76-.3.93.93 0 0 0 .13-.83 1.55 1.55 0 0 0 -.53-.86zm-.09.83a.64.64 0 0 1 0 .51.39.39 0 0 1 -.36.16.74.74 0 0 1 -.44-.2 1 1 0 0 1 -.28-.53.65.65 0 0 1 0-.51.38.38 0 0 1 .36-.15.66.66 0 0 1 .44.2 1 1 0 0 1 .28.54z" fill="#dc143c"/><path d="m1294 382.85 30 1.93c.57 0 1.35.79 1.65 2.12l16.5 72c.4 1.73-.26 3.43-1.12 3.79l-27.43 11.61a.75.75 0 0 1 -.29.06c-.6 0-1.39-.81-1.69-2.16l-19-85.52a4.05 4.05 0 0 1 .58-3.34 1.15 1.15 0 0 1 .82-.49m0-2c-2.38 0-4.06 3.08-3.35 6.26l19 85.53c.5 2.25 2 3.72 3.65 3.72a2.7 2.7 0 0 0 1.07-.22l27.54-11.62c1.87-.79 2.88-3.49 2.29-6.09l-16.5-72c-.48-2.08-1.88-3.57-3.47-3.67l-30-1.93z"/><path d="m1295.46 383 29.91 1.91c.56 0 1.32.78 1.63 2.1l16.41 71.45c.39 1.72-.26 3.4-1.11 3.76l-27.41 11.54a.75.75 0 0 1 -.29.06c-.59 0-1.38-.8-1.68-2.13l-18.9-84.91a4 4 0 0 1 .58-3.29 1.1 1.1 0 0 1 .81-.49m0-2c-2.37 0-4 3.06-3.34 6.21l18.9 84.92c.5 2.23 2 3.69 3.63 3.69a2.73 2.73 0 0 0 1.07-.22l27.46-11.6c1.86-.79 2.87-3.46 2.27-6l-16.4-71.49c-.48-2.07-1.87-3.55-3.46-3.65l-29.91-1.86z"/></svg>