<svg id="Logos" xmlns="http://www.w3.org/2000/svg" viewBox="0 0 713.92 240"><defs><style>.cls-1{fill:#cccbcb;}</style></defs><title>MultiLogo</title><path class="cls-1" d="M312.05,190.42v-2.29h3.15q5.32,0,7.56-3.4c.91-1.37,1.36-4.42,1.36-9.17V121.32q0-7.87-1.73-9.85-2.42-2.73-7.19-2.73h-3.15v-2.29h34.18q18.82,0,28.64,4.28A34.1,34.1,0,0,1,390.66,125a44,44,0,0,1,6,23q0,17.52-10.66,29.29Q374,190.43,349.57,190.42Zm24-6.06a63.59,63.59,0,0,0,13.19,1.73q14.37,0,23.84-10.09t9.48-27.38q0-17.4-9.48-27.43t-24.33-10A52.5,52.5,0,0,0,336,113Z"/><path class="cls-1" d="M410.54,136.2a50.28,50.28,0,0,0,3.28-5.28,22.75,22.75,0,0,0,2.17-5.67,15.29,15.29,0,0,0,.22-5.84,13.89,13.89,0,0,0-2.46-5.81c-.19.29-.4.61-.61,1a4.74,4.74,0,0,1-.75,1,3.84,3.84,0,0,1-2.88,1.24,4.09,4.09,0,0,1-2.89-1.32,5.35,5.35,0,0,1-1.71-3.49,4.57,4.57,0,0,1,1.57-3.63,5.6,5.6,0,0,1,4.56-1.86,7.15,7.15,0,0,1,4.49,2.21,11,11,0,0,1,3.24,6.6,21,21,0,0,1-.53,7.73,33.93,33.93,0,0,1-3,7.59,43.37,43.37,0,0,1-4,6.31Z"/><path class="cls-1" d="M431.79,190.42v-2.29h3.15q5.32,0,7.56-3.4c.91-1.37,1.36-4.42,1.36-9.17V121.32q0-7.87-1.73-9.85-2.42-2.73-7.19-2.73h-3.15v-2.29H466q18.82,0,28.64,4.28A34.1,34.1,0,0,1,510.4,125a44,44,0,0,1,6,23q0,17.52-10.65,29.29-11.94,13.13-36.41,13.12Zm24-6.06a63.59,63.59,0,0,0,13.19,1.73q14.37,0,23.84-10.09t9.48-27.38q0-17.4-9.48-27.43t-24.33-10a52.5,52.5,0,0,0-12.7,1.8Z"/><path class="cls-1" d="M557.31,182.25q-8.73,6.75-11,7.8a16.8,16.8,0,0,1-7.12,1.55,12.78,12.78,0,0,1-9.7-4,14.83,14.83,0,0,1-3.8-10.59,13.59,13.59,0,0,1,1.85-7.19c1.7-2.8,4.64-5.45,8.83-7.92s11.15-5.49,20.9-9v-2.22q0-8.49-2.7-11.65t-7.83-3.15a8.81,8.81,0,0,0-6.19,2.1,6.35,6.35,0,0,0-2.35,4.83l.12,3.59a6.18,6.18,0,0,1-1.46,4.4,5,5,0,0,1-3.8,1.55,4.83,4.83,0,0,1-3.75-1.61,6.33,6.33,0,0,1-1.46-4.4q0-5.33,5.45-9.78t15.3-4.46q7.54,0,12.38,2.54a11.64,11.64,0,0,1,5.39,6q1.11,2.67,1.12,10.9v19.26a91,91,0,0,0,.3,9.94,4.16,4.16,0,0,0,1,2.45,2.43,2.43,0,0,0,1.64.62,3.34,3.34,0,0,0,1.73-.44,37.83,37.83,0,0,0,5-4.52v3.47q-6.94,9.28-13.25,9.29a6,6,0,0,1-4.83-2.11Q557.37,187.33,557.31,182.25Zm0-4V156.61a123,123,0,0,0-12.08,5.27,20.73,20.73,0,0,0-7,5.69,11,11,0,0,0-2.11,6.51,10.63,10.63,0,0,0,2.66,7.4,8.08,8.08,0,0,0,6.13,2.94Q549.63,184.42,557.31,178.23Z"/><path class="cls-1" d="M598.05,132v12.76Q605.17,132,612.67,132a7.94,7.94,0,0,1,5.63,2.07,6.39,6.39,0,0,1,2.23,4.8,5.66,5.66,0,0,1-1.61,4.09,5.15,5.15,0,0,1-3.84,1.67,8.17,8.17,0,0,1-4.86-2.14q-2.69-2.13-4-2.13a3.69,3.69,0,0,0-2.42,1.24,30.11,30.11,0,0,0-5.76,8.36v27.18a16.88,16.88,0,0,0,1.18,7.12,6.41,6.41,0,0,0,2.85,2.79,12.54,12.54,0,0,0,5.88,1.11v2.23h-29v-2.23q4.33,0,6.44-1.36a5.32,5.32,0,0,0,2.17-3.16,32.36,32.36,0,0,0,.31-6v-22q0-9.9-.41-11.79a4.65,4.65,0,0,0-1.48-2.76,4.19,4.19,0,0,0-2.7-.87,12.21,12.21,0,0,0-4.33.93L578.3,139,595.45,132Z"/><path class="cls-1" d="M643.26,132V177.6c0,3.56.26,5.92.77,7.1a5.46,5.46,0,0,0,2.3,2.63c1,.58,2.85.86,5.54.86v2.23H624.31v-2.23c2.77,0,4.62-.26,5.57-.8a5.48,5.48,0,0,0,2.26-2.66c.56-1.24.84-3.61.84-7.13V155.75q0-9.24-.56-11.95a4.86,4.86,0,0,0-1.36-2.76,3.84,3.84,0,0,0-2.54-.78,12.4,12.4,0,0,0-4.21.93l-.87-2.23L640.53,132Zm-5.14-29.66a6.21,6.21,0,0,1,6.25,6.25,6.15,6.15,0,0,1-1.82,4.46,6,6,0,0,1-4.43,1.86,6.29,6.29,0,1,1,0-12.57Z"/><path class="cls-1" d="M686.67,132q12.89,0,20.68,9.78A30.06,30.06,0,0,1,714,161a36.22,36.22,0,0,1-3.65,15.42A26,26,0,0,1,686,192.16a24,24,0,0,1-20.37-10.22,31.61,31.61,0,0,1-6.38-19.32,34.28,34.28,0,0,1,3.87-15.51,26.46,26.46,0,0,1,10.18-11.4A26.19,26.19,0,0,1,686.67,132Zm-1.92,4a12.93,12.93,0,0,0-6.6,1.95q-3.3,2-5.35,6.85a33,33,0,0,0-2,12.57q0,12.39,4.92,21.36t13,9a12.1,12.1,0,0,0,9.91-4.95q3.9-5,3.9-17,0-15.1-6.5-23.78Q691.57,136.06,684.75,136.05Z"/><path class="cls-1" d="M258.83,143.82a64.58,64.58,0,0,0-19.38-25.41c-8.71-6.78-19.32-10.18-31.83-11.22-3-.26-10-.83-20.86-.83h-7.08c7-8.28,15.16-19.83,18.71-24.87,11.07-15.71,12.88-26.62,13-39,.15-12.09-4.08-32.8-13.8-41.59A3.75,3.75,0,0,0,195.49,0c-3.43-.42-10,5.12-13.78,13.24-10.11,21.52-10.4,50.85-8.43,73.62-17.35,17.61-39,39.91-39.51,55.79a60.82,60.82,0,0,0-.48,8.72h0a37.39,37.39,0,0,0,16.19,32.52A37.16,37.16,0,0,0,161,189.17a39,39,0,0,0,6.26,1.07c.53,0,1.06.1,1.59.1l.8,0h1l1.46-.07.73,0,.36,0h.19l.21,0,1.69-.25.22,0v13.2s-8.25-8.58-19.61-8.58a22.73,22.73,0,0,0-22.16,17.71h0c-.09.42-.18.84-.25,1.27,0,.23-.07.46-.1.7s-.08.64-.11,1,0,.38-.05.57c0,.5,0,1,0,1.51s0,1,0,1.5c0,.19,0,.38.05.57s.06.64.11,1,.06.47.1.7c.07.43.16.85.25,1.27h0a22.72,22.72,0,0,0,44.88-4.67v-7.23c14.05,12,28,29.61,42.5,29.61,13.32,0,23.22-9.09,29.8-16.53a56,56,0,0,0,11-19.92,80.88,80.88,0,0,0,4-25.51A83.74,83.74,0,0,0,258.83,143.82Zm-83.91,39.83-.6.09-1.2.19-.15,0h-.18l-.37,0-.73,0-1.46.08-1.18,0c-.45,0-.89-.06-1.33-.08a31.84,31.84,0,0,1-5.24-.87,32.17,32.17,0,0,1-9.63-4.28,33.52,33.52,0,0,1-4.13-3.27,30.64,30.64,0,0,1-3.53-3.85,32.45,32.45,0,0,1-4.92-9,31.18,31.18,0,0,1-1.32-4.88c-.09-.41-.15-.82-.2-1.24s-.13-.83-.16-1.22l-.12-1.19c0-.44,0-.89-.05-1.33,0-.61,0-2.05,0-2.47,0-.82.07-1.65.14-2.47a42.66,42.66,0,0,1,7.91-21.32,43.58,43.58,0,0,1,11.14-10.68l.64-.4a41.08,41.08,0,0,1,9-3.43,36.93,36.93,0,0,1,8.16-1h0v23.83l-.25,0L174,135l-1.36.23-.68.13-.63.17-1.24.37c-.4.14-.79.31-1.18.47a19.67,19.67,0,0,0-2.26,1.1c-.36.21-.69.44-1,.66a8.87,8.87,0,0,0-1,.71l-.94.76a9.58,9.58,0,0,0-.87.81,17.13,17.13,0,0,0-1.58,1.73,10,10,0,0,0-.69.92l-.64.93c-.36.66-.76,1.29-1,2a19.45,19.45,0,0,0-1.8,8,15,15,0,0,0,1.49,7,15.22,15.22,0,0,0,3.63,4.74c.35.28.66.58,1,.81s.69.48,1,.69l1,.54c.32.18.66.29,1,.43l.47.2.46.14.86.26c.56.13,1.07.23,1.53.31l1.22.11a8.53,8.53,0,0,0,.88,0h.72l-.71-.08c-.24,0-.53-.05-.87-.12l-1.17-.26c-.44-.13-.92-.28-1.44-.46l-.79-.35-.42-.19-.42-.23a13.56,13.56,0,0,1-3.48-2.7,13.87,13.87,0,0,1-2.83-4.56,13.64,13.64,0,0,1-.77-6.14,16.72,16.72,0,0,1,2.1-6.7,16.29,16.29,0,0,1,5.16-5.57,7.35,7.35,0,0,1,.85-.51c.29-.16.58-.34.88-.49a15.25,15.25,0,0,1,1.87-.76l1-.32,1-.22c.17,0,.34-.08.5-.1l.48-.06,1-.11,1.19,0h0v44.35Zm-21.54,53.07.92.09C154,236.78,153.68,236.76,153.38,236.72Zm22-23v3.54a19.6,19.6,0,0,1-19.61,19.6l-.72,0c-3.28-.26-16.7-2.36-16.7-19.57s13.41-19.32,16.7-19.58l.72,0c10.86,0,19.64,10.07,19.64,10.07Zm-22-15.91.92-.09Zm28-154c2.29-8.76,8.9-21.82,16.84-21.5,8.31.33,8.5,12.69,5.07,23.5C201.53,51.46,199.87,56.75,191,68c-3.11,3.94-7.91,8.93-13.44,14.55C177.52,69.69,179.35,51.66,181.39,43.88Zm-2.87,95.61h.06l1.08.2c.36.07.71.2,1.07.29s.72.2,1.07.32l1,.42a18.24,18.24,0,0,1,2,1,8.1,8.1,0,0,1,1,.59l1,.62a20.3,20.3,0,0,1,3.4,3.16,21.6,21.6,0,0,1,2.67,3.91,20.24,20.24,0,0,1,1.63,4.51l.14.59a4.21,4.21,0,0,1,.11.58l.15,1.12,0,.28,0,.14v.17l0,.7.05,1.29v.29l0,.31,0,.64-.08,1.26c-.14.84-.27,1.68-.41,2.52a25.23,25.23,0,0,1-11.74,16.27,20.16,20.16,0,0,1-2.3,1.21l-.58.28-.61.23-.74.27Zm67.76,61.84c-2.1,7.41-4.7,15-8.68,20.78-4.09,5.94-9.57,12.13-16.57,12.24-14.61,0-28.47-17-42.5-28.56V189.22a11.89,11.89,0,0,0,1.47-.44l1.53-.57.76-.29.73-.36a25.35,25.35,0,0,0,2.87-1.52,30.74,30.74,0,0,0,9.37-8.79,30.35,30.35,0,0,0,4.94-11.67c.15-1,.3-2.08.43-3.11,0-.53,0-1.05.07-1.57l0-.77v-.68a1,1,0,0,0,0-.24l-.08-1.41,0-.7v-.17l0-.21-.07-.41c-.08-.55-.17-1.1-.26-1.64a5.62,5.62,0,0,0-.17-.78l-.21-.76a25.16,25.16,0,0,0-2.29-5.71,24.87,24.87,0,0,0-3.55-4.83,26,26,0,0,0-4.45-3.77l-1.23-.73a11.67,11.67,0,0,0-1.25-.69,21.42,21.42,0,0,0-2.58-1.09l-1.32-.45c-.44-.13-.89-.22-1.33-.33s-.89-.22-1.33-.29l-1.35-.17-.66-.09v-23.9h8.32c7.7,0,14.12.55,19.1,2,9.13,2.81,17,7,23.56,15.66,4.75,6.27,10.47,13.58,13,21.94s5.38,17.16,5.38,26.43C247.88,185.52,248.38,193.92,246.28,201.33Z"/><path class="cls-1" d="M101.76,9.38A66.94,66.94,0,0,0,70.32,0H31.42a4.11,4.11,0,0,0,0,8.21H70.31a59.42,59.42,0,0,1,27.22,8.21c18.14,10.88,27.34,30.42,27.34,58.07s-9.13,47-27.12,57.94a60,60,0,0,1-27.43,8.35H35.53V119.43H65.77c.38,0,38.13-.51,38.13-44.94S66.15,29.55,65.77,29.55H31.42a4.11,4.11,0,0,0-4.1,4.1V63.42H4.16a4.1,4.1,0,1,0,0,8.2H31.42a4.11,4.11,0,0,0,4.11-4.1V37.76H65.77c1.22,0,29.93.41,29.93,36.73,0,36.15-28.72,36.73-29.93,36.74H31.42a4.11,4.11,0,0,0-4.1,4.1v29.55a4.11,4.11,0,0,0,4.1,4.1h38.9a67,67,0,0,0,31.44-9.38c25.88-15.53,31.32-44,31.32-65.11S127.64,24.92,101.76,9.38Z"/><path class="cls-1" d="M67.45,88.4a4.11,4.11,0,0,0-4.1-4.1H4.16a4.1,4.1,0,0,0,0,8.2H63.35A4.11,4.11,0,0,0,67.45,88.4Z"/></svg>