<svg viewBox="0 0 1700 700" xmlns="http://www.w3.org/2000/svg"><g stroke="#06c"><path d="m1528.56 255.3s5-37.79-.4-46.52a41.34 41.34 0 0 0 -7.57-1.58c-3.11-.37-9-.52-9-.52 2.31 6.67 4.39 48.62 4.39 48.62z" stroke-linecap="round" stroke-linejoin="round" stroke-width="2"/><ellipse cx="1522.34" cy="275.69" rx="14.5" ry="10.29" stroke-miterlimit="10" stroke-width="5"/><path d="m1513.9 255.3h16.88a2 2 0 0 1 2 2v14a0 0 0 0 1 0 0h-20.88a0 0 0 0 1 0 0v-14a2 2 0 0 1 2-2z" stroke-miterlimit="10" stroke-width="2"/></g><circle cx="1522.34" cy="305.31" r="32.45"/><path d="m1522.34 273.86a31.45 31.45 0 1 1 -31.45 31.45 31.49 31.49 0 0 1 31.45-31.45m0-2a33.45 33.45 0 1 0 33.45 33.45 33.46 33.46 0 0 0 -33.45-33.45z" fill="#06c"/><ellipse cx="1522.34" cy="275.69" rx="14.5" ry="10.29"/><circle cx="1522.34" cy="305.31" r="20.5"/><path d="m1522.34 287.32a18 18 0 1 1 -18 18 18 18 0 0 1 18-18m0-5a23 23 0 1 0 23 23 23 23 0 0 0 -23-23z" fill="#c6c6c6"/></svg>