<svg viewBox="0 0 1700 700" xmlns="http://www.w3.org/2000/svg" xmlns:xlink="http://www.w3.org/1999/xlink"><linearGradient id="a" gradientUnits="userSpaceOnUse" x1="1188.5" x2="1211.48" y1="570.45" y2="610.25"><stop offset="0" stop-opacity=".4"/><stop offset=".67" stop-color="#fff" stop-opacity="0"/></linearGradient><path d="m1050 334.43 46.83 232.15 205.81-74.58-31.31-139.92a5 5 0 0 0 -4.42-3.89l-211.56-19.77a5 5 0 0 0 -5.35 6.01z"/><path d="m1111.76 607.08 193.07-87.92a5 5 0 0 0 2.8-5.69l-5-21.43-205.83 74.54 8 37a5 5 0 0 0 6.96 3.5z" fill="#f2f2f2"/><path d="m1139.86 594.29 60 26.21a5 5 0 0 0 4.64-.33l54.5-33.67a2.5 2.5 0 0 0 -.86-4.58l-57-10.69-.38-4.65z" fill="#f2f2f2"/><path d="m1063.2 343.63 44.2 219.11 188.91-68.41-29.47-131.67z"/><path d="m1201.09 571.23 56.35 10.56-61.34 37.06-56.23-24.57z" fill="url(#a)" opacity=".35"/><path d="m1201.09 571.23-.38-4.65-60.84 27.7z" fill="#c6c6c6"/><path d="m1257.43 446.44c1.14.8 2.19-.07 2.28-1.93a5.59 5.59 0 0 0 -1.49-4.12c-1.07-.95-2.12-.41-2.43 1.09l1.73 1.23a.7.7 0 0 1 .21.56v.12c0 .21-.15.3-.29.21l-1.72-1.23a5.27 5.27 0 0 0 1.71 4.07z" fill="#1d1f20"/><path d="m1239.24 438.35c1 .61 2 0 2.31-1.51a5.71 5.71 0 0 0 -1.43-4.78l-.31 2.78c0 .22-.17.31-.31.21l-.09-.06a.67.67 0 0 1 -.22-.58l.32-2.78c-1.08-.52-2 .26-2.22 1.88-.22 1.86.71 4.09 1.95 4.84z" fill="#1d1f20"/><path d="m1194.26 465.45a6 6 0 0 0 1 5.23c1.27 1.52 2.91 1.39 3.72-.11l-2.11-2.11a.74.74 0 0 1 -.15-.71v-.12a.25.25 0 0 1 .45-.1l2.1 2.11a5.93 5.93 0 0 0 -1.35-5.18c-1.3-1.41-3.03-.99-3.66.99z" fill="#1d1f20"/><path d="m1098.47 460.88a3.4 3.4 0 0 0 4.58-2.3 6.06 6.06 0 0 0 -2.05-6.58l-1 3.92a.43.43 0 0 1 -.62.32l-.15-.08a.73.73 0 0 1 -.34-.8l.95-3.92c-2-.65-3.89.51-4.45 2.8a5.89 5.89 0 0 0 3.08 6.64z" fill="#1d1f20"/><path d="m1105.48 475.41a5.81 5.81 0 0 0 .14-6.32c-1.37-2.3-3.81-3-5.51-1.68l2.44 3.4a.7.7 0 0 1 0 .86l-.11.12a.45.45 0 0 1 -.71-.11l-2.45-3.4a5.9 5.9 0 0 0 .31 6.55c1.62 2.25 4.33 2.53 5.89.58z" fill="#1d1f20"/><path d="m1123.43 488c1.64-1.65 1.69-4.85.18-7-1.34-1.88-3.44-2.32-4.92-1.11l2.31 3.26a.7.7 0 0 1 0 .84l-.1.12a.41.41 0 0 1 -.66-.08l-2.33-3.27a6 6 0 0 0 .64 6.76c1.45 1.63 3.51 1.82 4.88.48z" fill="#1d1f20"/><path d="m1191 438.25.74 3.47c.06.27 0 .52-.21.55h-.11c-.17 0-.37-.17-.43-.44l-.74-3.48c-1.3.5-1.93 2.54-1.31 4.73.54 1.92 1.91 3.29 3.21 3.21 1.55-.09 2.42-2.13 1.93-4.42-.46-2-1.79-3.52-3.08-3.62z" fill="#1d1f20"/><path d="m1106.41 492.31c2.28-.32 3.69-3 3.11-5.83-.5-2.46-2.34-4.2-4.28-4.16l.86 4.27a.57.57 0 0 1 -.36.71h-.15c-.26.06-.53-.17-.6-.51l-.86-4.28c-2 .78-3 3.45-2.25 6.13.67 2.36 2.61 3.93 4.53 3.67z" fill="#1d1f20"/><path d="m1205 449.47c-1.29-.8-2.56-.11-3 1.53l2.23 1.36a.7.7 0 0 1 .25.65v.13c0 .25-.2.37-.38.26l-2.23-1.36c-.08 2 .93 4.16 2.38 4.81 1.25.56 2.43-.29 2.76-2 .34-2.01-.59-4.48-2.01-5.38z" fill="#1d1f20"/><path d="m1206.59 461.52.73 3.39c.06.27 0 .52-.2.56h-.1c-.17 0-.35-.15-.41-.42l-.72-3.4c-1.14.52-1.72 2.36-1.3 4.34.48 2.27 2.08 3.82 3.48 3.35 1.16-.39 1.81-2.1 1.53-4-.33-2.16-1.67-3.8-3.01-3.82z" fill="#1d1f20"/><path d="m1210.88 435.4c-1.2.17-1.89 1.75-1.66 3.63l2.07-.32c.16 0 .34.17.39.43v.15c.06.26 0 .49-.19.51l-2.06.32c.6 2 2 3.27 3.3 2.85 1.09-.37 1.66-2 1.35-3.86-.36-2.21-1.84-3.9-3.2-3.71z" fill="#1d1f20"/><path d="m1202.7 437.41-.45 3.08c0 .25-.2.36-.38.25l-.1-.07a.68.68 0 0 1 -.25-.64l.45-3.09c-1.37-.58-2.63.46-2.78 2.51a5.68 5.68 0 0 0 1.93 4.72c1.48 1.08 3 .2 3.26-1.85a5.84 5.84 0 0 0 -1.68-4.91z" fill="#1d1f20"/><path d="m1268.05 455.82c1-.1 1.57-1.83 1.15-3.73-.36-1.66-1.32-2.9-2.23-3l.63 2.88c.05.23 0 .43-.13.46h-.07c-.12 0-.26-.14-.3-.36l-.63-2.89c-.87.44-1.23 2.16-.73 4 .44 1.61 1.43 2.73 2.31 2.64z" fill="#1d1f20"/><path d="m1193.64 450.92.74 3.48c.06.27 0 .52-.22.56h-.1c-.18 0-.37-.16-.43-.43l-.74-3.48c-1.29.53-1.92 2.62-1.3 4.81.54 1.92 1.91 3.26 3.19 3.14 1.55-.14 2.41-2.23 1.92-4.52-.42-2-1.7-3.48-3.06-3.56z" fill="#1d1f20"/><path d="m1255.91 436c1.07 0 1.65-1.43 1.41-3.19l-1.61.24c-.13 0-.27-.16-.32-.39v-.13c0-.23 0-.43.14-.45l1.61-.24c-.48-1.61-1.53-2.76-2.48-2.63s-1.59 1.93-1.09 3.9c.43 1.65 1.43 2.89 2.34 2.89z" fill="#1d1f20"/><path d="m1148.12 467.63c1.41-1.32 1.56-4 .49-6.05l-2 2.37c-.16.19-.43.14-.59-.1l-.1-.14a.71.71 0 0 1 0-.79l2-2.37c-1.34-1.55-3.23-1.76-4.42-.38-1.37 1.58-1.29 4.63.24 6.63 1.26 1.64 3.13 2 4.38.83z" fill="#1d1f20"/><path d="m1169.25 450c1.37-.36 2.18-2.15 1.9-4.2-.32-2.33-1.87-4.15-3.44-4.25l.76 3.66c.06.29 0 .55-.25.58h-.11c-.2 0-.41-.18-.47-.47l-.77-3.67c-1.37.49-2.1 2.43-1.65 4.57.51 2.46 2.36 4.2 4.03 3.78z" fill="#1d1f20"/><path d="m1145.58 453a5.54 5.54 0 0 0 0-5.69c-1.2-2.13-3.26-2.82-4.68-1.73l2.12 3.16a.68.68 0 0 1 0 .78l-.09.1c-.17.18-.43.13-.6-.12l-2.12-3.16a5.69 5.69 0 0 0 .37 5.92c1.42 2.11 3.72 2.47 5 .74z" fill="#1d1f20"/><path d="m1176.26 475.67-2.3-2.22a.72.72 0 0 1 -.16-.75v-.13a.3.3 0 0 1 .51-.11l2.31 2.22a5.87 5.87 0 0 0 -1.62-5.68 2.3 2.3 0 0 0 -3.71.88 5.85 5.85 0 0 0 1.16 6.28 2.32 2.32 0 0 0 3.81-.49z" fill="#1d1f20"/><path d="m1149.63 482.55c1.91-.25 3-2.67 2.5-5.24-.46-2.25-2-3.87-3.67-3.86l.8 3.9a.51.51 0 0 1 -.28.64h-.13c-.22.05-.45-.16-.51-.47l-.81-3.9c-1.62.67-2.46 3.08-1.77 5.53.62 2.17 2.24 3.61 3.87 3.4z" fill="#1d1f20"/><path d="m1159.93 465.74c1.44-.42 2.3-2.31 2-4.42-.33-2.41-1.94-4.24-3.59-4.29l.78 3.77c.06.3-.06.58-.27.61h-.12c-.21 0-.43-.17-.49-.47l-.78-3.78c-1.44.56-2.23 2.6-1.77 4.81.55 2.55 2.48 4.29 4.24 3.77z" fill="#1d1f20"/><path d="m1157 452c1.45-.37 2.32-2.22 2-4.32-.32-2.4-1.94-4.26-3.6-4.36l.78 3.76c.06.3-.06.57-.27.6h-.12c-.21 0-.43-.19-.49-.49l-.79-3.77c-1.44.51-2.24 2.51-1.78 4.72.6 2.49 2.54 4.27 4.27 3.86z" fill="#1d1f20"/><path d="m1172.08 463.4c1.36-.41 2.17-2.24 1.88-4.29-.32-2.34-1.86-4.13-3.43-4.19l.77 3.68c.06.29 0 .55-.25.59h-.11c-.2 0-.41-.18-.47-.47l-.77-3.68c-1.36.54-2.09 2.52-1.64 4.67.51 2.48 2.36 4.18 4.02 3.69z" fill="#1d1f20"/><path d="m1215.2 460 1.64 2.66a.67.67 0 0 1 0 .67l-.06.09c-.11.16-.31.12-.43-.09l-1.64-2.66a5.71 5.71 0 0 0 .47 5.07c1.09 1.76 2.75 2 3.61.52a5.52 5.52 0 0 0 -.18-4.9c-.91-1.81-2.43-2.36-3.41-1.36z" fill="#1d1f20"/><path d="m1180 439.8.76 3.56c.06.28 0 .53-.24.56h-.1c-.19 0-.39-.18-.45-.46l-.76-3.57c-1.37.52-2 2.62-1.42 4.87.56 2 2 3.37 3.36 3.29 1.63-.1 2.56-2.21 2.07-4.56-.43-2.03-1.81-3.6-3.22-3.69z" fill="#1d1f20"/><path d="m1131.42 470.61c2 1 4-.3 4.4-2.88a5.89 5.89 0 0 0 -2.24-5.56c-1.84-1.22-3.84-.39-4.57 1.71l3 1.55a.73.73 0 0 1 .31.76v.16c-.06.3-.31.44-.54.32l-3-1.55a5.69 5.69 0 0 0 2.64 5.49z" fill="#1d1f20"/><path d="m1187.09 466.54a2.14 2.14 0 0 0 -3.55.63 5.8 5.8 0 0 0 .74 5.82l1.14-2.91a.27.27 0 0 1 .48-.1l.1.09a.74.74 0 0 1 .15.73l-1.14 2.91c1.33 1 2.83.49 3.48-1.19a5.81 5.81 0 0 0 -1.4-5.98z" fill="#1d1f20"/><path d="m1134.23 485.21c2 1.13 4.06-.11 4.56-2.62a5.87 5.87 0 0 0 -2.06-5.75l-.77 3.78c-.06.3-.3.45-.53.33l-.14-.06a.71.71 0 0 1 -.31-.75l.77-3.79c-1.85-.56-3.64.83-3.94 3.35a5.75 5.75 0 0 0 2.42 5.51z" fill="#1d1f20"/><path d="m1182.74 452.81.76 3.57c.06.28 0 .53-.24.57h-.1c-.19 0-.39-.17-.45-.45l-.71-3.5c-1.36.56-2 2.7-1.4 4.95.56 2 2 3.34 3.34 3.21 1.63-.14 2.55-2.3 2-4.65-.43-2.11-1.81-3.65-3.2-3.7z" fill="#1d1f20"/><path d="m1116.85 473.41c2.11 1 4.27-.34 4.69-3a5.94 5.94 0 0 0 -2.34-5.73c-1.94-1.25-4.06-.38-4.86 1.79l3.19 1.59a.71.71 0 0 1 .33.77v.17a.39.39 0 0 1 -.57.33l-3.2-1.57a5.76 5.76 0 0 0 2.76 5.65z" fill="#1d1f20"/><path d="m1115.32 458.66c2.07-.06 3.41-2.18 3.18-4.67l-3.16.48c-.26 0-.51-.2-.58-.52v-.18a.52.52 0 0 1 .34-.66l3.17-.47c-.72-2.25-2.61-3.8-4.46-3.54-2.13.3-3.38 2.87-2.67 5.64.55 2.26 2.36 3.97 4.18 3.92z" fill="#1d1f20"/><path d="m1129.88 456.31c1.95-.05 3.2-2.1 3-4.5l-3 .44c-.24 0-.48-.19-.54-.5v-.18c-.07-.31.07-.6.31-.63l3-.44c-.7-2.19-2.49-3.7-4.23-3.46-2 .29-3.17 2.78-2.48 5.46.5 2.22 2.22 3.85 3.94 3.81z" fill="#1d1f20"/><path d="m1243.66 449a5.35 5.35 0 0 0 -.22-4.5c-.85-1.7-2.17-2.25-3-1.39l1.46 2.51a.61.61 0 0 1 0 .61l-.05.08c-.1.15-.27.1-.38-.1l-1.46-2.51a5.56 5.56 0 0 0 .48 4.68c.99 1.62 2.44 1.91 3.17.62z" fill="#1d1f20"/><path d="m1161.12 475.31a.32.32 0 0 1 .54-.12l.11.11a.71.71 0 0 1 .15.76l-1.32 3.1c1.57 1.09 3.38.42 4.05-1.68a6 6 0 0 0 -1.24-5.59c-1.57-1.67-3.64-1.33-4.52.71a6 6 0 0 0 .9 5.81z" fill="#1d1f20"/><path d="m1270.79 433.63c.8-.23 1.2-1.57.94-3.14-.29-1.78-1.29-3.2-2.23-3.32l.62 2.81c0 .22 0 .41-.13.43h-.07c-.11 0-.25-.15-.3-.37l-.61-2.81c-.79.34-1.14 1.79-.78 3.44.41 1.88 1.58 3.25 2.56 2.96z" fill="#1d1f20"/><path d="m1259.66 457.11c1.14.91 2.23.1 2.38-1.7a5.62 5.62 0 0 0 -1.4-4.25l-.25 2.71c0 .21-.14.31-.27.22l-.12-.09a.63.63 0 0 1 -.21-.55l.25-2.72c-1-.47-2 .47-2 2.27a5.41 5.41 0 0 0 1.62 4.11z" fill="#1d1f20"/><path d="m1253.9 458.65c.81-1.12.69-3.42-.23-5-.81-1.4-2-1.8-2.72-1l1.41 2.43a.67.67 0 0 1 0 .61l-.05.08c-.09.14-.25.1-.36-.09l-1.41-2.44a5.63 5.63 0 0 0 .67 4.88c.88 1.23 2.02 1.46 2.69.53z" fill="#1d1f20"/><path d="m1220.32 434.07c-1.15.16-1.8 1.7-1.57 3.53l2-.3c.15 0 .32.17.38.42v.14c.06.26 0 .48-.18.51l-2 .3c.59 1.91 2 3.19 3.17 2.78 1-.35 1.57-2 1.26-3.75-.38-2.16-1.77-3.81-3.06-3.63z" fill="#1d1f20"/><path d="m1226.9 458.14-.36 3c0 .24-.18.35-.34.25l-.09-.05a.69.69 0 0 1 -.24-.61l.37-3c-1.16-.46-2.22.44-2.43 2.19-.25 2 .7 4.33 2.08 5 1.14.58 2.23-.18 2.54-1.78a5.74 5.74 0 0 0 -1.53-5z" fill="#1d1f20"/><path d="m1282.8 451.84-1.42-1.74a.7.7 0 0 1 -.12-.56v-.09c0-.17.18-.2.29-.06l1.42 1.73a5.65 5.65 0 0 0 -1.24-4.31c-.82-.85-1.72-.63-2.09.51a5.66 5.66 0 0 0 .95 4.69c.85.99 1.78.9 2.21-.17z" fill="#1d1f20"/><path d="m1224.08 449.72c-.1.15-.29.11-.41-.1l-.07-.11a.66.66 0 0 1 0-.65l1.33-1.92c-1.05-1.39-2.48-1.54-3.23-.16a5.47 5.47 0 0 0 .3 4.81c1 1.85 2.6 2.27 3.49 1a5.22 5.22 0 0 0 0-4.78z" fill="#1d1f20"/><path d="m1274.16 451c0-.18.18-.2.3-.06l.07.07a.73.73 0 0 1 .12.57l-.61 2.23c.94.86 1.94.44 2.22-1.08a5.82 5.82 0 0 0 -1-4.16c-1-1.29-2.12-1.11-2.52.35a5.78 5.78 0 0 0 .77 4.3z" fill="#1d1f20"/><path d="m1273.05 443.9c.8-.27 1.2-1.63.94-3.2-.29-1.79-1.29-3.19-2.23-3.28l.62 2.81c0 .22 0 .42-.12.44h-.07c-.12 0-.25-.14-.3-.36l-.62-2.82c-.78.37-1.13 1.84-.77 3.49.42 1.88 1.58 3.23 2.55 2.92z" fill="#1d1f20"/><path d="m1228.54 433.18 1.52 2.59a.65.65 0 0 1 0 .63l-.06.08c-.1.14-.28.09-.4-.11l-1.53-2.59a5.58 5.58 0 0 0 .67 5.07c.92 1.33 2.18 1.62 2.94.7.91-1.11.82-3.5-.18-5.2-.84-1.5-2.13-1.97-2.96-1.17z" fill="#1d1f20"/><path d="m1245 461c1.21-.13 1.82-2 1.38-4-.38-1.78-1.45-3.1-2.48-3.15l.66 3.08c.06.24 0 .46-.15.49h-.08c-.14 0-.29-.15-.34-.39l-.67-3.08c-1 .48-1.43 2.33-.9 4.27.45 1.78 1.58 2.92 2.58 2.78z" fill="#1d1f20"/><path d="m1249.65 447.94c1.19.81 2.29-.09 2.4-2a5.63 5.63 0 0 0 -1.54-4.21c-1.11-1-2.21-.41-2.54 1.13l1.8 1.24a.69.69 0 0 1 .21.57v.13c0 .21-.16.31-.3.21l-1.79-1.24a5.31 5.31 0 0 0 1.76 4.17z" fill="#1d1f20"/><path d="m1264.42 434.08a5.19 5.19 0 0 0 -.26-4.17c-.77-1.6-2-2.16-2.68-1.4l1.32 2.37a.64.64 0 0 1 0 .58v.07c-.08.13-.24.08-.34-.11l-1.32-2.37a5.45 5.45 0 0 0 .48 4.34c.88 1.61 2.17 1.91 2.8.69z" fill="#1d1f20"/><path d="m1063.2 343.63 44.16 219.12 189.21-68.51-30.39-137zm213.57 75.24c0 .24 0 .44-.13.46l-185.48 22.31a.72.72 0 0 1 -.69-.61.58.58 0 0 1 .42-.74l185.56-21.82c.12-.02.27.16.32.4zm1.6 16.45c1 0 2.14 1.42 2.66 3.28.71 2.57.08 5-1.32 4.94-1 0-2.16-1.39-2.68-3.28-.72-2.59-.03-4.99 1.34-4.94zm-2.22-10c1 .06 2.15 1.46 2.66 3.33.72 2.56.07 4.91-1.33 4.86-1 0-2.17-1.44-2.69-3.33-.72-2.63-.06-4.98 1.36-4.89zm3.09 21.28c.5-1.36 1.61-1.58 2.64-.54a7.12 7.12 0 0 1 1.4 6.37c-.49 1.37-1.59 1.62-2.62.59a7.08 7.08 0 0 1 -1.42-6.45zm-7.69-10.09c1.06 0 2.22 1.44 2.75 3.35.72 2.61 0 5.05-1.4 5.05-1.07 0-2.24-1.42-2.78-3.35-.74-2.68-.04-5.12 1.43-5.08zm-2.26-10.24c1.07.06 2.22 1.49 2.75 3.39.73 2.62 0 5-1.41 5-1.07 0-2.25-1.47-2.79-3.4-.73-2.7-.03-5.11 1.45-5.02zm2.91 22.45c.43-2.27 2.09-2.6 3.42-.71a7.63 7.63 0 0 1 1.14 5.22c-.41 2.27-2.06 2.65-3.4.76a7.6 7.6 0 0 1 -1.16-5.3zm-9.19-9.92c.84-1.82 2.69-1.27 3.83 1.11a7 7 0 0 1 .39 5.28c-.83 1.83-2.69 1.33-3.84-1.07a6.88 6.88 0 0 1 -.39-5.35zm-2-11c.81-1 2.11-.53 3.09 1 1.34 2.06 1.57 5.21.48 6.53-.8 1-2.11.58-3.1-.93-1.34-2.18-1.57-5.4-.48-6.67zm5.73 20.44c1.1 0 2.29 1.41 2.83 3.36.74 2.67 0 5.21-1.47 5.25-1.1 0-2.31-1.37-2.86-3.35-.74-2.77-.01-5.32 1.52-5.33zm-11.55-7.08c.31-1.77 1.41-2.57 2.61-1.92 1.63.89 2.78 4 2.38 6.37-.29 1.76-1.37 2.6-2.57 2-1.61-.97-2.82-4.08-2.4-6.52zm-2.35-8.58c-.33-2.05.23-3.81 1.31-4.18 1.46-.51 3.24 1.62 3.68 4.4.33 2-.21 3.78-1.27 4.17-1.45.48-3.26-1.65-3.7-4.46zm4.64 20.25c.06-2.7 1.62-3.9 3.21-2.51a7.09 7.09 0 0 1 1.92 5.09c-.06 2.68-1.6 3.93-3.19 2.57a7.07 7.07 0 0 1 -1.92-5.22zm-10.13-10.29c.33-1.81 1.48-2.64 2.73-2 1.7.9 2.88 4 2.45 6.51-.31 1.81-1.44 2.66-2.7 2-1.71-.9-2.91-4.05-2.46-6.58zm-2.42-8.78c-.32-2.1.27-3.9 1.39-4.28 1.54-.52 3.39 1.65 3.83 4.49.33 2.07-.24 3.87-1.35 4.28-1.52.49-3.4-1.68-3.8-4.56zm5.53 18.14c.88-1.06 2.28-.7 3.32.83 1.42 2.1 1.65 5.44.46 6.92-.87 1.09-2.27.77-3.33-.77-1.43-2.19-1.65-5.58-.43-7.05zm-10.55-9.6c.93-1.05 2.4-.66 3.48.93 1.49 2.17 1.7 5.56.44 7-.92 1.08-2.39.72-3.49-.87-1.5-2.23-1.7-5.67-.41-7.13zm-3.3-8.69c.11-2.77 1.85-3.93 3.58-2.41a7.26 7.26 0 0 1 2 5.35c-.1 2.76-1.81 4-3.55 2.47a7.22 7.22 0 0 1 -2.01-5.48zm7 19.31c1.25 0 2.58 1.47 3.16 3.55.8 2.85 0 5.59-1.76 5.66-1.26.05-2.61-1.44-3.2-3.55-.81-2.96.09-5.7 1.83-5.73zm-8.3-2.57c-.37 1.9-1.62 2.82-3 2.16-1.89-.91-3.18-4.25-2.65-6.88.38-1.9 1.66-2.78 3-2.1 1.92.87 3.19 4.16 2.68 6.75zm2.49 9.1c.33 2.19-.3 4.16-1.51 4.68-1.68.71-3.7-1.47-4.16-4.52-.34-2.22.32-4.19 1.55-4.68 1.7-.74 3.69 1.45 4.15 4.45zm-5.32-19.44c-1 2-3.27 1.41-4.59-1.22a6.9 6.9 0 0 1 -.31-5.82c1.06-2 3.28-1.32 4.57 1.29a6.86 6.86 0 0 1 .36 5.68zm-6.77 13.79c-1 1.14-2.65.78-3.84-.88-1.64-2.3-1.82-5.92-.38-7.47 1-1.12 2.65-.72 3.82.94 1.69 2.2 1.83 5.78.43 7.34zm3.33 10c-.39 2-1.71 3-3.13 2.34-2-.87-3.29-4.28-2.73-7 .41-2 1.74-2.94 3.16-2.28 1.96.77 3.26 4.14 2.73 6.83zm-7.25-21.09c-1.4 0-2.88-1.63-3.5-3.85-.86-3 .16-5.82 2.09-5.76 1.39.05 2.85 1.67 3.46 3.85.87 2.88-.11 5.67-2.02 5.65zm-5.37 12.94c-1.09 1.18-2.78.81-4-.89-1.71-2.34-1.88-6.06-.35-7.66 1.1-1.15 2.78-.74 4 1 1.68 2.17 1.86 5.83.38 7.44zm3 11.4c-1.15 2.21-3.56 1.75-5-1a7.13 7.13 0 0 1 -.29-6.2c1.17-2.18 3.57-1.66 5 1a7.19 7.19 0 0 1 .33 6.09zm-7-22.8c-1.47 0-3-1.66-3.65-3.93-.88-3.11.2-6 2.23-5.91 1.46 0 3 1.7 3.6 3.93.86 2.95-.19 5.82-2.19 5.8zm-4.64 10.42c-.19 3.09-2.29 4.53-4.35 2.95a7.29 7.29 0 0 1 -2.35-5.94c.21-3.11 2.34-4.49 4.39-2.88a7.33 7.33 0 0 1 2.3 5.76zm2.55 10.79c.34 2.35-.43 4.49-1.84 5.07-1.94.8-4.23-1.52-4.71-4.81-.34-2.39.46-4.53 1.89-5.08 1.93-.86 4.18 1.48 4.65 4.71zm-5.3-22.08c-.47 2-1.94 3-3.51 2.25-2.17-1-3.6-4.61-2.93-7.41.49-2 2-2.94 3.55-2.18 2.13.96 3.52 4.46 2.86 7.23zm-7.48 11.65c.34 2.41-.49 4.56-2 5.11-2.06.77-4.46-1.65-4.93-5-.35-2.45.51-4.61 2-5.13 2.1-.83 4.45 1.61 4.92 4.91zm2.52 15.44c-.78 2.87-3.29 3.45-5.2 1.16a7.71 7.71 0 0 1 -1.38-6.53c.81-2.87 3.34-3.37 5.22-1.08a7.7 7.7 0 0 1 1.35 6.34zm-5.18-28c.34 2.39-.49 4.51-2 5-2.08.7-4.49-1.78-5-5.12-.34-2.43.53-4.55 2-5 2.16-.79 4.52 1.65 4.99 4.98zm-8.06 14.56c.34 2.48-.54 4.69-2.11 5.27-2.18.8-4.69-1.68-5.17-5.13-.34-2.51.58-4.74 2.17-5.28 2.17-.89 4.63 1.61 5.1 5zm2.19 16.79a2.71 2.71 0 0 1 -4.39 1 7.33 7.33 0 0 1 -1.76-8.34 2.72 2.72 0 0 1 4.41-.9 7.36 7.36 0 0 1 1.72 8.1zm-4.92-29.82c.35 2.46-.55 4.63-2.13 5.16-2.19.73-4.7-1.81-5.18-5.24-.34-2.5.59-4.68 2.19-5.17 2.19-.69 4.65 1.85 5.12 5.25zm-13.84 9.73c1.79 0 3.59 1.75 4.3 4.23 1 3.4-.39 6.68-2.84 6.78-1.79.07-3.64-1.71-4.36-4.23-.99-3.51.43-6.77 2.9-6.81zm-2.82-13.38c1.79 0 3.6 1.84 4.31 4.32 1 3.4-.4 6.61-2.86 6.63-1.81 0-3.65-1.8-4.38-4.31-.99-3.49.49-6.71 2.93-6.67zm3.14 28.53a2.94 2.94 0 0 1 4.68-1 7.44 7.44 0 0 1 1.78 8.49 2.93 2.93 0 0 1 -4.66 1.06 7.4 7.4 0 0 1 -1.8-8.58zm-12.5-13.08c1.88 0 3.78 1.79 4.51 4.34 1 3.49-.46 6.87-3 7-1.9.09-3.84-1.73-4.58-4.32-1.01-3.61.46-7 3.07-7.05zm-2.89-13.8c1.9 0 3.79 1.89 4.52 4.43 1 3.5-.46 6.8-3.06 6.84-1.91 0-3.85-1.84-4.59-4.43-1.06-3.54.51-6.84 3.13-6.84zm2.69 30.35c1-3.14 4-3.74 6.15-1.27a7.77 7.77 0 0 1 1.46 7c-1 3.15-4 3.83-6.13 1.37a7.74 7.74 0 0 1 -1.48-7.09zm-15.39-12.81c1.73-2.56 5-1.94 6.78 1.22a7.33 7.33 0 0 1 .1 7.2c-1.7 2.59-5 2.06-6.8-1.14a7.31 7.31 0 0 1 -.08-7.27zm-2.3-15c1.58-1.35 3.88-.86 5.47 1.14 2.17 2.73 2.23 7 .11 8.89-1.56 1.39-3.87 1-5.49-1-2.28-2.79-2.28-7.16-.09-9.01zm8 27.59c2-.11 4 1.72 4.72 4.34 1 3.6-.51 7.17-3.23 7.38-2 .16-4-1.67-4.8-4.33-1.07-3.64.55-7.22 3.29-7.37zm-20.19-8.74c.77-2.47 2.88-3.67 5-2.87 2.89 1.09 4.62 5.23 3.61 8.59-.74 2.47-2.82 3.72-4.95 3-2.96-1.11-4.74-5.31-3.66-8.72zm-3.31-11.7c-.34-2.81.89-5.28 2.92-5.86 2.75-.79 5.75 2 6.23 5.8.34 2.77-.84 5.23-2.83 5.85-2.78.87-5.85-1.93-6.33-5.79zm6.1 27.68c.45-3.75 3.45-5.57 6.19-3.8a7.48 7.48 0 0 1 2.89 6.87c-.41 3.72-3.37 5.62-6.13 3.89a7.45 7.45 0 0 1 -2.96-6.96zm-17.53-13.37c.84-2.56 3.09-3.81 5.33-3 3.05 1.11 4.86 5.38 3.77 8.85-.81 2.55-3 3.85-5.28 3.08-3.08-1.09-4.98-5.43-3.82-8.93zm-3.41-12.06c-.35-2.9 1-5.45 3.13-6.06 2.93-.83 6.09 2.06 6.57 6 .34 2.85-.93 5.39-3 6.05-2.99.84-6.23-2.04-6.7-6.02zm8.05 24.87c1.77-1.57 4.32-1.22 6.07.83 2.38 2.78 2.39 7.42 0 9.62-1.75 1.62-4.32 1.33-6.1-.72-2.45-2.85-2.43-7.54.03-9.76zm-18.63-12.5c1.91-1.56 4.63-1.13 6.48 1 2.51 2.91 2.48 7.66-.08 9.86-1.88 1.61-4.62 1.25-6.51-.89-2.59-2.98-2.54-7.82.11-10zm-5.14-12c.58-3.9 4-5.65 7.12-3.64a7.79 7.79 0 0 1 3.15 7.34c-.55 3.87-4 5.71-7.05 3.75a7.74 7.74 0 0 1 -3.22-7.44zm10.8 26.58c2.37-.16 4.68 1.81 5.52 4.67 1.14 3.93-.8 7.89-4 8.19-2.4.22-4.77-1.75-5.62-4.67-1.21-4 .81-7.97 4.1-8.18zm161.77-98.89c-.17-.76 0-1.37.43-1.37s.87.6 1 1.36l2.27 10.28c.17.75 0 1.38-.42 1.4s-.87-.59-1-1.34zm-4.36-6.25c-.16-.76 0-1.38.45-1.37s.88.63 1 1.39l5 22.87c.17.76 0 1.4-.43 1.42s-.88-.57-1-1.34zm-5-9c-.17-.77 0-1.38.46-1.36s.91.65 1.07 1.41l9 41c.17.76 0 1.42-.44 1.45s-.89-.56-1.06-1.33zm-1.49 7.22c-.17-.77 0-1.39.47-1.38s.91.64 1.08 1.41l5.88 26.74c.17.77 0 1.42-.45 1.45s-.91-.58-1.08-1.36zm-3.43-1.33c-.17-.78 0-1.4.49-1.39s.92.65 1.1 1.42l6.48 29.53c.17.78 0 1.44-.47 1.47s-.92-.58-1.09-1.37zm-3.08.51c-.17-.79.05-1.42.5-1.41s.94.65 1.11 1.44l6.28 28.65c.18.79 0 1.45-.47 1.48s-.94-.59-1.11-1.38zm-3.68-2c-.17-.8.06-1.43.51-1.42s1 .66 1.13 1.45l7.16 32.72c.18.79 0 1.47-.48 1.5s-1-.59-1.13-1.39zm-4-3.17c-.18-.8.06-1.43.52-1.42s1 .68 1.15 1.48l8.57 39.17c.17.8-.05 1.48-.5 1.52s-1-.59-1.15-1.4zm-2.14 5.67c-.17-.81.07-1.46.54-1.45s1 .67 1.16 1.48l6.12 28c.17.82-.06 1.5-.52 1.53s-1-.61-1.16-1.42zm-4.69-5.78c-.18-.82.06-1.47.55-1.45s1 .69 1.18 1.5l8.65 39.69c.18.82 0 1.52-.52 1.56s-1-.6-1.18-1.42zm-3.1 1.85c-.18-.83.07-1.48.56-1.47s1 .7 1.21 1.52l7.86 36.14c.18.82-.06 1.52-.54 1.56s-1-.61-1.2-1.44zm-3.15 2c-.18-.83.08-1.5.58-1.49s1 .7 1.23 1.53l7 32.37c.18.84-.07 1.54-.56 1.58s-1-.62-1.21-1.46zm-4.54-4.18c-.19-.84.08-1.51.59-1.49s1.07.71 1.25 1.55l8.87 40.88c.18.85-.07 1.56-.57 1.6s-1.06-.61-1.24-1.46zm-2.51 5.56c-.18-.85.09-1.53.61-1.52s1.08.7 1.26 1.55l6.49 29.94c.18.85-.08 1.57-.59 1.6s-1.08-.63-1.26-1.49zm-6-10c-.19-.86.09-1.53.63-1.5s1.1.73 1.29 1.59l10.83 50.13c.19.86-.08 1.6-.59 1.64s-1.09-.61-1.28-1.48zm-2.11 8.11c-.19-.87.1-1.56.64-1.54s1.12.72 1.31 1.59l7.36 34.09c.18.86-.09 1.6-.62 1.64s-1.11-.64-1.3-1.52zm-3.91.13c-.19-.88.1-1.58.65-1.56s1.15.73 1.34 1.6l7.32 34c.19.88-.09 1.62-.63 1.66s-1.14-.65-1.33-1.53zm-3.7 1.52c-.19-.88.12-1.59.68-1.58s1.16.74 1.35 1.62l6.7 31.13c.19.89-.1 1.64-.65 1.67s-1.16-.65-1.35-1.54zm-4.65-2.55c-.19-.89.12-1.61.7-1.59s1.19.75 1.38 1.64l7.81 36.4c.19.9-.11 1.66-.67 1.7s-1.18-.66-1.37-1.56zm-6.46-10.62c-.19-.9.13-1.61.72-1.58s1.21.79 1.41 1.68l12.38 57.82c.2.9-.11 1.69-.68 1.74s-1.19-.63-1.39-1.55zm-2.14 10c-.2-.92.13-1.64.73-1.63s1.23.77 1.43 1.68l8.14 38.07c.2.92-.12 1.69-.7 1.74s-1.23-.67-1.43-1.59zm-3.84 2.48c-.2-.92.14-1.66.75-1.65s1.26.77 1.45 1.69l7.11 33.3c.2.92-.13 1.71-.73 1.75s-1.24-.68-1.44-1.61zm-6.06-7.51c-.2-.93.15-1.67.77-1.64s1.29.79 1.49 1.72l10.33 48.49c.2.94-.14 1.74-.75 1.79s-1.27-.67-1.47-1.61zm-2.79 8.31c-.2-.94.15-1.7.79-1.68s1.31.78 1.51 1.72l6.83 31.99c.2 1-.15 1.74-.77 1.79s-1.3-.7-1.5-1.65zm-5.28-2.9c-.2-.95.16-1.71.82-1.69s1.33.8 1.53 1.74l8.08 38.08c.2.95-.15 1.76-.79 1.81s-1.33-.7-1.53-1.66zm-5.44-3.22c-.21-1 .17-1.72.84-1.7s1.36.82 1.57 1.78l9.46 44.7c.2 1-.16 1.79-.81 1.84s-1.36-.7-1.56-1.67zm-4.31 2.66c-.21-1 .18-1.75.86-1.73s1.39.82 1.6 1.79l8.36 39.6c.21 1-.17 1.81-.83 1.85s-1.39-.7-1.59-1.69zm-5.89-4.28c-.21-1 .19-1.77.89-1.74s1.43.84 1.63 1.82l10.19 48.37c.21 1-.17 1.83-.85 1.89s-1.41-.7-1.62-1.7zm-3.6 7.13c-.21-1 .2-1.79.92-1.78s1.45.83 1.66 1.83l7.22 34.33c.21 1-.19 1.85-.89 1.9s-1.44-.74-1.65-1.74zm-5.37-.77c-.22-1 .21-1.81.93-1.8s1.49.85 1.7 1.85l7.57 36.1c.21 1-.2 1.87-.91 1.91s-1.48-.73-1.69-1.75zm-7.98-13.13c-.22-1 .22-1.82 1-1.78a2.27 2.27 0 0 1 1.73 1.9l12.98 62.42c.22 1-.2 1.91-.93 2s-1.5-.71-1.72-1.74zm-3 12.07c-.22-1 .23-1.85 1-1.83a2.22 2.22 0 0 1 1.76 1.89l8 38.53c.22 1-.21 1.91-1 2s-1.55-.76-1.76-1.8zm-5.28 1.56c-.21-1 .25-1.88 1-1.86a2.26 2.26 0 0 1 1.8 1.91l7.42 35.65c.22 1-.23 1.94-1 2s-1.58-.76-1.8-1.82zm-7.35-7.79c-.22-1.06.26-1.89 1.06-1.86a2.32 2.32 0 0 1 1.84 1.95l10.73 51.46c.22 1.07-.24 2-1 2s-1.61-.75-1.83-1.81zm-3.78 10.15c-.22-1.07.27-1.93 1.09-1.92a2.31 2.31 0 0 1 1.88 2l6.51 31.45c.22 1.08-.25 2-1.06 2s-1.65-.79-1.88-1.86zm-7.13-5.35c-.22-1.08.28-1.94 1.13-1.92a2.37 2.37 0 0 1 1.92 2l8.74 42.37c.23 1.09-.26 2-1.09 2.08s-1.68-.78-1.91-1.88zm-3.64 12.35c-.23-1.1.29-2 1.15-2a2.32 2.32 0 0 1 2 2l3.71 18c.23 1.09-.28 2-1.13 2a2.22 2.22 0 0 1 -2-1.93zm-8.35-9.8c-.23-1.11.3-2 1.19-2a2.44 2.44 0 0 1 2 2l7.76 37.82c.23 1.12-.29 2.07-1.16 2.12a2.2 2.2 0 0 1 -2-1.92zm-6.92-2c-.23-1.13.32-2 1.23-2a2.49 2.49 0 0 1 2 2.07l8.63 42.14c.23 1.13-.31 2.1-1.2 2.16a2.24 2.24 0 0 1 -2-1.95zm-3.8 14.15c-.23-1.15.33-2.08 1.26-2.08a2.45 2.45 0 0 1 2.1 2.05l2.89 14.23c.24 1.14-.32 2.09-1.24 2.13a2.36 2.36 0 0 1 -2.1-2zm-9.88-14.86c-.23-1.15.36-2.07 1.32-2.05a2.59 2.59 0 0 1 2.15 2.13l9 44.13c.23 1.16-.34 2.15-1.28 2.22a2.32 2.32 0 0 1 -2.14-2zm-3.81 15.95c-.24-1.17.36-2.13 1.34-2.14a2.53 2.53 0 0 1 2.2 2.11l2.57 12.66c.23 1.17-.36 2.15-1.33 2.19a2.42 2.42 0 0 1 -2.2-2.07zm37.94 128.11a1.77 1.77 0 0 1 -1 2.13l-4 1.11 7 35.37a.68.68 0 0 1 -.35.78h-.14c-.26.09-.53-.11-.6-.45l-7-35.45-4.25 1.18a1.55 1.55 0 0 1 -1.77-1.41l-.29-1.43a1.8 1.8 0 0 1 1.05-2.17l4.28-1.14-1.46-7.37a.59.59 0 0 1 .36-.73h.14a.54.54 0 0 1 .6.5l1.46 7.34 4-1.06c.75-.2 1.51.43 1.71 1.39zm18.06 11.74a1.79 1.79 0 0 1 -.91 2.1l-3.82 1.19 3.68 18.38a.66.66 0 0 1 -.33.75l-.14.05c-.24.08-.49-.12-.56-.45l-3.68-18.41-3.9 1.22c-.72.23-1.47-.37-1.67-1.33l-.28-1.4a1.81 1.81 0 0 1 1-2.14l3.93-1.18-4.61-23.06a.58.58 0 0 1 .34-.7h.14c.24-.06.5.16.56.49l4.6 23 3.8-1.14c.7-.21 1.42.38 1.61 1.32zm13.86-4.34a1.72 1.72 0 0 1 -.85 2l-3.59 1.12 3.6 17.86a.64.64 0 0 1 -.3.73h-.13c-.23.08-.47-.11-.53-.44l-3.61-17.89-3.67 1.15c-.68.21-1.39-.38-1.58-1.31l-.28-1.35a1.75 1.75 0 0 1 .89-2.07l3.7-1.11-4.49-22.31a.55.55 0 0 1 .31-.68h.13c.23-.06.47.16.54.48l4.48 22.25 3.58-1.08c.65-.2 1.34.38 1.53 1.29zm11.55-11.4a1.61 1.61 0 0 1 -.79 1.93l-3.36 1 5 24.85a.6.6 0 0 1 -.28.7h-.12c-.22.07-.45-.12-.51-.43l-5-24.9-3.5 1c-.64.19-1.32-.39-1.51-1.29l-.27-1.31a1.64 1.64 0 0 1 .83-2l3.53-1-2.87-14.13c-.06-.31.07-.61.29-.66h.12c.22-.05.45.15.52.46l2.86 14.1 3.35-1c.62-.17 1.27.4 1.46 1.29zm16.53 16.19a1.66 1.66 0 0 1 -.72 1.93l-3.24 1.11.85 4.13a.58.58 0 0 1 -.26.67h-.12c-.2.07-.42-.11-.48-.42l-.84-4.13-3.2 1.1c-.61.21-1.25-.34-1.43-1.22l-.27-1.28a1.67 1.67 0 0 1 .77-2l3.22-1.07-6.89-33.76a.5.5 0 0 1 .26-.63h.12c.21-.05.43.15.49.45l6.88 33.68 3.22-1.07c.58-.19 1.2.35 1.38 1.21zm11.61-4a1.6 1.6 0 0 1 -.68 1.86l-3.06 1.05.83 4.07a.55.55 0 0 1 -.24.65h-.11c-.19.07-.4-.12-.46-.41l-.83-4.07-3 1c-.57.2-1.18-.34-1.36-1.2l-.26-1.24a1.61 1.61 0 0 1 .71-1.89l3.05-1-6.73-32.77c-.06-.29 0-.57.24-.61h.12c.19-.05.4.15.46.44l6.72 32.7 3-1c.55-.19 1.14.35 1.32 1.18zm11.89-4c.17.81-.11 1.62-.63 1.8l-2.8 1 .84 3.93c.06.28 0 .57-.22.63h-.1c-.18.07-.38-.11-.44-.4l-.85-3.94-2.93 1c-.54.19-1.12-.34-1.29-1.17l-.26-1.2c-.17-.83.12-1.66.66-1.83l2.93-1-6.82-31.74c-.06-.28 0-.55.22-.6h.11c.18-.05.38.15.44.43l6.81 31.69 2.83-.94c.52-.18 1.08.35 1.25 1.16zm10.4-3.46c.17.79-.09 1.57-.58 1.74l-2.66.92.81 3.77c.06.28 0 .56-.2.62h-.1c-.17.07-.36-.11-.42-.38l-.82-3.79-2.78.95c-.51.18-1.07-.34-1.24-1.15l-.25-1.17c-.17-.81.11-1.6.62-1.77l2.78-.93-6.69-30.95c-.06-.28 0-.54.21-.59h.1c.18-.05.37.14.43.42l6.67 30.9 2.68-.89c.49-.17 1 .35 1.2 1.14zm6.08-21.13c.16.77-.09 1.51-.56 1.65l-2.61.77 4.68 21.56c.06.27 0 .53-.19.59h-.1c-.16.06-.34-.11-.4-.38l-4.68-21.61-2.61.77c-.48.14-1-.38-1.18-1.16l-.25-1.14c-.16-.79.1-1.54.59-1.68l2.59-.73-2.67-12.24c-.06-.27 0-.52.2-.57h.09c.17 0 .35.14.41.41l2.71 12.16 2.63-.75c.47-.13 1 .39 1.15 1.16zm10.81 3.52c.16.76-.07 1.48-.52 1.62l-2.46.77 3.2 14.66c0 .26 0 .52-.18.58h-.09c-.16 0-.33-.11-.39-.38l-3.19-14.69-2.5.78c-.46.15-1-.36-1.13-1.13l-.24-1.11c-.16-.76.08-1.5.54-1.64l2.49-.75-4-18.33c-.06-.26 0-.51.18-.55h.09c.16 0 .33.14.39.4l4 18.3 2.47-.74c.45-.14.94.36 1.1 1.11zm9-2.72c.16.73-.06 1.44-.48 1.57l-2.34.73 3.12 14.27c0 .25 0 .51-.17.56h-.08c-.15.05-.32-.11-.38-.37l-3.12-14.29-2.37.74c-.44.14-.93-.36-1.09-1.11l-.23-1.08c-.16-.75.06-1.46.51-1.6l2.36-.71-3.92-17.92c0-.26 0-.5.17-.54h.09c.15 0 .32.14.37.39l3.92 17.9 2.35-.71c.43-.13.91.36 1.06 1.1zm6-14.68c.16.71 0 1.38-.46 1.5l-2.28.63 5.7 26c.06.25 0 .49-.15.55h-.08c-.14.05-.3-.11-.36-.37l-5.71-26-2.24.61c-.42.12-.89-.38-1.05-1.1l-.22-1.06c-.16-.73.06-1.41.48-1.52l2.22-.6-1.18-5.42c-.06-.25 0-.48.16-.52h.08c.14 0 .3.14.36.39l1.19 5.41 2.3-.61c.41-.11.87.38 1 1.1zm8.9-2.43c.15.69 0 1.35-.43 1.46l-2.09.58 5.41 25.39c.06.25 0 .48-.15.53h-.07c-.14 0-.29-.12-.34-.36l-5.43-25.44-2.2.61c-.4.11-.85-.37-1-1.08l-.22-1c-.15-.71.05-1.37.45-1.48l2.22-.59-1.13-5.3c-.05-.24 0-.47.16-.5h.07c.14 0 .29.14.35.38l1.12 5.29 2.09-.56c.39-.1.83.38 1 1.08zm10.33 9.34c.15.68 0 1.33-.4 1.45l-2 .63 2.85 13.3c0 .24 0 .47-.14.52h-.08c-.13 0-.27-.11-.32-.35l-2.93-13.36-2 .64c-.39.12-.82-.35-1-1l-.22-1c-.15-.7 0-1.35.42-1.47l2.07-.62-3.58-16.71c-.05-.24 0-.46.15-.49h.07c.14 0 .28.14.33.38l3.58 16.67 2-.61c.37-.11.8.36 1 1zm7.44-2.34c.14.67 0 1.3-.38 1.41l-1.94.6 2.81 13.05c0 .23 0 .46-.13.5h-.07c-.13 0-.27-.11-.32-.35l-2.81-13-2 .61c-.36.12-.78-.35-.92-1l-.22-1c-.15-.68 0-1.32.39-1.43l2-.6-3.51-16.3c0-.23 0-.45.14-.48h.07c.12 0 .27.13.32.36l3.5 16.27 1.93-.58c.35-.1.76.35.9 1zm5.93-7.65c.14.65 0 1.26-.36 1.36l-1.84.54 3.95 18.3c.05.23 0 .45-.13.49h-.06c-.12 0-.26-.11-.31-.34l-3.95-18.32-1.91.56c-.35.11-.75-.35-.9-1l-.21-1c-.14-.66 0-1.28.37-1.38l1.92-.55-2.24-10.41c-.05-.22 0-.43.13-.46h.06c.13 0 .26.14.31.36l2.25 10.39 1.83-.52c.34-.1.74.36.88 1zm10.1 12.75c.14.64 0 1.25-.33 1.37l-1.8.61.66 3.06c0 .23 0 .44-.11.48h-.07c-.11 0-.24-.11-.29-.33l-.66-3.06-1.77.6c-.33.12-.72-.32-.86-1l-.21-.94c-.15-.66 0-1.28.34-1.39l1.78-.59-5.42-25.05c0-.22 0-.42.12-.45h.06c.12 0 .25.13.3.35l5.42 25 1.79-.59c.32-.11.7.32.84 1zm6.5-2.27c.14.63 0 1.23-.31 1.33l-1.72.6.66 3c0 .22 0 .43-.12.47h-.06c-.11 0-.23-.11-.28-.33l-.66-3-1.7.59c-.31.11-.69-.32-.83-1l-.2-.93c-.14-.64 0-1.24.32-1.35l1.71-.56-5.32-24.49c-.05-.22 0-.42.11-.45h.06c.12 0 .24.13.29.35l5.32 24.44 1.71-.57c.31-.1.68.33.82.95z" fill="#1d1f20"/><path d="m1233.24 444.84-.33 2.89c0 .23-.18.33-.33.23h-.09a.71.71 0 0 1 -.23-.6l.34-2.89c-1.19-.53-2.26.46-2.35 2.39a5.57 5.57 0 0 0 1.74 4.38c1.3 1 2.57.14 2.79-1.78a5.72 5.72 0 0 0 -1.54-4.62z" fill="#1d1f20"/><path d="m1234.53 455.79.69 3.15c0 .25 0 .48-.17.51h-.08c-.14 0-.31-.15-.36-.4l-.69-3.16c-1 .47-1.45 2.17-1.05 4 .45 2.11 1.86 3.57 3.07 3.15 1-.35 1.54-1.92 1.26-3.69-.31-1.99-1.51-3.52-2.67-3.56z" fill="#1d1f20"/><path d="m1266.51 444.87c.73-.92.69-2.88 0-4.42l-1 1.67c-.08.13-.23.09-.33-.1l-.06-.1a.62.62 0 0 1 0-.57l1-1.67c-.82-1.18-1.88-1.4-2.48-.43s-.49 3.35.45 4.85c.73 1.25 1.79 1.57 2.42.77z" fill="#1d1f20"/><path d="m1248.13 437.27c1.11 0 1.73-1.47 1.49-3.27l-1.69.25c-.13 0-.28-.15-.34-.39v-.13c0-.24 0-.45.15-.47l1.68-.24c-.49-1.65-1.59-2.83-2.57-2.69s-1.68 2-1.16 4c.4 1.67 1.46 2.92 2.44 2.94z" fill="#1d1f20"/><path d="m1214.74 451.44c-.11.15-.31.11-.44-.1l-.07-.12a.67.67 0 0 1 0-.67l1.4-2c-1.09-1.42-2.59-1.57-3.39-.15a5.52 5.52 0 0 0 .29 4.93c1 1.89 2.72 2.32 3.65 1a5.25 5.25 0 0 0 0-4.9z" fill="#1d1f20"/><path d="m1279.85 442.58c.77-.25 1.14-1.58.89-3.12-.29-1.75-1.26-3.13-2.16-3.22l.61 2.75c0 .22 0 .41-.12.43h-.07c-.11 0-.24-.14-.29-.35l-.61-2.76c-.75.36-1.07 1.8-.72 3.41.42 1.84 1.54 3.17 2.47 2.86z" fill="#1d1f20"/><path d="m1277.62 432.53c.77-.23 1.16-1.54.9-3.07-.29-1.74-1.26-3.14-2.16-3.26l.6 2.75c0 .22 0 .41-.11.42h-.07c-.11 0-.24-.14-.29-.36l-.6-2.75c-.76.33-1.09 1.75-.73 3.36.4 1.84 1.53 3.19 2.46 2.91z" fill="#1d1f20"/><g fill="#06c"><path d="m1115 510.19-4 1.06-1.46-7.34a.54.54 0 0 0 -.6-.5h-.14a.59.59 0 0 0 -.36.73l1.46 7.37-4.28 1.14a1.8 1.8 0 0 0 -1.05 2.17l.29 1.43a1.55 1.55 0 0 0 1.77 1.41l4.25-1.18 7 35.45c.07.34.34.54.6.45h.14a.68.68 0 0 0 .35-.78l-7-35.37 4-1.11a1.77 1.77 0 0 0 1-2.13l-.28-1.4c-.16-.97-.92-1.59-1.69-1.4z"/><path d="m1133.18 522-3.8 1.14-4.6-23c-.06-.33-.32-.55-.56-.49h-.14a.58.58 0 0 0 -.34.7l4.61 23.06-3.93 1.18a1.81 1.81 0 0 0 -1 2.14l.28 1.4c.2 1 1 1.56 1.67 1.33l3.9-1.22 3.68 18.41c.07.33.32.53.56.45l.14-.05a.66.66 0 0 0 .33-.75l-3.64-18.3 3.82-1.19a1.79 1.79 0 0 0 .91-2.1l-.28-1.36c-.19-.93-.91-1.52-1.61-1.35z"/><path d="m1147.13 517.77-3.58 1.08-4.48-22.25c-.07-.32-.31-.54-.54-.48h-.13a.55.55 0 0 0 -.31.68l4.49 22.31-3.7 1.11a1.75 1.75 0 0 0 -.89 2.07l.28 1.35c.19.93.9 1.52 1.58 1.31l3.67-1.15 3.61 17.89c.06.33.3.52.53.44h.13a.64.64 0 0 0 .3-.73l-3.6-17.86 3.59-1.12a1.72 1.72 0 0 0 .85-2l-.27-1.32c-.19-.95-.88-1.53-1.53-1.33z"/><path d="m1158.75 506.4-3.35 1-2.86-14.1c-.07-.31-.3-.51-.52-.46h-.12c-.22.05-.35.35-.29.66l2.87 14.13-3.53 1a1.64 1.64 0 0 0 -.83 2l.27 1.31c.19.9.87 1.48 1.51 1.29l3.5-1 5 24.9c.06.31.29.5.51.43h.12a.6.6 0 0 0 .28-.7l-5-24.85 3.36-1a1.61 1.61 0 0 0 .79-1.93l-.26-1.28c-.2-1-.83-1.57-1.45-1.4z"/><path d="m1104.4 458a7.79 7.79 0 0 0 -3.15-7.34c-3.08-2-6.54-.26-7.12 3.64a7.74 7.74 0 0 0 3.22 7.45c3.1 1.98 6.5.14 7.05-3.75zm-9-3.79c.56-2.29 2.49-3.45 4.45-2.8l-.95 3.92a.73.73 0 0 0 .34.8l.15.08a.43.43 0 0 0 .62-.32l1-3.92a6.06 6.06 0 0 1 2.1 6.59 3.4 3.4 0 0 1 -4.58 2.3 5.89 5.89 0 0 1 -3.14-6.63z"/><path d="m1105.67 477.14c2.56-2.2 2.59-6.95.08-9.86-1.85-2.13-4.57-2.56-6.48-1-2.65 2.18-2.7 7-.11 10 1.89 2.11 4.63 2.47 6.51.86zm-6.4-8.86 2.45 3.4a.45.45 0 0 0 .71.11l.11-.12a.7.7 0 0 0 0-.86l-2.44-3.4c1.7-1.28 4.14-.62 5.51 1.68a5.81 5.81 0 0 1 -.14 6.32c-1.56 1.95-4.27 1.67-5.9-.58a5.9 5.9 0 0 1 -.3-6.55z"/><path d="m1106.41 493.76c3.24-.3 5.18-4.26 4-8.19-.84-2.86-3.15-4.83-5.52-4.67-3.29.21-5.31 4.18-4.14 8.19.89 2.91 3.25 4.91 5.66 4.67zm-2.28-11.22.86 4.28c.07.34.34.57.6.51h.15a.57.57 0 0 0 .36-.71l-.86-4.27c1.94 0 3.78 1.7 4.28 4.16.58 2.82-.83 5.51-3.11 5.83-1.92.26-3.86-1.29-4.53-3.64-.78-2.7.29-5.38 2.25-6.16z"/><path d="m1116.5 459.86c2.12-.66 3.39-3.2 3-6.05-.48-3.9-3.64-6.79-6.57-6-2.15.61-3.48 3.16-3.13 6.06.52 4.02 3.76 6.9 6.7 5.99zm-2.73-10.76c1.85-.26 3.74 1.29 4.46 3.54l-3.17.47a.52.52 0 0 0 -.34.66v.18c.07.32.32.56.58.52l3.16-.48c.23 2.49-1.11 4.61-3.18 4.67-1.82 0-3.63-1.63-4.22-3.92-.67-2.74.58-5.34 2.71-5.64z"/><path d="m1117.08 474.91c2.26.77 4.47-.53 5.28-3.08 1.09-3.47-.72-7.74-3.77-8.85-2.24-.82-4.49.43-5.33 3-1.16 3.52.74 7.86 3.82 8.93zm-3-7.15 3.2 1.57a.39.39 0 0 0 .57-.33v-.17a.71.71 0 0 0 -.33-.77l-3.19-1.59c.8-2.17 2.92-3 4.86-1.79a5.94 5.94 0 0 1 2.34 5.73c-.42 2.66-2.58 4-4.69 3a5.76 5.76 0 0 1 -2.79-5.65z"/><path d="m1124 489.23c2.38-2.2 2.37-6.84 0-9.62-1.75-2.05-4.3-2.4-6.07-.83-2.46 2.18-2.48 6.91 0 9.73 1.73 2.05 4.3 2.34 6.07.72zm-6.07-8.5 2.33 3.27a.41.41 0 0 0 .66.08l.1-.12a.7.7 0 0 0 0-.84l-2.31-3.26c1.48-1.21 3.58-.77 4.92 1.11 1.51 2.14 1.46 5.34-.18 7-1.37 1.38-3.45 1.19-4.88-.47a6 6 0 0 1 -.66-6.77z"/><path d="m1131 457.48c2-.62 3.17-3.08 2.83-5.85-.48-3.78-3.48-6.59-6.23-5.8-2 .58-3.26 3.05-2.92 5.86.48 3.86 3.55 6.66 6.32 5.79zm-2.65-10.48c1.74-.24 3.53 1.27 4.23 3.46l-3 .44c-.24 0-.38.32-.31.63v.18c.06.31.3.54.54.5l3-.44c.24 2.4-1 4.45-3 4.5-1.72 0-3.44-1.59-4-3.81-.63-2.64.53-5.13 2.54-5.46z"/><path d="m1131.65 472.07c2.13.76 4.21-.49 4.95-3 1-3.36-.72-7.5-3.61-8.59-2.12-.8-4.23.4-5 2.87-1.07 3.45.71 7.65 3.66 8.72zm-2.91-6.95 3 1.55c.23.12.48 0 .54-.32v-.16a.73.73 0 0 0 -.31-.76l-3-1.55c.73-2.1 2.73-2.93 4.57-1.71a5.89 5.89 0 0 1 2.24 5.56c-.38 2.58-2.41 3.88-4.4 2.88a5.69 5.69 0 0 1 -2.64-5.49z"/><path d="m1133.73 486.33c2.76 1.73 5.72-.17 6.13-3.89a7.48 7.48 0 0 0 -2.89-6.87c-2.74-1.77-5.74.05-6.19 3.8a7.45 7.45 0 0 0 2.95 6.96zm-1.92-6.63c.3-2.52 2.09-3.91 3.94-3.35l-.77 3.79a.71.71 0 0 0 .31.75l.14.06c.23.12.47 0 .53-.33l.77-3.78a5.87 5.87 0 0 1 2.06 5.75c-.5 2.51-2.58 3.75-4.56 2.62a5.75 5.75 0 0 1 -2.42-5.51z"/><path d="m1145.77 454.59c2.12-1.88 2.06-6.16-.11-8.89-1.59-2-3.89-2.49-5.47-1.14-2.19 1.85-2.15 6.22.09 9 1.62 1.98 3.93 2.44 5.49 1.03zm-5.54-8.23 2.12 3.16c.17.25.43.3.6.12l.09-.1a.68.68 0 0 0 0-.78l-2.12-3.16c1.42-1.09 3.48-.4 4.68 1.73a5.54 5.54 0 0 1 0 5.69c-1.28 1.71-3.56 1.35-5-.74a5.69 5.69 0 0 1 -.37-5.92z"/><path d="m1149.37 468a7.33 7.33 0 0 0 -.1-7.2c-1.77-3.16-5-3.78-6.78-1.22a7.31 7.31 0 0 0 .08 7.28c1.81 3.14 5.1 3.7 6.8 1.14zm-5.86-7.8c1.19-1.38 3.08-1.17 4.42.38l-2 2.37a.71.71 0 0 0 0 .79l.1.14c.16.24.43.29.59.1l2-2.37c1.07 2.05.92 4.73-.49 6.05-1.25 1.17-3.11.81-4.37-.83-1.54-2.03-1.62-5.08-.25-6.66z"/><path d="m1149.66 483.87c2.72-.21 4.27-3.78 3.23-7.38-.75-2.62-2.73-4.45-4.72-4.34-2.74.15-4.36 3.73-3.31 7.39.77 2.66 2.8 4.46 4.8 4.33zm-2.13-10.23.81 3.9c.06.31.29.52.51.47h.13a.51.51 0 0 0 .28-.64l-.8-3.9c1.63 0 3.21 1.61 3.67 3.86.54 2.57-.59 5-2.5 5.24-1.6.21-3.25-1.23-3.87-3.38-.69-2.47.15-4.88 1.77-5.55z"/><path d="m1156.65 453.28c2.6 0 4.07-3.34 3.06-6.84-.73-2.54-2.62-4.41-4.52-4.43-2.62 0-4.15 3.29-3.13 6.84.74 2.59 2.68 4.46 4.59 4.43zm-2.07-9.89.79 3.77c.06.3.28.52.49.49h.12c.21 0 .33-.3.27-.6l-.78-3.76c1.66.1 3.28 2 3.6 4.36.29 2.1-.58 3.95-2 4.32-1.77.46-3.71-1.32-4.24-3.84-.49-2.23.31-4.23 1.75-4.74z"/><path d="m1159.55 467.09c2.58-.11 4-3.49 3-7-.73-2.55-2.63-4.38-4.51-4.34-2.61.05-4.13 3.44-3.11 7 .78 2.61 2.72 4.43 4.62 4.34zm-2.07-9.91.78 3.78c.06.3.28.51.49.47h.12c.21 0 .33-.31.27-.61l-.78-3.77c1.65.05 3.26 1.88 3.59 4.29.28 2.11-.58 4-2 4.42-1.76.52-3.69-1.22-4.22-3.75-.48-2.23.27-4.27 1.75-4.83z"/><path d="m1165.49 478.09a7.77 7.77 0 0 0 -1.46-7c-2.15-2.47-5.13-1.87-6.15 1.27a7.74 7.74 0 0 0 1.48 7.1c2.18 2.46 5.15 1.78 6.13-1.37zm-6.6-5.49c.88-2 2.95-2.38 4.52-.71a6 6 0 0 1 1.24 5.59c-.67 2.1-2.48 2.77-4.05 1.68l1.32-3.1a.71.71 0 0 0 -.15-.76l-.11-.11a.32.32 0 0 0 -.54.12l-1.33 3.1a6 6 0 0 1 -.9-5.81z"/><path d="m1168.89 451.27c2.46 0 3.83-3.23 2.86-6.63-.71-2.48-2.52-4.3-4.31-4.32-2.49 0-3.92 3.18-2.93 6.64.73 2.51 2.57 4.33 4.38 4.31zm-2-9.61.77 3.67c.06.29.27.5.47.47h.11c.2 0 .31-.29.25-.58l-.76-3.66c1.57.1 3.12 1.92 3.44 4.25.28 2-.53 3.84-1.9 4.2-1.67.43-3.52-1.31-4-3.76-.5-2.16.23-4.1 1.6-4.59z"/><path d="m1171.72 464.71c2.45-.1 3.81-3.38 2.84-6.78-.71-2.48-2.51-4.26-4.3-4.23-2.47 0-3.89 3.32-2.9 6.78.72 2.52 2.57 4.3 4.36 4.23zm-2-9.65.77 3.68c.06.29.27.5.47.47h.11c.2 0 .31-.3.25-.59l-.77-3.68c1.57.06 3.11 1.85 3.43 4.19.29 2.05-.52 3.88-1.88 4.29-1.66.49-3.51-1.21-4-3.67-.49-2.17.24-4.15 1.6-4.69z"/><path d="m1172.38 477.44a2.93 2.93 0 0 0 4.66-1.06 7.44 7.44 0 0 0 -1.78-8.49 2.94 2.94 0 0 0 -4.68 1 7.4 7.4 0 0 0 1.8 8.55zm-1.14-7.61a2.3 2.3 0 0 1 3.76-.83 5.87 5.87 0 0 1 1.72 5.73l-2.31-2.22a.3.3 0 0 0 -.51.11v.13a.72.72 0 0 0 .16.75l2.3 2.22a2.32 2.32 0 0 1 -3.86.44 5.85 5.85 0 0 1 -1.26-6.33z"/><path d="m1175.35 522.73-3.22 1.07-6.88-33.68c-.06-.3-.28-.5-.49-.45h-.12a.5.5 0 0 0 -.26.63l6.89 33.76-3.22 1.07a1.67 1.67 0 0 0 -.77 2l.27 1.28c.18.88.82 1.43 1.43 1.22l3.2-1.1.84 4.13c.06.31.28.49.48.42h.12a.58.58 0 0 0 .26-.67l-.85-4.13 3.24-1.11a1.66 1.66 0 0 0 .72-1.93l-.26-1.25c-.18-.91-.8-1.45-1.38-1.26z"/><path d="m1187 518.77-3 1-6.72-32.7c-.06-.29-.27-.49-.46-.44h-.12c-.19 0-.3.32-.24.61l6.73 32.77-3.05 1a1.61 1.61 0 0 0 -.71 1.89l.26 1.24c.18.86.79 1.4 1.36 1.2l3-1 .83 4.07c.06.29.27.48.46.41h.11a.55.55 0 0 0 .24-.65l-.83-4.07 3.06-1.05a1.6 1.6 0 0 0 .68-1.86l-.26-1.22c-.18-.85-.77-1.39-1.34-1.2z"/><path d="m1241.49 476.52-2.3.61-1.19-5.41c-.06-.25-.22-.42-.36-.39h-.08c-.15 0-.22.27-.16.52l1.18 5.42-2.22.6c-.42.11-.64.79-.48 1.52l.22 1.06c.16.72.63 1.22 1.05 1.1l2.24-.61 5.71 26c.06.26.22.42.36.37h.08c.14-.06.21-.3.15-.55l-5.7-26 2.28-.63c.41-.12.62-.79.46-1.5l-.22-1c-.15-.73-.61-1.22-1.02-1.11z"/><path d="m1235.48 491.18-2.35.71-3.92-17.9c0-.25-.22-.43-.37-.39h-.09c-.15 0-.22.28-.17.54l3.92 17.92-2.36.71c-.45.14-.67.85-.51 1.6l.23 1.08c.16.75.65 1.25 1.09 1.11l2.37-.74 3.12 14.29c.06.26.23.42.38.37h.08c.15-.05.22-.31.17-.56l-3.07-14.28 2.34-.73c.42-.13.64-.84.48-1.57l-.23-1.06c-.2-.74-.68-1.23-1.11-1.1z"/><path d="m1226.44 493.86-2.47.74-4-18.3c-.06-.26-.23-.44-.39-.4h-.09c-.16 0-.24.29-.18.55l4 18.33-2.49.75c-.46.14-.7.88-.54 1.64l.24 1.11c.16.77.67 1.28 1.13 1.13l2.5-.78 3.19 14.69c.06.27.23.43.39.38h.09c.15-.06.23-.32.18-.58l-3.2-14.66 2.46-.77c.45-.14.68-.86.52-1.62l-.24-1.09c-.16-.76-.65-1.26-1.1-1.12z"/><path d="m1215.58 490.27-2.58.73-2.66-12.25c-.06-.27-.24-.45-.41-.41h-.09c-.17.05-.26.3-.2.57l2.66 12.27-2.59.73c-.49.14-.75.89-.59 1.68l.25 1.14c.16.78.7 1.3 1.18 1.16l2.61-.77 4.68 21.61c.06.27.24.44.4.38h.1c.16-.06.25-.32.19-.59l-4.73-21.52 2.61-.77c.47-.14.72-.88.56-1.65l-.24-1.11c-.16-.81-.68-1.33-1.15-1.2z"/><path d="m1232.18 434.19c-1.29-2.61-3.51-3.25-4.57-1.29a6.9 6.9 0 0 0 .31 5.82c1.32 2.63 3.55 3.21 4.59 1.22a6.86 6.86 0 0 0 -.33-5.75zm-.46 5.36c-.76.92-2 .63-2.94-.7a5.58 5.58 0 0 1 -.67-5.07l1.53 2.59c.12.2.3.25.4.11l.06-.08a.65.65 0 0 0 0-.63l-1.52-2.59c.83-.8 2.12-.33 3 1.17.96 1.7 1.05 4.09.14 5.2z"/><path d="m1232.72 443.46c-1.36-.68-2.64.2-3 2.1-.53 2.63.76 6 2.65 6.88 1.37.66 2.62-.26 3-2.16.48-2.59-.79-5.88-2.65-6.82zm2.06 6c-.22 1.92-1.49 2.76-2.79 1.78a5.57 5.57 0 0 1 -1.74-4.38c.09-1.93 1.16-2.92 2.35-2.39l-.34 2.89a.71.71 0 0 0 .23.6h.09c.15.1.3 0 .33-.23l.33-2.89a5.72 5.72 0 0 1 1.54 4.57z"/><path d="m1233.71 454.86c-1.23.49-1.89 2.46-1.55 4.68.46 3 2.48 5.23 4.16 4.52 1.21-.52 1.84-2.49 1.51-4.68-.46-3-2.45-5.19-4.12-4.52zm3.49 4.52c.28 1.77-.26 3.34-1.26 3.69-1.21.42-2.62-1-3.07-3.15-.4-1.84.07-3.54 1.05-4l.69 3.16c.05.25.22.43.36.4h.08c.15 0 .22-.26.17-.51l-.69-3.15c1.16.01 2.36 1.54 2.67 3.56z"/><path d="m1223.87 436.84c-.61-2.18-2.07-3.8-3.46-3.85-1.93-.06-3 2.73-2.09 5.76.62 2.22 2.1 3.83 3.5 3.85 1.91.02 2.89-2.77 2.05-5.76zm-.46.86c.31 1.79-.22 3.4-1.26 3.75-1.2.41-2.58-.87-3.17-2.78l2-.3c.15 0 .24-.25.18-.51v-.14c-.06-.25-.23-.44-.38-.42l-2 .3c-.23-1.83.42-3.37 1.57-3.53s2.65 1.47 3.06 3.63z"/><path d="m1225.34 446.32c-1.17-1.66-2.78-2.06-3.82-.94-1.44 1.55-1.26 5.17.38 7.47 1.19 1.66 2.81 2 3.84.88 1.4-1.56 1.26-5.14-.4-7.41zm.11 6.26c-.89 1.28-2.49.86-3.49-1a5.47 5.47 0 0 1 -.3-4.81c.75-1.38 2.18-1.23 3.23.16l-1.33 1.92a.66.66 0 0 0 0 .65l.07.11c.12.21.31.25.41.1l1.33-1.92a5.22 5.22 0 0 1 .08 4.79z"/><path d="m1226.37 456.73c-1.42-.66-2.75.3-3.16 2.28-.56 2.74.77 6.15 2.73 7 1.42.63 2.74-.36 3.13-2.34.53-2.67-.77-6.04-2.7-6.94zm2.06 6.43c-.31 1.6-1.4 2.36-2.54 1.78-1.38-.7-2.33-3-2.08-5 .21-1.75 1.27-2.65 2.43-2.19l-.37 3a.69.69 0 0 0 .24.61l.09.05c.16.1.31 0 .34-.25l.36-3a5.74 5.74 0 0 1 1.53 5z"/><path d="m1214.59 438.23c-.63-2.23-2.14-3.89-3.6-3.93-2-.06-3.11 2.8-2.23 5.91.64 2.27 2.18 3.92 3.65 3.93 2 .02 3.05-2.85 2.18-5.91zm-.48.88c.31 1.84-.26 3.49-1.35 3.86-1.26.42-2.7-.89-3.3-2.85l2.06-.32c.16 0 .25-.25.19-.51v-.15c0-.26-.23-.45-.39-.43l-2.07.32c-.23-1.88.46-3.46 1.66-3.63 1.33-.19 2.81 1.5 3.2 3.71z"/><path d="m1216.08 448c-1.22-1.7-2.9-2.11-4-1-1.53 1.6-1.36 5.32.35 7.66 1.24 1.7 2.93 2.07 4 .89 1.5-1.62 1.32-5.28-.35-7.55zm.07 6.41c-.93 1.32-2.61.89-3.65-1a5.52 5.52 0 0 1 -.29-4.93c.8-1.42 2.3-1.27 3.39.15l-1.4 2a.67.67 0 0 0 0 .67l.07.12c.13.21.33.25.44.1l1.4-2a5.25 5.25 0 0 1 .04 4.84z"/><path d="m1214.2 459.77a7.13 7.13 0 0 0 .29 6.2c1.41 2.72 3.82 3.18 5 1a7.19 7.19 0 0 0 -.3-6.13c-1.42-2.73-3.82-3.25-4.99-1.07zm4.62 6.49c-.86 1.5-2.52 1.24-3.61-.52a5.71 5.71 0 0 1 -.47-5.07l1.64 2.66c.12.21.32.25.43.09l.06-.09a.67.67 0 0 0 0-.67l-1.67-2.66c1-1 2.5-.45 3.44 1.36a5.52 5.52 0 0 1 .18 4.9z"/><path d="m1202.13 435.93c-1.56-.76-3.06.15-3.55 2.18-.67 2.8.76 6.4 2.93 7.41 1.57.73 3-.23 3.51-2.25.64-2.77-.75-6.27-2.89-7.34zm2.25 6.39c-.29 2.05-1.78 2.93-3.26 1.85a5.68 5.68 0 0 1 -1.93-4.72c.15-2.05 1.41-3.09 2.78-2.51l-.45 3.09a.68.68 0 0 0 .25.64l.1.07c.18.11.35 0 .38-.25l.45-3.08a5.84 5.84 0 0 1 1.68 4.91z"/><path d="m1205.46 448.69c-2-1.61-4.18-.23-4.39 2.88a7.29 7.29 0 0 0 2.35 5.94c2.06 1.58 4.16.14 4.35-2.95a7.33 7.33 0 0 0 -2.31-5.87zm1.5 6.18c-.33 1.69-1.51 2.54-2.76 2-1.45-.65-2.46-2.81-2.38-4.81l2.23 1.36c.18.11.35 0 .38-.26v-.13a.7.7 0 0 0 -.25-.65l-2.18-1.38c.43-1.64 1.7-2.33 3-1.53 1.42.9 2.35 3.37 2 5.4z"/><path d="m1205.66 460.53c-1.43.55-2.23 2.69-1.89 5.08.48 3.29 2.77 5.61 4.71 4.81 1.41-.58 2.18-2.72 1.84-5.07-.47-3.23-2.72-5.57-4.66-4.82zm3.94 4.83c.28 1.9-.37 3.61-1.53 4-1.4.47-3-1.08-3.48-3.35-.42-2 .16-3.82 1.3-4.34l.72 3.4c.06.27.24.45.41.42h.1c.17 0 .26-.29.2-.56l-.73-3.39c1.34 0 2.68 1.64 3.01 3.82z"/><path d="m1190 437.2c-1.52.47-2.39 2.59-2 5 .47 3.34 2.88 5.82 5 5.12 1.5-.5 2.33-2.62 2-5-.59-3.32-2.95-5.76-5-5.12zm2.13 9.1c-1.3.08-2.67-1.29-3.21-3.21-.62-2.19 0-4.23 1.31-4.73l.74 3.48c.06.27.26.47.43.44h.11c.17 0 .27-.28.21-.55l-.74-3.47c1.33.1 2.66 1.62 3.08 3.63.47 2.28-.4 4.32-1.95 4.41z"/><path d="m1192.66 449.89c-1.52.52-2.38 2.68-2 5.13.47 3.36 2.87 5.78 4.93 5 1.49-.55 2.32-2.7 2-5.11-.52-3.29-2.87-5.73-4.93-5.02zm2.12 9.12c-1.28.12-2.65-1.22-3.19-3.14-.62-2.19 0-4.28 1.3-4.81l.74 3.48c.06.27.25.47.43.43h.1c.18 0 .28-.29.22-.56l-.74-3.48c1.32.06 2.64 1.56 3.06 3.57.49 2.28-.37 4.37-1.92 4.5z"/><path d="m1193.48 465a7.71 7.71 0 0 0 1.38 6.53c1.91 2.29 4.42 1.71 5.2-1.16a7.7 7.7 0 0 0 -1.36-6.45c-1.88-2.3-4.41-1.8-5.22 1.08zm5.89 4.65-2.1-2.11a.25.25 0 0 0 -.45.1v.12a.74.74 0 0 0 .15.71l2.11 2.11c-.81 1.5-2.45 1.63-3.72.11a6 6 0 0 1 -1-5.23c.63-2 2.36-2.4 3.76-1a5.93 5.93 0 0 1 1.25 5.18z"/><path d="m1179 438.72c-1.6.49-2.53 2.67-2.19 5.17.48 3.43 3 6 5.18 5.24 1.58-.53 2.48-2.7 2.13-5.16-.49-3.37-2.95-5.91-5.12-5.25zm2.18 9.35c-1.36.08-2.8-1.32-3.36-3.29-.63-2.25 0-4.35 1.42-4.87l.76 3.57c.06.28.26.49.45.46h.1c.19 0 .3-.28.24-.56l-.76-3.56c1.4.09 2.78 1.66 3.22 3.71.47 2.33-.46 4.47-2.09 4.54z"/><path d="m1181.71 451.75c-1.59.54-2.51 2.77-2.17 5.28.48 3.45 3 5.93 5.17 5.13 1.57-.58 2.45-2.79 2.11-5.27-.47-3.39-2.93-5.89-5.11-5.14zm2.18 9.36c-1.35.13-2.78-1.24-3.34-3.21-.64-2.25 0-4.39 1.4-4.95l.76 3.57c.06.28.26.48.45.45h.1c.19 0 .3-.29.24-.57l-.76-3.57c1.39.05 2.77 1.59 3.2 3.65.5 2.33-.42 4.52-2.05 4.63z"/><path d="m1187.27 465.43a2.72 2.72 0 0 0 -4.41.9 7.33 7.33 0 0 0 1.76 8.34 2.71 2.71 0 0 0 4.39-1 7.36 7.36 0 0 0 -1.74-8.24zm1.22 7.09c-.65 1.68-2.15 2.16-3.48 1.19l1.14-2.91a.74.74 0 0 0 -.15-.73l-.1-.09a.27.27 0 0 0 -.48.1l-1.14 2.91a5.8 5.8 0 0 1 -.74-5.82 2.14 2.14 0 0 1 3.55-.63 5.81 5.81 0 0 1 1.4 5.98z"/><path d="m1209.45 511.38-2.68.89-6.67-30.9c-.06-.28-.25-.47-.43-.42h-.1c-.17 0-.27.31-.21.59l6.69 30.95-2.78.93c-.51.17-.79 1-.62 1.77l.25 1.17c.17.81.73 1.33 1.24 1.15l2.78-.95.82 3.79c.06.27.25.45.42.38h.1c.17-.06.26-.34.2-.62l-.81-3.77 2.66-.92c.49-.17.75-.95.58-1.74l-.24-1.15c-.17-.8-.71-1.32-1.2-1.15z"/><path d="m1199 514.79-2.83.94-6.82-31.73c-.06-.28-.26-.48-.44-.43h-.11c-.18.05-.28.32-.22.6l6.82 31.83-2.93 1c-.54.17-.83 1-.66 1.83l.26 1.2c.17.83.75 1.36 1.29 1.17l2.93-1 .85 3.94c.06.29.26.47.44.4h.1c.19-.06.28-.35.22-.63l-.84-3.93 2.8-1c.52-.18.8-1 .63-1.8l-.25-1.18c-.17-.86-.73-1.39-1.24-1.21z"/><path d="m1250.43 474.14-2.09.56-1.12-5.29c-.06-.24-.21-.41-.35-.38h-.07c-.14 0-.21.26-.16.5l1.13 5.3-2.22.59c-.4.11-.6.77-.45 1.48l.22 1c.16.71.61 1.19 1 1.08l2.2-.61 5.43 25.44c0 .24.2.4.34.36h.07c.14-.05.21-.28.15-.53l-5.41-25.39 2.09-.58c.39-.11.58-.77.43-1.46l-.22-1c-.14-.69-.58-1.21-.97-1.07z"/><path d="m1260.8 483.54-2 .61-3.58-16.67c0-.24-.19-.41-.33-.38h-.07c-.13 0-.2.25-.15.49l3.58 16.71-2.07.62c-.38.12-.57.77-.42 1.47l.22 1c.15.69.58 1.16 1 1l2-.64 2.86 13.32c.05.24.19.39.32.35h.08c.13-.05.19-.28.14-.52l-2.85-13.3 2-.63c.37-.12.55-.77.4-1.45l-.21-1c-.12-.62-.55-1.09-.92-.98z"/><path d="m1268.28 481.24-1.93.58-3.5-16.27c0-.23-.2-.39-.32-.36h-.07c-.13 0-.19.25-.14.48l3.51 16.3-2 .6c-.36.11-.54.75-.39 1.43l.22 1c.14.67.56 1.14.92 1l2-.61 2.81 13c.05.24.19.39.32.35h.07c.12 0 .18-.27.13-.5l-2.81-13.05 1.94-.6c.35-.11.52-.74.38-1.41l-.22-1c-.2-.59-.57-1.04-.92-.94z"/><path d="m1274.24 473.62-1.83.52-2.25-10.39c-.05-.22-.18-.38-.31-.36h-.06c-.12 0-.18.24-.13.46l2.24 10.41-1.92.55c-.35.1-.51.72-.37 1.38l.21 1c.15.66.55 1.12.9 1l1.91-.56 3.95 18.32c.05.23.19.38.31.34h.06c.12 0 .18-.26.13-.49l-3.95-18.3 1.84-.54c.34-.1.5-.71.36-1.36l-.21-.95c-.12-.65-.54-1.13-.88-1.03z"/><path d="m1242.24 436.48a7.26 7.26 0 0 0 -2-5.35c-1.73-1.52-3.47-.36-3.58 2.41a7.22 7.22 0 0 0 2.06 5.41c1.71 1.49 3.42.29 3.52-2.47zm-5-3c.18-1.62 1.14-2.4 2.22-1.88l-.32 2.78a.67.67 0 0 0 .22.58l.09.06c.14.1.28 0 .31-.21l.31-2.78a5.71 5.71 0 0 1 1.43 4.78c-.27 1.48-1.26 2.12-2.31 1.51-1.19-.72-2.12-2.95-1.9-4.81z"/><path d="m1243.85 450.2c1.26-1.48 1.05-4.87-.44-7-1.08-1.59-2.55-2-3.48-.93-1.29 1.46-1.09 4.9.43 7.1 1.1 1.55 2.57 1.91 3.49.83zm-3.82-6.55 1.46 2.51c.11.2.28.25.38.1l.05-.08a.61.61 0 0 0 0-.61l-1.46-2.51c.85-.86 2.17-.31 3 1.39a5.35 5.35 0 0 1 .22 4.5c-.73 1.34-2.18 1-3.15-.62a5.56 5.56 0 0 1 -.53-4.68z"/><path d="m1245 462.06c1.72-.07 2.56-2.81 1.76-5.66-.58-2.08-1.91-3.57-3.16-3.55-1.74 0-2.61 2.77-1.8 5.66.63 2.11 1.98 3.6 3.2 3.55zm-1.75-8.07.67 3.08c0 .24.2.42.34.39h.08c.14 0 .21-.25.15-.49l-.66-3.08c1 .05 2.1 1.37 2.48 3.15.44 2-.17 3.88-1.38 4-1 .11-2.1-1.08-2.58-2.77-.49-1.95-.06-3.8.94-4.27z"/><path d="m1248.82 438.18c1.11-.41 1.68-2.21 1.35-4.28-.44-2.84-2.29-5-3.83-4.49-1.12.38-1.71 2.18-1.39 4.28.45 2.88 2.33 5.05 3.87 4.49zm-2-7.85c1-.14 2.08 1 2.57 2.69l-1.68.24c-.14 0-.2.23-.15.47v.13c.06.24.21.41.34.39l1.69-.25c.24 1.8-.38 3.29-1.49 3.27s-2-1.28-2.46-2.94c-.49-2.02.06-3.84 1.19-4z"/><path d="m1249.85 449c1.26.63 2.39-.22 2.7-2 .43-2.47-.75-5.61-2.45-6.51-1.25-.66-2.4.17-2.73 2-.45 2.51.75 5.66 2.48 6.51zm-2-5.25 1.79 1.24c.14.1.28 0 .3-.21v-.13a.69.69 0 0 0 -.21-.57l-1.8-1.24c.33-1.54 1.43-2.1 2.54-1.13a5.63 5.63 0 0 1 1.54 4.21c-.11 1.9-1.21 2.8-2.4 2a5.31 5.31 0 0 1 -1.73-4.14z"/><path d="m1254.26 459.58c1.19-1.48 1-4.82-.46-6.92-1-1.53-2.44-1.89-3.32-.83-1.22 1.47-1 4.86.45 7 1.07 1.52 2.46 1.84 3.33.75zm-3.68-6.35 1.41 2.44c.11.19.27.23.36.09l.05-.08a.67.67 0 0 0 0-.61l-1.41-2.43c.75-.81 1.91-.41 2.72 1 .92 1.6 1 3.9.23 5-.67.93-1.81.7-2.65-.54a5.63 5.63 0 0 1 -.71-4.87z"/><path d="m1256.58 436.9c1.06-.39 1.6-2.15 1.27-4.17-.44-2.78-2.22-4.91-3.68-4.4-1.08.37-1.64 2.13-1.31 4.18.44 2.81 2.25 4.94 3.72 4.39zm-1.95-7.67c.95-.13 2 1 2.48 2.63l-1.61.24c-.13 0-.19.22-.14.45v.13c0 .23.19.41.32.39l1.61-.24c.24 1.76-.34 3.21-1.41 3.19s-2-1.26-2.37-2.89c-.51-1.97.04-3.75 1.12-3.9z"/><path d="m1257.63 447.51c1.2.63 2.28-.21 2.57-2 .4-2.41-.75-5.48-2.38-6.37-1.2-.65-2.3.15-2.61 1.92-.42 2.47.79 5.58 2.42 6.45zm-1.92-5.14 1.72 1.23c.14.09.27 0 .29-.21v-.12a.7.7 0 0 0 -.21-.56l-1.73-1.23c.31-1.5 1.36-2 2.43-1.09a5.59 5.59 0 0 1 1.49 4.12c-.09 1.86-1.14 2.73-2.28 1.93a5.27 5.27 0 0 1 -1.71-4.07z"/><path d="m1259.44 457.91c1.59 1.36 3.13.11 3.19-2.57a7.09 7.09 0 0 0 -1.92-5.09c-1.59-1.39-3.15-.19-3.21 2.51a7.07 7.07 0 0 0 1.94 5.15zm-1.37-4.88c0-1.8 1-2.74 2-2.27l-.25 2.72a.63.63 0 0 0 .21.55l.08.06c.13.09.26 0 .27-.22l.25-2.71a5.62 5.62 0 0 1 1.4 4.25c-.15 1.8-1.24 2.61-2.38 1.7a5.41 5.41 0 0 1 -1.58-4.11z"/><path d="m1264.6 435.24c1.09-1.32.86-4.47-.48-6.53-1-1.51-2.28-1.93-3.09-1-1.12 1.3-.89 4.49.47 6.58.99 1.53 2.3 1.92 3.1.95zm-3.46-6.19 1.32 2.37c.1.19.26.24.34.11v-.07a.64.64 0 0 0 0-.58l-1.32-2.37c.73-.76 1.91-.2 2.68 1.4a5.19 5.19 0 0 1 .26 4.17c-.63 1.22-1.92.88-2.8-.69a5.45 5.45 0 0 1 -.48-4.34z"/><path d="m1267.23 445.16a7 7 0 0 0 -.39-5.28c-1.14-2.38-3-2.93-3.83-1.11a6.88 6.88 0 0 0 .38 5.32c1.15 2.4 3.01 2.91 3.84 1.07zm-3.63-5.91c.6-1 1.66-.75 2.48.43l-1 1.67a.62.62 0 0 0 0 .57l.06.1c.1.19.25.23.33.1l1-1.67c.69 1.54.73 3.5 0 4.42s-1.69.48-2.46-.77c-.9-1.5-1.09-3.73-.41-4.85z"/><path d="m1268.12 456.78c1.51 0 2.21-2.58 1.47-5.25-.54-1.95-1.73-3.36-2.83-3.36-1.53 0-2.26 2.56-1.5 5.26.55 1.98 1.74 3.39 2.86 3.35zm-1.65-7.55.63 2.89c0 .22.18.39.3.36h.07c.12 0 .18-.23.13-.46l-.63-2.88c.91.06 1.87 1.3 2.23 3 .42 1.9-.1 3.63-1.15 3.73-.88.09-1.87-1-2.31-2.62-.5-1.86-.14-3.58.73-4.02z"/><path d="m1270.63 434.6c1.46 0 2.14-2.35 1.41-5-.53-1.9-1.68-3.33-2.75-3.39-1.48-.09-2.18 2.32-1.45 5 .54 1.92 1.72 3.35 2.79 3.39zm-1.62-7.36.61 2.81c.05.22.19.39.3.37h.07c.12 0 .17-.21.13-.43l-.62-2.81c.94.12 1.94 1.54 2.23 3.32.26 1.57-.14 2.91-.94 3.14-1 .29-2.15-1.08-2.56-2.95-.36-1.69-.01-3.11.77-3.45z"/><path d="m1272.9 444.88c1.45 0 2.12-2.44 1.4-5.05-.53-1.91-1.69-3.32-2.75-3.35-1.47 0-2.17 2.4-1.43 5 .54 1.98 1.71 3.39 2.78 3.4zm-1.63-7.38.62 2.82c0 .22.18.38.3.36h.07c.11 0 .17-.22.12-.44l-.62-2.81c.94.09 1.94 1.49 2.23 3.28.26 1.57-.14 2.93-.94 3.2-1 .31-2.13-1-2.55-2.91-.36-1.66-.01-3.13.77-3.5z"/><path d="m1276.76 453.2a7.63 7.63 0 0 0 -1.14-5.22c-1.33-1.89-3-1.56-3.42.71a7.6 7.6 0 0 0 1.16 5.27c1.34 1.89 2.99 1.51 3.4-.76zm-4-4.3c.4-1.46 1.56-1.64 2.52-.35a5.82 5.82 0 0 1 1 4.16c-.28 1.52-1.28 1.94-2.22 1.08l.61-2.23a.73.73 0 0 0 -.12-.57l-.07-.07c-.12-.14-.25-.12-.3.06l-.61 2.22a5.78 5.78 0 0 1 -.79-4.3z"/><path d="m1277.48 433.48c1.4 0 2-2.3 1.33-4.86-.51-1.87-1.63-3.27-2.66-3.33-1.42-.09-2.08 2.26-1.36 4.86.52 1.85 1.66 3.29 2.69 3.33zm-1.59-7.21.6 2.75c0 .22.18.38.29.36h.07c.11 0 .16-.2.11-.42l-.6-2.75c.9.12 1.87 1.52 2.16 3.26.26 1.53-.13 2.84-.9 3.07-.93.28-2.06-1.07-2.46-2.9-.36-1.64-.03-3.04.73-3.37z"/><path d="m1279.71 443.54c1.4 0 2-2.37 1.32-4.94-.52-1.86-1.64-3.24-2.66-3.28-1.41-.05-2.06 2.35-1.34 4.94.52 1.89 1.65 3.27 2.68 3.28zm-1.6-7.22.61 2.76c0 .21.18.37.29.35h.06c.11 0 .17-.21.12-.43l-.61-2.75c.9.09 1.87 1.47 2.16 3.22.25 1.54-.12 2.87-.89 3.12-.93.31-2-1-2.46-2.85-.39-1.62-.03-3.06.72-3.42z"/><path d="m1280.66 453c1 1 2.13.78 2.62-.59a7.12 7.12 0 0 0 -1.4-6.37c-1-1-2.14-.82-2.64.54a7.08 7.08 0 0 0 1.42 6.42zm-1-5.67c.37-1.14 1.27-1.36 2.09-.51a5.65 5.65 0 0 1 1.24 4.31l-1.42-1.73c-.11-.14-.24-.11-.29.06v.09a.7.7 0 0 0 .12.56l1.42 1.74c-.43 1.07-1.36 1.17-2.19.17a5.66 5.66 0 0 1 -.97-4.7z"/><path d="m1284.38 486.44-1.79.59-5.42-25c-.05-.22-.18-.38-.3-.35h-.06c-.12 0-.17.23-.12.45l5.42 25.05-1.78.59c-.33.11-.49.73-.34 1.39l.21.94c.14.65.53 1.09.86 1l1.77-.6.66 3.06c0 .22.18.37.29.33h.07c.11 0 .16-.25.11-.48l-.66-3.06 1.8-.61c.32-.12.47-.73.33-1.37l-.21-.93c-.14-.68-.52-1.11-.84-1z"/><path d="m1290.91 484.2-1.71.57-5.32-24.44c-.05-.22-.17-.38-.29-.35h-.06c-.11 0-.16.23-.11.45l5.32 24.49-1.71.56c-.32.11-.46.71-.32 1.35l.2.93c.14.64.52 1.07.83 1l1.7-.59.66 3c.05.22.17.36.28.33h.06c.11 0 .16-.25.12-.47l-.66-3 1.72-.6c.31-.1.45-.7.31-1.33l-.2-.91c-.14-.66-.51-1.09-.82-.99z"/><path d="m1083.84 399.68c1 0 1.56-1 1.33-2.19l-2.57-12.66a2.53 2.53 0 0 0 -2.2-2.11c-1 0-1.58 1-1.34 2.14l2.58 12.75a2.42 2.42 0 0 0 2.2 2.07z"/><path d="m1094 415.34c.94-.07 1.51-1.06 1.28-2.22l-9-44.13a2.59 2.59 0 0 0 -2.15-2.13c-1 0-1.55.9-1.32 2.05l9 44.43a2.32 2.32 0 0 0 2.19 2z"/><path d="m1097.77 400.12c.92 0 1.48-1 1.24-2.13l-2.9-14.25a2.45 2.45 0 0 0 -2.1-2.05c-.93 0-1.49.93-1.26 2.08l2.92 14.34a2.36 2.36 0 0 0 2.1 2.01z"/><path d="m1107.26 414c.89-.06 1.43-1 1.2-2.16l-8.63-42.14a2.49 2.49 0 0 0 -2-2.07c-.91 0-1.46.87-1.23 2l8.66 42.42a2.24 2.24 0 0 0 2 1.95z"/><path d="m1113.27 411.64c.87-.05 1.39-1 1.16-2.12l-7.76-37.82a2.44 2.44 0 0 0 -2-2c-.89 0-1.42.87-1.19 2l7.8 38.07a2.2 2.2 0 0 0 1.99 1.87z"/><path d="m1117.51 401.52c.85 0 1.36-1 1.13-2l-3.71-18a2.32 2.32 0 0 0 -2-2c-.86 0-1.38.89-1.15 2l3.73 18.14a2.22 2.22 0 0 0 2 1.86z"/><path d="m1126.16 413.62c.83-.06 1.32-1 1.09-2.08l-8.74-42.37a2.37 2.37 0 0 0 -1.92-2c-.85 0-1.35.84-1.13 1.92l8.79 42.64c.23 1.11 1.08 1.95 1.91 1.89z"/><path d="m1131 408c.81 0 1.28-.95 1.06-2l-6.51-31.45a2.31 2.31 0 0 0 -1.88-2c-.82 0-1.31.85-1.09 1.92l6.54 31.65c.24 1.05 1.08 1.88 1.88 1.88z"/><path d="m1138.93 417.89c.79-.06 1.25-1 1-2l-10.69-51.46a2.32 2.32 0 0 0 -1.84-1.95c-.8 0-1.28.8-1.06 1.86l10.73 51.78c.25 1.02 1.08 1.88 1.86 1.77z"/><path d="m1143 409.78c.76 0 1.21-.94 1-2l-7.42-35.65a2.26 2.26 0 0 0 -1.8-1.91c-.78 0-1.24.82-1 1.86l7.46 35.87c.16 1.05.96 1.88 1.76 1.83z"/><path d="m1148.84 411.09c.75-.06 1.18-.94 1-2l-8-38.53a2.22 2.22 0 0 0 -1.76-1.89c-.77 0-1.22.8-1 1.83l8.08 38.76c.13 1.07.92 1.88 1.68 1.83z"/><path d="m1156.78 423c.73-.07 1.15-1 .93-2l-13.06-62.43a2.27 2.27 0 0 0 -1.73-1.9c-.75 0-1.19.76-1 1.78l13.11 62.79c.25 1.04 1.02 1.82 1.75 1.76z"/><path d="m1159.31 409.58c.71 0 1.12-.9.91-1.91l-7.57-36.1c-.21-1-1-1.83-1.7-1.85s-1.15.79-.93 1.8l7.6 36.31c.21 1.02.97 1.8 1.69 1.75z"/><path d="m1164.3 408.57c.7-.05 1.1-.9.89-1.9l-7.19-34.33c-.21-1-1-1.81-1.66-1.83s-1.13.78-.92 1.78l7.26 34.54c.18 1 .92 1.78 1.62 1.74z"/><path d="m1170.85 415.5c.68-.06 1.06-.9.85-1.89l-10.19-48.37c-.2-1-.93-1.79-1.63-1.82s-1.1.75-.89 1.74l10.24 48.64c.21 1 .93 1.76 1.62 1.7z"/><path d="m1174.87 411c.66 0 1-.88.83-1.85l-8.36-39.6c-.21-1-.92-1.77-1.6-1.79s-1.07.76-.86 1.73l8.4 39.82c.2.94.92 1.69 1.59 1.69z"/><path d="m1180.25 413.4c.65 0 1-.88.81-1.84l-9.46-44.7c-.21-1-.91-1.76-1.57-1.78s-1 .74-.84 1.7l9.5 45c.2.92.9 1.67 1.56 1.62z"/><path d="m1184.27 409.94c.64-.05 1-.86.79-1.81l-8.06-38.08c-.2-.94-.89-1.73-1.53-1.74s-1 .74-.82 1.69l8.11 38.28c.18.96.87 1.72 1.51 1.66z"/><path d="m1188.26 406.81c.62-.05 1-.84.77-1.79l-6.82-32.08c-.2-.94-.88-1.71-1.51-1.72s-1 .74-.79 1.68l6.85 32.26c.24.95.87 1.69 1.5 1.65z"/><path d="m1194.54 415c.61-.05 1-.85.75-1.79l-10.29-48.54c-.2-.93-.86-1.7-1.49-1.72s-1 .71-.77 1.64l10.37 48.75c.16.94.82 1.66 1.43 1.66z"/><path d="m1197.34 407.19c.6 0 .93-.83.73-1.75l-7.11-33.3c-.19-.92-.84-1.67-1.45-1.69s-1 .73-.75 1.65l7.14 33.48c.2.93.84 1.65 1.44 1.61z"/><path d="m1202.2 409.48c.58-.05.9-.82.7-1.74l-8.14-38.07c-.2-.91-.83-1.66-1.43-1.68s-.93.71-.73 1.63l8.17 38.27c.23.92.84 1.63 1.43 1.59z"/><path d="m1208.57 419.31c.57-.05.88-.84.68-1.74l-12.38-57.82c-.2-.89-.83-1.65-1.41-1.68s-.91.68-.72 1.58l12.44 58.11c.2.92.82 1.61 1.39 1.55z"/><path d="m1210.42 408.42c.56 0 .86-.8.67-1.7l-7.81-36.4c-.19-.89-.81-1.62-1.38-1.64s-.89.7-.7 1.59l7.85 36.59c.19.9.81 1.6 1.37 1.56z"/><path d="m1213.93 405.66c.55 0 .84-.78.65-1.67l-6.7-31.13c-.19-.88-.79-1.61-1.35-1.62s-.87.7-.68 1.58l6.73 31.3c.19.88.79 1.58 1.35 1.54z"/><path d="m1218.23 407c.54 0 .82-.78.63-1.66l-7.32-34c-.19-.87-.79-1.59-1.34-1.6s-.84.68-.65 1.56l7.35 34.18c.19.88.79 1.52 1.33 1.52z"/><path d="m1222.15 407c.53 0 .8-.78.62-1.64l-7.36-34.09c-.19-.87-.77-1.58-1.31-1.59s-.83.67-.64 1.54l7.39 34.26c.15.83.77 1.52 1.3 1.52z"/><path d="m1227.73 414.92c.51 0 .78-.78.59-1.64l-10.83-50.13c-.19-.86-.77-1.57-1.29-1.59s-.82.64-.63 1.5l10.88 50.38c.19.87.76 1.56 1.28 1.48z"/><path d="m1229.29 404.66c.51 0 .77-.75.59-1.6l-6.49-29.94c-.18-.85-.75-1.54-1.26-1.55s-.79.67-.61 1.52l6.51 30.08c.18.83.75 1.53 1.26 1.49z"/><path d="m1234.17 410.07c.5 0 .75-.75.57-1.6l-8.87-40.88c-.18-.84-.74-1.53-1.25-1.55s-.78.65-.59 1.49l8.9 41.08c.18.85.74 1.5 1.24 1.46z"/><path d="m1236.85 405.7c.49 0 .74-.74.56-1.58l-7-32.37c-.18-.83-.73-1.51-1.23-1.53s-.76.66-.58 1.49l7.07 32.53c.15.84.69 1.49 1.18 1.46z"/><path d="m1240.81 407.5c.48 0 .72-.74.54-1.56l-7.86-36.14c-.18-.82-.72-1.5-1.21-1.52s-.74.64-.56 1.47l7.89 36.31c.18.83.72 1.48 1.2 1.44z"/><path d="m1244.68 409.2c.47 0 .7-.74.52-1.56l-8.65-39.64c-.17-.81-.7-1.48-1.18-1.5s-.73.63-.55 1.45l8.68 39.88c.18.77.71 1.41 1.18 1.37z"/><path d="m1246.81 403.23c.46 0 .69-.71.52-1.53l-6.12-28c-.17-.81-.69-1.47-1.16-1.48s-.71.64-.54 1.45l6.14 28.13c.18.82.7 1.46 1.16 1.43z"/><path d="m1251.39 408.76c.45 0 .67-.72.5-1.52l-8.57-39.17c-.17-.8-.69-1.46-1.15-1.48s-.7.62-.52 1.42l8.59 39.35c.18.81.69 1.44 1.15 1.4z"/><path d="m1254 405.43c.44 0 .66-.71.48-1.5l-7.16-32.72c-.17-.79-.68-1.44-1.13-1.45s-.68.62-.51 1.42l7.19 32.86c.13.8.65 1.42 1.13 1.39z"/><path d="m1256.75 403.3c.43 0 .65-.69.47-1.48l-6.28-28.65c-.17-.79-.67-1.43-1.11-1.44s-.67.62-.5 1.41l6.31 28.78c.17.79.67 1.41 1.11 1.38z"/><path d="m1260 403.66c.43 0 .64-.69.47-1.47l-6.47-29.53c-.18-.77-.67-1.41-1.1-1.42s-.66.61-.49 1.39l6.51 29.66c.17.79.66 1.4 1.08 1.37z"/><path d="m1262.82 402.18c.42 0 .62-.68.45-1.45l-5.88-26.73c-.17-.77-.65-1.41-1.08-1.41s-.64.61-.47 1.38l5.9 26.86c.17.77.65 1.38 1.08 1.35z"/><path d="m1267.46 409.29c.41 0 .61-.69.44-1.45l-9-41c-.16-.76-.64-1.39-1.07-1.41s-.63.59-.46 1.36l9.03 41.21c.17.73.6 1.33 1.06 1.29z"/><path d="m1268.45 400.08c.41 0 .6-.66.43-1.42l-5-22.87c-.17-.76-.63-1.38-1-1.39s-.61.61-.45 1.37l5.07 23c.07.74.5 1.34.95 1.31z"/><path d="m1270 393.69c.4 0 .59-.65.42-1.4l-2.26-10.29c-.16-.76-.63-1.37-1-1.36s-.6.61-.43 1.37l2.27 10.33c.14.76.6 1.36 1 1.35z"/></g><path d="m1090.47 441a.72.72 0 0 0 .69.61l185.48-22.31c.12 0 .18-.22.13-.46s-.2-.42-.32-.4l-185.56 21.82a.58.58 0 0 0 -.42.74z" fill="#575756"/></svg>