<svg viewBox="0 0 1700 700" xmlns="http://www.w3.org/2000/svg"><path d="m1344.76-100h5v405.16h-5z"/><path d="m1329.13 368.76 16.77 4.08a9.78 9.78 0 0 0 2.29.23l18-.79-19.19-3.59z" fill="#222"/><path d="m1366.88 302.07-19.88-3.38h-17.91a2 2 0 0 0 -2 2v66.07a2 2 0 0 0 2 2l17.9-.07 19.15 3.59a2 2 0 0 0 2.36-2v-66.23a2 2 0 0 0 -1.62-1.98z" fill="#333"/><g fill="none" stroke="#141414" stroke-linecap="round" stroke-miterlimit="10" stroke-width="3"><path d="m1343.35 304.21-13.4-.09"/><path d="m1343.43 310.19-13.4-.1"/><path d="m1343.51 316.17-13.4-.1"/><path d="m1343.59 322.14-13.41-.09"/><path d="m1343.66 328.12-13.4-.1"/><path d="m1343.74 334.1-13.4-.1"/><path d="m1343.82 340.07-13.4-.09"/><path d="m1343.9 346.05-13.4-.09"/><path d="m1343.98 352.03-13.41-.1"/><path d="m1344.05 358.01-13.4-.1"/><path d="m1344.13 363.98-13.4-.09"/><path d="m1350.56 305.16 14.11 2.11"/><path d="m1350.56 310.93 14.11 2.12"/><path d="m1350.56 316.7 14.11 2.12"/><path d="m1350.56 322.48 14.11 2.12"/><path d="m1350.56 328.25 14.11 2.12"/><path d="m1350.56 334.02 14.11 2.12"/><path d="m1350.56 339.8 14.11 2.12"/><path d="m1350.56 345.57 14.11 2.12"/><path d="m1350.56 351.35 14.11 2.11"/><path d="m1350.56 357.12 14.11 2.12"/><path d="m1350.56 362.89 14.11 2.12"/></g><path d="m1365.37 297.47-15.61-3.2-5-.31-9.91-.49a1.72 1.72 0 0 0 -1.87 1.73v33.89a2.31 2.31 0 0 0 2.31 2.32h2a2.31 2.31 0 0 0 2.31-2.34l-.39-32.57v-.5a1 1 0 0 1 1.16-1l4.38.28 5 .42 12.51 2.43 3.9.54v-.24a1 1 0 0 0 -.79-.96z" fill="#111"/><path d="m1349.76 295.72-5-.42-4.38-.28a1 1 0 0 0 -1.16 1v.46l5.54.14c0-.25 1.16-.36 2.54-.23s2.4.43 2.46.7l12.51 2.51v1.69l3.9.66v-3.26l-3.9-.54z" fill="#444"/><path d="m1347.3 296.39c-1.38-.13-2.52 0-2.54.23a7.21 7.21 0 0 0 2.45.7 7.56 7.56 0 0 0 2.55-.23c-.06-.27-1.08-.58-2.46-.7z"/></svg>