<svg viewBox="0 0 1700 700" xmlns="http://www.w3.org/2000/svg" xmlns:xlink="http://www.w3.org/1999/xlink"><linearGradient id="a" gradientUnits="userSpaceOnUse" x1="1331.44" x2="1331.44" y1="567.15" y2="594.37"><stop offset="0" stop-opacity=".4"/><stop offset=".91" stop-color="#fff" stop-opacity="0"/></linearGradient><linearGradient id="b" x1="1264.39" x2="1227.51" xlink:href="#a" y1="683.15" y2="619.27"/><linearGradient id="c" x1="1213.88" x2="1182.01" xlink:href="#a" y1="712.31" y2="657.11"/><linearGradient id="d" gradientUnits="userSpaceOnUse" x1="1537.25" x2="1505.02" y1="306.73" y2="306.73"><stop offset="0" stop-color="#ff946e"/><stop offset=".12" stop-color="#ff946e" stop-opacity=".98"/><stop offset=".25" stop-color="#fe9670" stop-opacity=".93"/><stop offset=".37" stop-color="#fe9872" stop-opacity=".85"/><stop offset=".5" stop-color="#fd9b75" stop-opacity=".74"/><stop offset=".63" stop-color="#fb9f79" stop-opacity=".59"/><stop offset=".76" stop-color="#faa37e" stop-opacity=".41"/><stop offset=".89" stop-color="#f8a984" stop-opacity=".2"/><stop offset="1" stop-color="#f6ae8a" stop-opacity="0"/></linearGradient><path d="m1261.36 599.73-97.56 67.9 72.24 31.89 80.91-84.07z" fill="#f2f2f2"/><path d="m1163.8 667.63-1.08 7.23 4.19 3.28 3.68-1.63 65.45 23.01z" fill="#d6d6d6"/><path d="m1374.06 593.75c9.83-.5-19.92-25.65-29.28-26.31-31.68-2.25-48.83 9.29-56.65 17.07a4.35 4.35 0 0 0 2.72 7.41c15.15 1.27 49.34 3.55 83.21 1.83z" fill="#f2f2f2"/><path d="m1374.06 593.75c9.83-.5-19.92-25.65-29.28-26.31-31.68-2.25-48.83 9.29-56.65 17.07a4.35 4.35 0 0 0 2.72 7.41c15.15 1.27 49.34 3.55 83.21 1.83z" fill="url(#a)" opacity=".6"/><path d="m1261.36 599.73-97.56 67.9 72.24 31.89 80.91-84.07z" fill="url(#b)"/><path d="m1163.8 667.63-1.08 7.23 4.19 3.28 3.68-1.63 65.45 23.01z" fill="url(#c)"/><g stroke="#000" stroke-width="2"><path d="m1432.46 279 .85 35.6 6.47 8.53s-4.2 16.76-9 28.83c-.66 1.67 2.87 4.82 4.49 5.59 2 .95 8.75 0 8.75 0s1.61 7 0 12.07c-.7 2.21 8.38 4 8.38 4s-2.26 5.11-2.12 6.91c.2 2.42 2.56 7 4.33 8.69 1.52 1.43 5.61 3 7.68 3.26 3.3.42 9.87-.42 13.15-1 6.11-1 24.39-5.43 24.39-5.43l39.69-7.05-7.86-36.32-49.3-94.68-49.36 15.48z" fill="#f6ae8a" stroke-miterlimit="10"/><path d="m1463.28 549.36s-39.93 10.55-53.58 12.06c-6.94.77-21 1-27.94 0-7.82-1.1-22.52-7.59-30.33-8.77-6.43-1-18.93 1-25 2.56a73.26 73.26 0 0 0 -7.54 2.52c-3.71 1.57-11.72 6-12.19 10.53-.12 1.11 1.93 4 1.93 4s-2.66 4.93-3.27 6.69c-.47 1.37-1 4.78 0 5.8s4.3.67 5.5 0c4.62-2.56 10-12.87 14.72-15.16 5-2.43 17.46-2.59 22.44 0 2.85 1.48 8.77 9.36 8.77 9.36s-22.32 2.21-28.69 4.06c-2.1.61-5.85 3.26-5.94 5.46s2.41 4.74 4.65 5.28c4.68 1.12 37.13.3 48.56 0 3.45-.09 8.56-4.12 11.9-5 10.83-2.81 33.57.31 44.74 1 10.34.69 41.21 4.48 41.21 4.48l17.21-9.83-6.1-25.56-13.08-12.19z" fill="#f6ae8a" stroke-miterlimit="10"/><path d="m1245.45 696.26c2.55.55 9.5 4.32 9.5 4.32l174.54-.58-1.26-36.44-6.81.66s-69.51 2.19-92.54 0c-14.35-1.37-42.68-7.14-56.6-10.86z" fill="#f6ae8a" stroke-miterlimit="10"/><path d="m1569.28 347.5 2.41-7.09 7.68-46.52s1.83-25.33 0-33.5c-1.71-7.57-9.64-20.86-14.3-27.08-6.25-8.31-14.19-13.31-20.07-16.31-5.11-2.65-15.63-6.87-21.35-7.58-10.39-1.27-23.63-1.63-31.47-.92-7.65.69-23 2.75-30.32 5a87.85 87.85 0 0 0 -16.21 7.48c-3.07 2-8.84 6.63-11.1 9.49a69 69 0 0 0 -8.84 17.26c-1.23 4.14-3 9.39-1.79 17.16.62 4.07 8.55 14.1 8.55 14.1s9.19-6.42 12.35-8.42c3.85-2.44 11.23-8.41 15.71-9.26 2.65-.51 12-4.63 14.14-3s12.22 10.09 12.18 13c0 1.86 3.7 3.39 4.12 5.2.47 2-.51 8.47 1 9.94 3.16 3.1 1.48 5.56 3.14 9.67 1.78 4.42.86 16.21.86 16.21l8.94 5.85 56 33.75z" stroke-miterlimit="10"/><path d="m1460.52 261.27s18.09-10.83 24.66-13.24 20.63-5.31 27.67-6c8.57-.81 26.05-1.23 34.4.83 5.58 1.37 15.59 7.38 20.6 10.19 3 1.68 9.87 4.32 11.52 7.31 4 7.34.4 25.14 0 33.5-.59 12.17.68 37.58-4.68 48.52-.71 1.43-4.19 4.17-5.16 4.91a2.5 2.5 0 0 1 -.53.3l-10.85 4.28a2.22 2.22 0 0 1 -2.19-.32c-2.85-2.23-11-8.61-12.65-10.32-8.64-8.66-12.56-21.78-13.83-26.91a2.24 2.24 0 0 0 -2.7-1.62l-21.64 5.37a2.33 2.33 0 0 1 -.53.06h-10.61a2.23 2.23 0 0 1 -2.23-2.28c.11-4.28.15-13.4-1.19-16.73-1.66-4.11-8.35-10.36-11.51-13.47-.68-.67-2.11-1.86-3.45-2.94a4.51 4.51 0 0 1 -1.21-5.55 10.82 10.82 0 0 0 1.3-3.57c0-2.9-2.11-9-4.49-10.67s-10.7-1.65-10.7-1.65z" fill="#282020" stroke-miterlimit="10"/><path d="m1591.71 375a60.71 60.71 0 0 1 -6.54-2.22c-2.34-1.21-6.94-4.07-8.54-6.15-3.13-4.06-7.35-19.14-7.35-19.14s-10.12-2.6-13.15-4.27c-2.58-1.42-7.39-5.09-9.06-7.51-2.11-3.09-3.81-10.57-4.78-14.18s-2.19-10.76-2.9-14.35c-.66-3.29-1.46-10-2.57-13.16-.94-2.68-3.28-8.07-5.29-10.08a16.8 16.8 0 0 0 -6.84-3.58 18.16 18.16 0 0 0 -8.88 1.53c-2.49 1.45-5.87 6.41-7.35 8.89a37.13 37.13 0 0 0 -3.58 8.88c-.57 2.93-.18 9 0 12 .12 2.11.7 6.3 1 8.39a93.81 93.81 0 0 0 1.58 9.89c.67 2.32 3 6.61 3.79 8.88.93 2.59 2.61 12.39 3.15 16.57.42 3.32 1 10.24-.1 13.4-.93 2.67-4.71 7.07-6.53 9.23s-7.91 8-7.91 8l15.21 30.22v41.46l46.83-15.49 35.77-52.11z" fill="#f6ae8a" stroke-miterlimit="10"/><path d="m1538.41 302.19c-.12 4.18-4.15 16.19-4.15 16.19s-4.31 14.81-12 14.81c-8.17 0-13.77-5.66-15.36-9.95-2-5.54-2.86-17.72-2-23.57.35-2.37 2.36-6.83 3.58-8.88 1.48-2.48 4.86-7.44 7.35-8.89a18.16 18.16 0 0 1 8.88-1.53 16.8 16.8 0 0 1 6.84 3.58c2 2 4.25 7.43 5.29 10.08a27.92 27.92 0 0 1 1.57 8.16z" fill="#f5a486" stroke-miterlimit="10"/><path d="m1538.41 302.19c-.12 4.18-4.15 16.19-4.15 16.19s-4.31 14.81-12 14.81c-8.17 0-13.77-5.66-15.36-9.95-2-5.54-2.86-17.72-2-23.57.35-2.37 2.36-6.83 3.58-8.88 1.48-2.48 4.86-7.44 7.35-8.89a18.16 18.16 0 0 1 8.88-1.53 16.8 16.8 0 0 1 6.84 3.58c2 2 4.25 7.43 5.29 10.08a27.92 27.92 0 0 1 1.57 8.16z" fill="url(#d)" opacity=".7" stroke-miterlimit="10"/><path d="m1527.52 316.28s4.71-9 5.19-12.26c.4-2.77-.94-8.38-1.77-11s-2.54-5.42-10.27-5.42c-4.53 0-6.72 2.56-7.3 4.64-.45 1.65-.89 5.39 0 6.85 1.74 2.84 9.11 4.55 11.27 7.08a5.21 5.21 0 0 1 1 3.64c-.34 1-2.29 2.48-3.32 2.43-1.37-.06-4-2.43-5.19-1.76-1.73 1-1.77 7.73-1.77 7.73" fill="none" stroke-miterlimit="10"/></g><path d="m1515.86 415.56c-10.89-21.63-.2-48.15-.2-48.15-.2 5.37-14.58 18.8-14.58 18.8z" fill="#f99c73"/><path d="m1307.76 585.37c6.41-7 9.91-14.65 14.6-17.79 3.29-2.21 9.43-3.5 13.39-3.48 3.81 0 11.13.93 14.13 3.26 2.73 2.11 8.57 12.31 8.57 12.31s-2.54-1.23-5.62-5.57c-2.55-3.61-8.29-6.18-18-6.33-6.78-.1-11.73 2.15-17.79 10.77-4.26 6-9.28 6.83-9.28 6.83z" fill="#f99c73"/><path d="m1322.15 588.48a86.78 86.78 0 0 0 9.29 1.72c10.82.45 31.45.57 41.89-.86 2.93-.4 7.77-4.4 10.63-5.15 6.83-1.81 21.11-2.28 28.18-2.17 16 .24 63.91 3.05 63.91 3.05l-2.84 9.22-61.3-6.17-24.65.65-11.9 5s-36.44.61-48.56 0c-2.97-.16-4.65-5.29-4.65-5.29z" fill="#f99c73"/><path d="m1463.28 549.36s-39.93 10.55-53.58 12.06c-6.94.77-21 1-27.94 0-7.82-1.1-22.52-7.59-30.33-8.77-6.43-1-18.93 1-25 2.56a73.26 73.26 0 0 0 -7.54 2.52c-3.71 1.57-11.72 6-12.19 10.53-.12 1.11 1.93 4 1.93 4s-2.66 4.93-3.27 6.69c-.47 1.37-1 4.78 0 5.8s4.3.67 5.5 0c4.62-2.56 10-12.87 14.72-15.16 5-2.43 17.46-2.59 22.44 0 2.85 1.48 8.77 9.36 8.77 9.36s-22.32 2.21-28.69 4.06c-2.1.61-5.85 3.26-5.94 5.46s2.41 4.74 4.65 5.28c4.68 1.12 37.13.3 48.56 0 3.45-.09 8.56-4.12 11.9-5 10.83-2.81 33.57.31 44.74 1 10.34.69 41.21 4.48 41.21 4.48l17.21-9.83-6.1-25.56-13.08-12.19z" fill="none" stroke="#000" stroke-miterlimit="10" stroke-width="2"/><path d="m1701 466.74s-24.8-39.42-35.23-50.84c-8.73-9.55-30-25.06-41.54-30.91-7.58-3.84-32.52-10-32.52-10s-7.31 2.89-9.34 4.51c-3.53 2.82-8.62 10.49-11.27 14.16-4.12 5.74-12.72 17-17.06 22.54-3.56 4.56-10.7 13.67-14.49 18-3.55 4.08-10 13.31-14.82 15.78-1.52.77-5.47 2.08-6.76 1s-.33-5.58 0-7.41c.62-3.38 4.38-9.47 4.83-12.88a16.73 16.73 0 0 0 -.64-6.76c-1.07-2.39-7.09-7.73-7.09-7.73s-8.83 14.78-11.27 20c-3.46 7.4-9.77 22.59-11.59 30.55-1.67 7.34-2.52 22.46-2.57 30-.06 7.91 2.25 31.55 2.25 31.55l-30.27 19s6.11 7 7.73 9.66a78.5 78.5 0 0 1 5.15 11.27c.86 2.43 2.56 7.41 2.58 10 0 4.14-3.87 16.1-3.87 16.1s9.94-1 13.21-1.61c3.83-.72 15.13-3.86 15.13-3.86s1.34 6.16.64 8c-2.63 7.16-18.65 14.53-21.57 21.58-1.08 2.6.87 8.59 0 11.27s-6 6.56-6.76 9.33c-.65 2.25 1.86 7.35.64 9.34s-7.62 1.85-9 3.87c-1 1.39 1.37 6.6-.32 6.76-7.41.69-44.43 0-44.43 0l5.47 41h274.78z" fill="#06c" stroke="#000" stroke-linecap="round" stroke-linejoin="round" stroke-width="2"/><path d="m1676.05 464s5.8 32.25 5.65 43.13c-.2 14.68-5.91 43.7-9.24 58-3 12.69-10 38-15.4 49.79-6.75 14.73-25.23 41.58-34.4 54.93-5.32 7.76-22.59 30.11-22.59 30.11h-173.87l-1.22-9.12s32.8.59 43.67-.45c10-.95 29.93-4.24 39.53-7.19 8.18-2.51 28.73-5.7 31.31-13.86 1.14-3.57-7.7-12.83-7.7-12.83s22.25 6.52 26.7 1.54c2.52-2.82-2.57-14.89-2.57-14.89s11.85-.49 15.4-2.05c10.1-4.44 26.92-19.69 33.89-28.24 9.1-11.17 33.23-37.73 27.21-50.82-3.25-7.05-30.29-6.68-30.29-6.68s31.58-17.7 40.55-25.67c5.94-5.27 16.23-17.67 20-24.64 5.18-9.44 13.37-41.06 13.37-41.06z" fill="#002851" stroke="#000" stroke-linecap="round" stroke-linejoin="round" stroke-width="2"/><path d="m1563.41 453.09s-9.47 12.25-11.66 16.89c-2.9 6.15-4.45 20-7.44 26.14-1.75 3.58-7.81 9.23-9.44 12.87-1.88 4.17-2.9 13.41-3.82 17.89-1 5.07-1.48 15.8-4 20.31-3.91 6.9-23.52 21.31-23.52 21.31s-7-16.86-8.64-22.72c-1.17-4.28-3-17.5-3-17.5l-30.27 19s6.09 7 7.73 9.66a93.93 93.93 0 0 1 5.15 11.27c1 2.4 2.56 7.41 2.58 10 0 4.14-3.87 16.1-3.87 16.1s9.94-1 13.21-1.61c3.83-.72 15.13-3.86 15.13-3.86s13.3-9.09 16.83-13.08c5.41-6.14 14-20.44 16.69-28.15 1.88-5.37 1.89-17 3.21-22.52a151.71 151.71 0 0 1 6.24-18.3c.85-2 3.27-5.61 4-7.64 2.23-6.09 3.59-19.17 5.63-25.33 1.78-5.38 9.24-20.71 9.24-20.71l12.87-12.46" fill="#002851" stroke="#000" stroke-linecap="round" stroke-linejoin="round" stroke-width="2"/><path d="m0 776.12a5 5 0 0 1 -5-5v-565.95a5 5 0 0 1 4.27-4.95 485.94 485.94 0 0 1 71.35-5.51c65 0 111.89 15.1 157.26 29.71 44.91 14.46 87.32 28.11 145.93 28.11 31.35 0 64.39-3.93 101-12a131.16 131.16 0 0 1 28.3-3c38.29 0 77.16 14.65 114.75 28.82 33.52 12.65 65.14 24.56 92.71 24.55a72.1 72.1 0 0 0 26.43-4.57c20.77-8 41-12.1 60.07-12.1 28.52 0 54.73 8.94 77.89 26.59 21 16 39.09 38.81 53.63 67.72 10.62 21.09 11.85 34.47 12.84 45.21 1.81 19.68 2.64 28.66 74.71 67.68 33.15 17.95 39.43 45.42 45.5 72 8.25 36.1 15.38 67.27 88.82 73.28 10.66.87 19.89 1.36 28.82 1.82 31.89 1.67 54.94 2.88 95 20.27 68.62 29.81 182.78 43.15 265.48 43.15 11.17 0 21.58-.25 30.94-.74 69.08-3.65 126.56-21.52 162.62-35.86a5 5 0 0 1 6.85 4.64v111.13a5 5 0 0 1 -5 5z" fill="#1d1f20"/><path d="m70.62 199.71c126.74 0 182.85 57.82 303.21 57.82 29.5 0 62.88-3.48 102.08-12.13a125.85 125.85 0 0 1 27.22-2.86c71.51 0 147.81 53.36 207.44 53.36a77.5 77.5 0 0 0 28.24-4.9c20.86-8.06 40.29-11.76 58.27-11.76 57.35 0 99.94 37.66 127.06 91.55 31 61.57-21.27 55 89.63 115.05 74.94 40.57 4.31 135 136.29 145.83 49.51 4.06 72.15 0 122.22 21.7 73 31.69 190.49 43.56 267.46 43.56 11.38 0 21.88-.26 31.21-.75 60.75-3.21 118.19-17.9 164.21-36.21v111.15h-1735.16v-565.95a482.54 482.54 0 0 1 70.62-5.46m0-10a490.5 490.5 0 0 0 -72.08 5.57 10 10 0 0 0 -8.54 9.89v566a10 10 0 0 0 10 10h1735.16a10 10 0 0 0 10-10v-111.17a10 10 0 0 0 -10-10 9.89 9.89 0 0 0 -3.7.71c-35.71 14.21-92.63 31.9-161 35.51-9.28.49-19.61.74-30.69.74-82.18 0-195.52-13.21-263.47-42.73-40.88-17.76-64.3-19-96.72-20.68-8.89-.46-18.09-1-28.67-1.81-32-2.62-53.52-10.53-65.87-24.19-10.9-12.06-14.58-28.17-18.48-45.22-6-26.35-12.86-56.23-48-75.26-34.46-18.66-54-31.35-63.37-41.15-7.37-7.71-7.83-12.68-8.74-22.58-1-10.58-2.31-25.07-13.35-47-14.89-29.59-33.42-53-55.07-69.45-24-18.32-51.28-27.61-80.92-27.61-19.7 0-40.52 4.18-61.87 12.44a67.33 67.33 0 0 1 -24.64 4.23c-26.64 0-57.86-11.76-90.92-24.22-38-14.32-77.32-29.13-116.52-29.14a136.59 136.59 0 0 0 -29.37 3.09c-36.27 8-68.95 11.9-99.93 11.9-57.83 0-99.89-13.54-144.41-27.87-45.74-14.73-93-29.95-158.8-29.95z" fill="#7fb2e5"/></svg>